<?xml version="1.0" standalone="no"?>
<!DOCTYPE svg PUBLIC "-//W3C//DTD SVG 1.1//EN" "http://www.w3.org/Graphics/SVG/1.1/DTD/svg11.dtd" >
<svg xmlns="http://www.w3.org/2000/svg" xmlns:xlink="http://www.w3.org/1999/xlink" version="1.1">
<metadata>
Created by FontForge 20170731 at Wed Dec  3 14:19:13 2014
 By Aleksey,,,
Copyright (C) 2006, 2014 Hoefler &#38; Co. http://www.typography.com
</metadata>
<defs>
<font id="Quarto-Black" horiz-adv-x="500" >
  <font-face 
    font-family="Quarto Black"
    font-weight="900"
    font-stretch="normal"
    units-per-em="1000"
    panose-1="2 0 0 0 0 0 0 0 0 0"
    ascent="800"
    descent="-200"
    x-height="464"
    cap-height="668"
    bbox="-117 -343 1166 966"
    underline-thickness="50"
    underline-position="-200"
    unicode-range="U+000D-FB04"
  />
<missing-glyph 
d="M0 -200v1000h500v-1000h-500zM71 750l179 -390l179 390h-358zM50 -76l172 376l-172 376v-752zM450 676l-172 -376l172 -376v752zM250 240l-179 -390h358z" />
    <glyph glyph-name="f_f" unicode="ff" horiz-adv-x="647" 
d="M604 706q65 0 104 -25.5t39 -63.5q0 -35 -28 -59t-62 -24q-21 0 -33 26l-50 108q-8 16 -13 16q-22 0 -35 -47.5t-9 -134.5l2 -38h134l-18 -75h-114v-354q0 -12 4.5 -16t23.5 -6l31 -4v-9h-263v9l10 2q15 3 19 7.5t4 17.5v353h-111v-354q0 -12 4 -16.5t19 -6.5l21 -3v-9
h-258v9l16 3q18 4 22.5 8t4.5 16v353h-73v5l73 68l3 25q11 91 81.5 144t170.5 53q69 0 113 -34q67 56 168 56zM235 502l2 -38h113l3 23q1 21 8 44l-3 6l-64 109q-6 11 -8.5 13.5t-6.5 2.5q-23 0 -35.5 -42.5t-8.5 -117.5z" />
    <glyph glyph-name="fi" unicode="fi" horiz-adv-x="570" 
d="M239 389v-354q0 -12 4 -16.5t19 -6.5l21 -3v-9h-258v9l16 3q18 4 22.5 8t4.5 16v353h-73v5l73 68l3 25q12 105 84.5 162t184.5 57q74 0 120 -26.5t46 -66.5q0 -37 -31.5 -60.5t-70.5 -23.5q-31 0 -46 31l-52 104q-9 17 -17 17q-25 0 -41.5 -47t-12.5 -132l2 -38h211
l72 23l2 -2q-3 -56 -3 -90v-360q0 -12 4.5 -15.5t22.5 -7.5l16 -3v-9h-247v9l10 2q15 3 19 7.5t4 17.5v353h-109z" />
    <glyph glyph-name="fl" unicode="fl" horiz-adv-x="577" 
d="M521 612v-577q0 -11 4.5 -15t22.5 -8l16 -3v-9h-247v9l10 2q15 3 19 7.5t4 17.5v353h-111v-354q0 -12 4 -16.5t19 -6.5l21 -3v-9h-258v9l16 3q18 4 22.5 8t4.5 16v353h-73v5l73 68l3 25q12 104 81.5 161.5t170.5 57.5q71 0 115 -27l84 27l2 -2q-3 -57 -3 -92zM235 502
l2 -38h113v110l-55 91q-11 19 -16 19q-23 0 -35.5 -47t-8.5 -135z" />
    <glyph glyph-name="f_f_i" unicode="ffi" horiz-adv-x="852" 
d="M801 395v-360q0 -12 4.5 -15.5t22.5 -7.5l16 -3v-9h-247v9l10 2q15 3 19 7.5t4 17.5v353h-109v-354q0 -12 4 -16.5t19 -6.5l21 -3v-9h-248v9l10 2q15 3 19 7.5t4 17.5v353h-111v-354q0 -12 4 -16.5t19 -6.5l21 -3v-9h-258v9l16 3q18 4 22.5 8t4.5 16v353h-73v5l73 68
l3 25q11 91 81.5 144t170.5 53q71 0 114 -36q72 58 185 58q74 0 120 -26.5t46 -66.5q0 -37 -31.5 -60.5t-70.5 -23.5q-31 0 -46 31l-52 104q-9 17 -17 17q-25 0 -41.5 -47t-12.5 -132l2 -38h211l72 23l2 -2q-3 -55 -3 -90zM235 502l2 -38h113l3 23q4 30 8 44l-3 6l-64 109
q-6 11 -8.5 13.5t-6.5 2.5q-23 0 -35.5 -42.5t-8.5 -117.5z" />
    <glyph glyph-name="f_f_l" unicode="ffl" horiz-adv-x="859" 
d="M803 612v-577q0 -11 4.5 -15t22.5 -8l16 -3v-9h-247v9l10 2q15 3 19 7.5t4 17.5v353h-111v-354q0 -12 4 -16.5t19 -6.5l21 -3v-9h-248v9l10 2q15 3 19 7.5t4 17.5v353h-111v-354q0 -12 4 -16.5t19 -6.5l21 -3v-9h-258v9l16 3q18 4 22.5 8t4.5 16v353h-73v5l73 68l3 25
q11 91 81.5 144t170.5 53q70 0 113 -35q66 57 169 57q71 0 115 -27l84 27l2 -2q-3 -57 -3 -92zM517 502l2 -38h113v110l-55 91q-11 19 -16 19q-23 0 -35.5 -47t-8.5 -135zM235 502l2 -38h113l3 23q4 30 8 44l-3 6l-64 109q-6 11 -8.5 13.5t-6.5 2.5q-23 0 -35.5 -42.5
t-8.5 -117.5z" />
    <glyph glyph-name="f_b" unicode="fb" horiz-adv-x="848" 
d="M520 613v-202l4 -2q55 71 135 71t126 -60t46 -161q0 -116 -70 -194t-196 -78q-83 0 -155 41q-30 -11 -63 -35l-4 2q7 52 7 106v288h-111v-354q0 -12 4 -16.5t19 -6.5l21 -3v-9h-258v9l16 3q18 4 22.5 8t4.5 16v353h-73v5l73 68l3 25q12 104 81.5 161.5t170.5 57.5
q71 0 115 -27l83 27l2 -2q-3 -57 -3 -91zM655 207q0 90 -29.5 141.5t-75.5 51.5q-17 0 -30 -5l-2 -315q0 -37 14 -56t37 -19q36 0 61 54.5t25 147.5zM235 502l2 -38h113v110l-55 91q-11 19 -16 19q-23 0 -35.5 -47t-8.5 -135z" />
    <glyph glyph-name="f_f_b" unicode="ffb" horiz-adv-x="1130" 
d="M847 -13q-83 0 -155 41q-30 -11 -63 -35l-4 2q7 53 7 106v288h-111v-354q0 -12 4 -16.5t19 -6.5l21 -3v-9h-248v9l10 2q15 3 19 7.5t4 17.5v353h-111v-354q0 -12 4 -16.5t19 -6.5l21 -3v-9h-258v9l16 3q18 4 22.5 8t4.5 16v353h-73v5l73 68l3 25q11 91 81.5 144t170.5 53
q70 0 113 -35q66 57 169 57q71 0 115 -27l83 27l2 -2q-3 -57 -3 -91v-202l4 -2q55 71 135 71t126 -60t46 -161q0 -116 -70 -194t-196 -78zM851 5q36 0 61 54.5t25 147.5q0 90 -29.5 141.5t-75.5 51.5q-17 0 -30 -5l-2 -315q0 -37 14 -56t37 -19zM517 502l2 -38h113v110
l-55 91q-11 19 -16 19q-23 0 -35.5 -47t-8.5 -135zM235 502l2 -38h113l3 23q4 30 8 44l-3 6l-64 109q-6 11 -8.5 13.5t-6.5 2.5q-23 0 -35.5 -42.5t-8.5 -117.5z" />
    <glyph glyph-name="f_f_h" unicode="ffh" horiz-adv-x="1141" 
d="M974 480q48 0 79 -31t31 -102v-312q0 -12 4.5 -15.5t22.5 -7.5l16 -3v-9h-251v9l16 3q12 2 16 6.5t4 16.5v256q0 57 -16 74q-16 14 -42 14q-18 0 -51 -11v-333q0 -12 3.5 -16.5t15.5 -6.5l16 -3v-9h-239v9l10 2q15 3 19 7.5t4 17.5v353h-111v-354q0 -12 4 -16.5t19 -6.5
l21 -3v-9h-248v9l10 2q15 3 19 7.5t4 17.5v353h-111v-354q0 -12 4 -16.5t19 -6.5l21 -3v-9h-258v9l16 3q18 4 22.5 8t4.5 16v353h-73v5l73 68l3 25q11 91 81.5 144t170.5 53q70 0 113 -35q66 57 169 57q71 0 115 -27l84 27l2 -2q-3 -57 -3 -92v-228l4 -2q86 98 167 98z
M517 502l2 -38h113v110l-55 91q-11 19 -16 19q-23 0 -35.5 -47t-8.5 -135zM235 502l2 -38h113l3 23q4 30 8 44l-3 6l-64 109q-6 11 -8.5 13.5t-6.5 2.5q-23 0 -35.5 -42.5t-8.5 -117.5z" />
    <glyph glyph-name="f_f_j" unicode="ffj" horiz-adv-x="852" 
d="M580 0h-263v9l10 2q15 3 19 7.5t4 17.5v353h-111v-354q0 -12 4 -16.5t19 -6.5l21 -3v-9h-258v9l16 3q18 4 22.5 8t4.5 16v353h-73v5l73 68l3 25q11 91 81.5 144t170.5 53q71 0 114 -36q72 58 185 58q74 0 120 -26.5t46 -66.5q0 -37 -31.5 -60.5t-70.5 -23.5q-31 0 -46 31
l-52 104q-9 17 -17 17q-25 0 -41.5 -47t-12.5 -132l2 -38h212l71 23l2 -2q-3 -55 -3 -90v-342q0 -68 -9 -104q-16 -65 -66 -115q-68 -68 -164 -68q-52 0 -81.5 22.5t-29.5 60.5q0 33 23 55.5t55 22.5q17 0 26 -20l54 -119q3 -7 6 -7q2 0 4 2q11 11 11 85v521h-109v-354
q0 -12 4.5 -16t23.5 -6l31 -4v-9zM235 502l2 -38h113l3 23q4 30 8 44l-3 6l-64 109q-6 11 -8.5 13.5t-6.5 2.5q-23 0 -35.5 -42.5t-8.5 -117.5z" />
    <glyph glyph-name="f_f_k" unicode="ffk" horiz-adv-x="1134" 
d="M946 346l151 -287q21 -39 54 -47l15 -4v-8h-280v8l13 3q16 4 17.5 10t-9.5 29l-66 132q-8 16 -14.5 24t-10.5 9.5t-11 1.5h-2v-182q0 -12 3.5 -16.5t15.5 -6.5l16 -3v-9h-239v9l10 2q15 3 19 7.5t4 17.5v353h-111v-354q0 -12 4 -16.5t19 -6.5l21 -3v-9h-248v9l10 2
q15 3 19 7.5t4 17.5v353h-111v-354q0 -12 4 -16.5t19 -6.5l21 -3v-9h-258v9l16 3q18 4 22.5 8t4.5 16v353h-73v5l73 68l3 25q11 91 81.5 144t170.5 53q70 0 113 -35q66 57 169 57q71 0 115 -27l84 27l2 -2q-3 -57 -3 -92v-388l128 144q27 32 27 43q0 13 -46 29l-45 16v8h270
v-8l-41 -15q-35 -13 -52.5 -23t-57.5 -41zM517 502l2 -38h113v110l-55 91q-11 19 -16 19q-23 0 -35.5 -47t-8.5 -135zM235 502l2 -38h113l3 23q4 30 8 44l-3 6l-64 109q-6 11 -8.5 13.5t-6.5 2.5q-23 0 -35.5 -42.5t-8.5 -117.5z" />
    <glyph glyph-name="f_h" unicode="fh" horiz-adv-x="859" 
d="M692 480q48 0 79 -31t31 -102v-312q0 -12 4.5 -15.5t22.5 -7.5l16 -3v-9h-251v9l16 3q12 2 16 6.5t4 16.5v256q0 57 -16 74q-16 14 -42 14q-18 0 -51 -11v-333q0 -12 3.5 -16.5t15.5 -6.5l16 -3v-9h-239v9l10 2q15 3 19 7.5t4 17.5v353h-111v-354q0 -12 4 -16.5t19 -6.5
l21 -3v-9h-258v9l16 3q18 4 22.5 8t4.5 16v353h-73v5l73 68l3 25q12 104 81.5 161.5t170.5 57.5q71 0 115 -27l84 27l2 -2q-3 -57 -3 -92v-228l4 -2q86 98 167 98zM235 502l2 -38h113v110l-55 91q-11 19 -16 19q-23 0 -35.5 -47t-8.5 -135z" />
    <glyph glyph-name="f_j" unicode="fj" horiz-adv-x="570" 
d="M348 -132v521h-109v-354q0 -12 4.5 -16t23.5 -6l31 -4v-9h-273v9l16 3q18 4 22.5 8t4.5 16v353h-73v5l73 68l3 25q12 105 84.5 162t184.5 57q74 0 120 -26.5t46 -66.5q0 -37 -31.5 -60.5t-70.5 -23.5q-31 0 -46 31l-52 104q-9 17 -17 17q-25 0 -41.5 -47t-12.5 -132
l2 -38h212l71 23l2 -2q-3 -56 -3 -90v-342q0 -68 -9 -104q-16 -65 -66 -115q-68 -68 -164 -68q-52 0 -81.5 22.5t-29.5 60.5q0 33 23 55.5t55 22.5q17 0 26 -20l54 -119q3 -7 6 -7q2 0 4 2q11 11 11 85z" />
    <glyph glyph-name="f_k" unicode="fk" horiz-adv-x="852" 
d="M664 346l151 -287q21 -39 54 -47l15 -4v-8h-280v8l13 3q16 4 17.5 10t-9.5 29l-66 132q-8 16 -14.5 24t-10.5 9.5t-11 1.5h-2v-182q0 -12 3.5 -16.5t15.5 -6.5l16 -3v-9h-239v9l10 2q15 3 19 7.5t4 17.5v353h-111v-354q0 -12 4 -16.5t19 -6.5l21 -3v-9h-258v9l16 3
q18 4 22.5 8t4.5 16v353h-73v5l73 68l3 25q12 104 81.5 161.5t170.5 57.5q71 0 115 -27l84 27l2 -2q-3 -57 -3 -92v-388l128 144q27 32 27 43q0 13 -46 29l-45 16v8h270v-8l-41 -15q-35 -13 -52.5 -23t-57.5 -41zM235 502l2 -38h113v110l-55 91q-11 19 -16 19
q-23 0 -35.5 -47t-8.5 -135z" />
    <glyph glyph-name=".notdef" 
d="M0 -200v1000h500v-1000h-500zM71 750l179 -390l179 390h-358zM50 -76l172 376l-172 376v-752zM450 676l-172 -376l172 -376v752zM250 240l-179 -390h358z" />
    <glyph glyph-name=".null" horiz-adv-x="0" 
 />
    <glyph glyph-name="nonmarkingreturn" horiz-adv-x="333" 
 />
    <glyph glyph-name="NULL" horiz-adv-x="0" 
 />
    <glyph glyph-name="NULL" horiz-adv-x="0" 
 />
    <glyph glyph-name="CR" unicode="&#xd;" horiz-adv-x="0" 
 />
    <glyph glyph-name="space" unicode=" " horiz-adv-x="125" 
 />
    <glyph glyph-name="exclam" unicode="!" horiz-adv-x="304" 
d="M152 684q46 0 73.5 -26t27.5 -74q0 -49 -33 -149q-46 -139 -53 -171l-11 -49h-8l-11 49q-7 32 -53 171q-33 100 -33 149q0 48 27.5 74t73.5 26zM153 -12q-41 0 -69.5 26.5t-28.5 64.5q0 35 28 63t72 28q38 0 66 -27t28 -62q0 -37 -27.5 -65t-68.5 -28z" />
    <glyph glyph-name="quotedbl" unicode="&#x22;" horiz-adv-x="447" 
d="M220 590q0 -27 -25 -60l-39 -53l-92 -117l-6 3l10 129l6 73q3 43 18.5 65t50.5 22q34 0 55.5 -17t21.5 -45zM405 590q0 -27 -25 -60l-39 -53l-92 -117l-6 3l10 129l6 73q3 43 18.5 65t50.5 22q34 0 55.5 -17t21.5 -45z" />
    <glyph glyph-name="numbersign" unicode="#" horiz-adv-x="652" 
d="M293 -8l79 224h-168l-79 -224h-22l79 224h-167v22h174l61 173h-176v22h184l79 224h22l-79 -224h168l79 224h22l-79 -224h167v-22h-175l-61 -173h177v-22h-184l-79 -224h-22zM272 411l-61 -173h168l61 173h-168z" />
    <glyph glyph-name="dollar" unicode="$" horiz-adv-x="533" 
d="M236 -103l-18 1q1 10 4 42.5t5 52.5q-78 7 -158 42q-12 76 -9 197l9 3q50 -112 83.5 -161t76.5 -60l21 214l-51 39q-42 32 -65 53.5t-41.5 55.5t-18.5 72q0 65 57 109.5t159 44.5h3l9 92l19 -1l-9 -92q92 -5 142 -30q8 -56 6 -178l-9 -2q-44 94 -73.5 135.5t-67.5 52.5
l-18 -182l51 -37q75 -57 106.5 -99.5t31.5 -101.5q0 -72 -60 -119.5t-163 -47.5h-13zM347 100q0 30 -19.5 56t-61.5 59l-19 -204h11q40 0 64.5 24t24.5 65zM207 512q0 -49 68 -102l16 172q-4 1 -12 1q-33 0 -52.5 -20t-19.5 -51z" />
    <glyph glyph-name="percent" unicode="%" horiz-adv-x="848" 
d="M665 641l20 -9l-500 -644l-20 9zM615 -10q-80 0 -127 43.5t-47 108.5q0 74 50.5 120t134.5 46q80 0 127 -43.5t47 -108.5q0 -74 -50.5 -120t-134.5 -46zM624 4q48 0 48 144q0 65 -14 105.5t-41 40.5q-48 0 -48 -144q0 -65 14 -105.5t41 -40.5zM233 640q80 0 127 -43.5
t47 -108.5q0 -74 -50.5 -120t-134.5 -46q-80 0 -127 43.5t-47 108.5q0 74 50.5 120t134.5 46zM224 626q-48 0 -48 -144q0 -65 14 -105.5t41 -40.5q48 0 48 144q0 65 -14 105.5t-41 40.5z" />
    <glyph glyph-name="ampersand" unicode="&#x26;" horiz-adv-x="853" 
d="M350 644q72 0 129.5 -28t57.5 -85q0 -82 -153 -133q79 -51 122 -86t84 -89q57 122 57 138q0 15 -48 36l-43 19v6h292v-6l-45 -20q-41 -18 -59.5 -31.5t-60.5 -57.5l-87 -92q12 -16 29 -41q61 -93 87 -116t64 -23q28 0 64 8l3 -7q-21 -12 -91 -32t-121 -20
q-49 0 -73.5 20.5t-63.5 80.5l-11 16q-62 -61 -112 -89t-122 -28q-75 0 -134 46t-59 126q0 115 165 171q-96 67 -96 146q0 77 70 124t155 47zM364 81q61 0 110 33q-43 61 -89.5 100.5t-138.5 96.5l-14 8q-28 -31 -28 -91q0 -63 41.5 -105t118.5 -42zM260 548q0 -44 27 -74
t89 -70q26 55 26 115q0 57 -22.5 81.5t-49.5 24.5q-32 0 -51 -22.5t-19 -54.5z" />
    <glyph glyph-name="quotesingle" unicode="'" horiz-adv-x="256" 
d="M220 590q0 -27 -25 -60l-39 -53l-92 -117l-6 3l10 129l6 73q3 43 18.5 65t50.5 22q34 0 55.5 -17t21.5 -45z" />
    <glyph glyph-name="parenleft" unicode="(" horiz-adv-x="428" 
d="M231 282q0 -189 59.5 -312.5t150.5 -168.5l-2 -8q-54 18 -102 42.5t-99.5 66.5t-88.5 93.5t-61 125.5t-24 161t24 161t61 125.5t88.5 93.5t99.5 66.5t102 42.5l2 -8q-91 -45 -150.5 -168.5t-59.5 -312.5z" />
    <glyph glyph-name="parenright" unicode=")" horiz-adv-x="428" 
d="M197 283q0 189 -59.5 312.5t-150.5 168.5l2 8q54 -18 102 -42.5t99.5 -66.5t88.5 -93.5t61 -125.5t24 -161t-24 -161t-61 -125.5t-88.5 -93.5t-99.5 -66.5t-102 -42.5l-2 8q91 45 150.5 168.5t59.5 312.5z" />
    <glyph glyph-name="asterisk" unicode="*" horiz-adv-x="445" 
d="M57 418q-11 17 -9 35.5t17 27.5q11 6 54 10t75 15l26 8l-26 8q-32 11 -75 15t-54 10q-15 9 -17 27.5t9 35.5q10 18 26.5 25t31.5 -1q11 -7 36 -42t50 -57l20 -18l-5 26q-7 33 -25 72t-18 52q0 17 14.5 28t35.5 11t35.5 -11t14.5 -28q0 -13 -18 -52t-25 -72l-6 -26l20 18
q25 22 50 57t36 42q15 8 31.5 1t26.5 -25q11 -17 9 -35.5t-17 -27.5q-11 -6 -54 -10t-75 -15l-25 -8l25 -8q32 -11 75 -15t54 -10q15 -9 17 -27.5t-9 -35.5q-10 -18 -26.5 -25t-31.5 1q-11 7 -36 42t-50 57l-20 17l6 -25q7 -33 25 -72t18 -52q0 -17 -14.5 -28t-35.5 -11
t-35.5 11t-14.5 28q0 13 18 52t25 72l5 25l-20 -17q-25 -22 -50 -57t-36 -42q-15 -8 -31.5 -1t-26.5 25z" />
    <glyph glyph-name="plus" unicode="+" horiz-adv-x="504" 
d="M240 453h24v-190h190v-24h-190v-190h-24v190h-190v24h190v190z" />
    <glyph glyph-name="comma" unicode="," horiz-adv-x="274" 
d="M241 34q0 -85 -64 -143t-162 -73l-2 7q76 28 107 63.5t31 87.5q0 20 -4.5 27t-17.5 7l-29 -1q-41 -1 -57 19.5t-16 47.5q0 42 26.5 70.5t74.5 28.5q46 0 79.5 -35t33.5 -106z" />
    <glyph glyph-name="hyphen" unicode="-" horiz-adv-x="344" 
d="M308 192h-272v117h272v-117z" />
    <glyph glyph-name="period" unicode="." horiz-adv-x="266" 
d="M232 83q0 -38 -28 -66.5t-70 -28.5t-71 27.5t-29 65.5q0 36 29 65t73 29q39 0 67.5 -28t28.5 -64z" />
    <glyph glyph-name="slash" unicode="/" horiz-adv-x="397" 
d="M-22 -232l378 1036l23 -8l-378 -1036z" />
    <glyph glyph-name="zero" unicode="0" horiz-adv-x="588" 
d="M302 492q117 0 187.5 -72.5t70.5 -171.5q0 -113 -76.5 -188.5t-197.5 -75.5q-117 0 -187.5 72.5t-70.5 171.5q0 113 76.5 188.5t197.5 75.5zM289 472q-44 0 -60.5 -62.5t-16.5 -173.5q0 -102 22.5 -167.5t64.5 -65.5q44 0 61 61t17 169q0 104 -23 171.5t-65 67.5z" />
    <glyph glyph-name="one" unicode="1" horiz-adv-x="392" 
d="M280 154q0 -85 6 -109q4 -15 14 -20.5t40 -10.5l30 -5v-9h-348v9l30 5q30 5 40 10.5t14 20.5q6 24 6 109v168q0 85 -6 109q-4 15 -14 20.5t-40 10.5l-30 5v9h348v-9l-30 -5q-30 -5 -40 -10.5t-14 -20.5q-6 -24 -6 -109v-168z" />
    <glyph glyph-name="two" unicode="2" horiz-adv-x="480" 
d="M269 492q73 0 119.5 -40.5t46.5 -99.5q0 -33 -13.5 -59t-54 -54.5t-66 -42.5t-97.5 -51l-7.5 -4.5t-7 -3.5t-8.5 -4l1 -3l194 8q35 1 45.5 5.5t23.5 17.5l13 14l6 -2l-63 -173h-393l-1 5q118 93 173.5 145t72 80.5t16.5 62.5q0 38 -27 62.5t-72 24.5q-71 0 -143 -79l-6 4
q85 187 248 187z" />
    <glyph glyph-name="three" unicode="3" horiz-adv-x="459" 
d="M142 -193q-67 0 -104 24t-37 65q0 31 23 52.5t55 21.5q24 0 34 -25l40 -98q13 -23 19 -25q32 0 64 43t32 115q0 132 -169 164l-1 5l14 5q135 49 135 142q0 40 -26.5 67t-74.5 27q-60 0 -121 -56l-5 5q82 153 222 153q74 0 119 -36.5t45 -95.5q0 -98 -157 -156
q73 -16 125 -58.5t52 -117.5q0 -98 -86 -159.5t-198 -61.5z" />
    <glyph glyph-name="four" unicode="4" horiz-adv-x="541" 
d="M249 -187v200h-257l-3 6l337 459h81v-374h130l-15 -91h-115v-200h-158zM89 107l2 -3h158v221l-3 1z" />
    <glyph glyph-name="five" unicode="5" horiz-adv-x="474" 
d="M137 476h281q13 0 24 19l7 12l8 -3l-37 -156q-2 -12 -7.5 -15.5t-19.5 -3.5h-275l-20 -86q135 -9 211 -47q115 -58 115 -169q0 -99 -80.5 -159.5t-185.5 -60.5q-74 0 -114 24.5t-40 68.5q0 30 24 51.5t56 21.5q22 0 30 -23l37 -102q6 -17 9.5 -21.5t10.5 -4.5q41 0 82 37
t41 101q0 68 -69 102q-64 32 -184 37l-3 3z" />
    <glyph glyph-name="six" unicode="6" horiz-adv-x="540" 
d="M305 418q89 0 149 -49.5t60 -151.5q0 -103 -70 -168t-169 -65q-115 0 -180 73t-65 203q0 184 130 301t344 106v-9q-108 -8 -182.5 -77t-105.5 -180q51 17 89 17zM213 381h-2q-15 -65 -15 -136q0 -65 8.5 -115.5t22 -77.5t28 -40t29.5 -13q68 0 68 184q0 59 -13.5 101
t-36 61.5t-44 27.5t-45.5 8z" />
    <glyph glyph-name="seven" unicode="7" horiz-adv-x="456" 
d="M376 331h-257q-39 0 -52 -13q-11 -11 -30 -43l-12 -20l-7 2q40 159 55 250l8 -1l2 -14q1 -6 1.5 -8t2 -4.5t4 -3t7.5 -0.5h341l3 -3l-204 -660h-177l-2 3z" />
    <glyph glyph-name="eight" unicode="8" horiz-adv-x="526" 
d="M273 668q90 0 147 -43.5t57 -108.5q0 -87 -130 -139q86 -48 116.5 -88.5t30.5 -97.5q0 -88 -71 -147.5t-165 -59.5q-55 0 -103.5 14.5t-85.5 52.5t-37 92q0 57 38.5 92t102.5 60q-120 69 -120 178q0 87 67 141t153 54zM365 112q0 42 -35 80.5t-135 90.5q-29 -68 -29 -139
q0 -64 29.5 -102.5t79.5 -38.5q39 0 64.5 30t25.5 79zM186 553q0 -20 4 -36t16.5 -37t42 -43.5t74.5 -46.5q2 -2 3 -2q24 66 24 129q0 60 -20.5 97t-61.5 37q-39 0 -60.5 -29t-21.5 -69z" />
    <glyph glyph-name="nine" unicode="9" horiz-adv-x="540" 
d="M235 58q-89 0 -149 49.5t-60 151.5q0 103 70 168t169 65q115 0 180 -73t65 -203q0 -184 -130 -301t-344 -106v9q108 8 182 76.5t106 180.5q-46 -17 -89 -17zM188 293q0 -59 13.5 -101t36 -61.5t44 -27.5t45.5 -8h1q16 67 16 136q0 65 -8.5 115.5t-22 77.5t-28 40
t-29.5 13q-68 0 -68 -184z" />
    <glyph glyph-name="colon" unicode=":" horiz-adv-x="282" 
d="M42 382q0 36 29 65t73 29q39 0 67.5 -28t28.5 -64q0 -38 -28 -66.5t-70 -28.5t-71 27.5t-29 65.5zM42 81q0 36 29 65t73 29q39 0 67.5 -28t28.5 -64q0 -38 -28 -66.5t-70 -28.5t-71 27.5t-29 65.5z" />
    <glyph glyph-name="semicolon" unicode=";" horiz-adv-x="290" 
d="M35 76q0 42 26.5 70.5t74.5 28.5q46 0 79.5 -35t33.5 -106q0 -85 -64 -143t-162 -73l-2 7q76 28 107 63.5t31 87.5q0 20 -4.5 27t-17.5 7l-29 -1q-41 -1 -57 19.5t-16 47.5zM42 382q0 36 29 65t73 29q39 0 67.5 -28t28.5 -64q0 -38 -28 -66.5t-70 -28.5t-71 27.5
t-29 65.5z" />
    <glyph glyph-name="less" unicode="&#x3c;" horiz-adv-x="516" 
d="M422 44l-386 196v22l386 196l11 -21l-367 -186l367 -186z" />
    <glyph glyph-name="equal" unicode="=" horiz-adv-x="504" 
d="M50 159v24h404v-24h-404zM50 319v24h404v-24h-404z" />
    <glyph glyph-name="greater" unicode="&#x3e;" horiz-adv-x="516" 
d="M480 240l-386 -196l-11 21l367 186l-367 186l11 21l386 -196v-22z" />
    <glyph glyph-name="question" unicode="?" horiz-adv-x="417" 
d="M389 441q0 -63 -27.5 -93t-89.5 -47l-111 -30q-13 -4 -17.5 -11t-5.5 -31l-1 -14h-9l-10 47q-20 93 -20 118q0 21 11 32t43 22l101 29q62 21 62 63q0 30 -20.5 68.5t-38.5 38.5q-8 0 -39 -29l-76 -70q-30 -27 -52 -27q-24 0 -42.5 23t-18.5 60t30 65.5t78 28.5
q106 0 179.5 -72t73.5 -171zM244 81q0 -37 -27.5 -65t-68.5 -28t-69.5 26.5t-28.5 64.5q0 35 28 63t72 28q38 0 66 -27t28 -62z" />
    <glyph glyph-name="at" unicode="@" horiz-adv-x="909" 
d="M806 -37q-154 -159 -372 -159q-176 0 -285 99t-109 277q0 127 59.5 238.5t170 181t246.5 69.5q161 0 257 -88t96 -215q0 -75 -36.5 -141t-94 -109t-128 -67.5t-139.5 -24.5q-39 0 -39 15q0 20 31 99l13 34l-5 1q-42 -63 -71 -92q-55 -55 -111 -55q-78 0 -78 88
q0 57 40 137t91 130q74 75 150 75q58 0 73 -43h3l22 55h134l1 -2l-125 -328q-21 -56 -21 -62q0 -8 15 -8q19 0 49 12t65.5 37.5t66.5 59.5t51.5 84.5t20.5 106.5q0 118 -91 199.5t-239 81.5q-131 0 -236.5 -67t-162 -174t-56.5 -228q0 -169 103 -262.5t269 -93.5
q209 0 360 153zM527 431q-16 0 -37 -21q-39 -39 -88.5 -143t-49.5 -146q0 -26 19 -26q17 0 43 26q42 42 91 137t49 138q0 35 -27 35z" />
    <glyph glyph-name="A" unicode="A" horiz-adv-x="689" 
d="M224 6v-6h-261v6l37 17q40 18 60 42.5t45 87.5l165 404q-11 27 -24 48v1q105 34 164 96h2l198 -602q17 -50 31 -65.5t44 -20.5l31 -5v-9h-361v9l31 4q45 6 45 28q0 12 -7 35l-50 157h-192l-9 -29q-38 -112 -38 -138q0 -13 10 -21t40 -22zM280 527l-89 -268h174z" />
    <glyph glyph-name="A" unicode="&#x1fa;" horiz-adv-x="689" 
d="M224 6v-6h-261v6l37 17q40 18 60 42.5t45 87.5l165 404q-11 27 -24 48v1q105 34 164 96h2l198 -602q17 -50 31 -65.5t44 -20.5l31 -5v-9h-361v9l31 4q45 6 45 28q0 12 -7 35l-50 157h-192l-9 -29q-38 -112 -38 -138q0 -13 10 -21t40 -22zM280 527l-89 -268h174z" />
    <glyph glyph-name="A" unicode="&#x104;" horiz-adv-x="689" 
d="M224 6v-6h-261v6l37 17q40 18 60 42.5t45 87.5l165 404q-11 27 -24 48v1q105 34 164 96h2l198 -602q17 -50 31 -65.5t44 -20.5l31 -5v-9h-361v9l31 4q45 6 45 28q0 12 -7 35l-50 157h-192l-9 -29q-38 -112 -38 -138q0 -13 10 -21t40 -22zM280 527l-89 -268h174z" />
    <glyph glyph-name="A" unicode="&#x102;" horiz-adv-x="689" 
d="M224 6v-6h-261v6l37 17q40 18 60 42.5t45 87.5l165 404q-11 27 -24 48v1q105 34 164 96h2l198 -602q17 -50 31 -65.5t44 -20.5l31 -5v-9h-361v9l31 4q45 6 45 28q0 12 -7 35l-50 157h-192l-9 -29q-38 -112 -38 -138q0 -13 10 -21t40 -22zM280 527l-89 -268h174z" />
    <glyph glyph-name="A" unicode="&#x100;" horiz-adv-x="689" 
d="M224 6v-6h-261v6l37 17q40 18 60 42.5t45 87.5l165 404q-11 27 -24 48v1q105 34 164 96h2l198 -602q17 -50 31 -65.5t44 -20.5l31 -5v-9h-361v9l31 4q45 6 45 28q0 12 -7 35l-50 157h-192l-9 -29q-38 -112 -38 -138q0 -13 10 -21t40 -22zM280 527l-89 -268h174z" />
    <glyph glyph-name="B" unicode="B" horiz-adv-x="680" 
d="M652 192q0 -54 -27.5 -95t-72.5 -64q-66 -33 -189 -33h-349v9l30 5q27 4 35 10t12 21q7 28 7 109v359q0 82 -7 110q-4 15 -12 21t-35 10l-30 5v9h299q166 0 233.5 -41.5t67.5 -115.5q0 -53 -43 -89t-107 -49v-3q81 -15 134.5 -58.5t53.5 -119.5zM462 177
q0 84 -46.5 126.5t-130.5 35.5v-195q0 -81 6 -105q5 -22 45 -22h2q56 0 90 45t34 115zM430 506q0 58 -32.5 102t-101.5 43h-7q-4 -26 -4 -75v-221q72 0 108.5 35.5t36.5 115.5z" />
    <glyph glyph-name="C" unicode="C" horiz-adv-x="692" 
d="M399 684q41 0 110 -12.5t72 -12.5q9 0 18 13l8 12h6q15 -129 19 -256l-8 -1q-79 139 -130 190q-49 49 -102 49q-70 0 -117 -80t-47 -236q0 -150 47 -248t125 -98q48 0 104 56q63 63 142 215l7 -4q-3 -54 -13.5 -135t-15.5 -91q-124 -59 -234 -59q-163 0 -262.5 90
t-99.5 251q0 155 98.5 256t272.5 101z" />
    <glyph glyph-name="C" unicode="&#x10c;" horiz-adv-x="692" 
d="M399 684q41 0 110 -12.5t72 -12.5q9 0 18 13l8 12h6q15 -129 19 -256l-8 -1q-79 139 -130 190q-49 49 -102 49q-70 0 -117 -80t-47 -236q0 -150 47 -248t125 -98q48 0 104 56q63 63 142 215l7 -4q-3 -54 -13.5 -135t-15.5 -91q-124 -59 -234 -59q-163 0 -262.5 90
t-99.5 251q0 155 98.5 256t272.5 101z" />
    <glyph glyph-name="C" unicode="&#x10a;" horiz-adv-x="692" 
d="M399 684q41 0 110 -12.5t72 -12.5q9 0 18 13l8 12h6q15 -129 19 -256l-8 -1q-79 139 -130 190q-49 49 -102 49q-70 0 -117 -80t-47 -236q0 -150 47 -248t125 -98q48 0 104 56q63 63 142 215l7 -4q-3 -54 -13.5 -135t-15.5 -91q-124 -59 -234 -59q-163 0 -262.5 90
t-99.5 251q0 155 98.5 256t272.5 101z" />
    <glyph glyph-name="C" unicode="&#x106;" horiz-adv-x="692" 
d="M399 684q41 0 110 -12.5t72 -12.5q9 0 18 13l8 12h6q15 -129 19 -256l-8 -1q-79 139 -130 190q-49 49 -102 49q-70 0 -117 -80t-47 -236q0 -150 47 -248t125 -98q48 0 104 56q63 63 142 215l7 -4q-3 -54 -13.5 -135t-15.5 -91q-124 -59 -234 -59q-163 0 -262.5 90
t-99.5 251q0 155 98.5 256t272.5 101z" />
    <glyph glyph-name="D" unicode="D" horiz-adv-x="756" 
d="M730 339q0 -60 -23 -118t-70.5 -110.5t-132.5 -84.5t-196 -32q-43 0 -122 3t-172 3v9l30 5q27 4 35 10t12 21q7 28 7 109v360q0 81 -7 109q-4 15 -12 21t-35 10l-30 5v9h308q195 0 301.5 -83.5t106.5 -245.5zM286 651q-2 -13 -2 -81v-432q0 -85 5 -105q3 -10 9.5 -14.5
t24.5 -4.5h2q79 0 129 50q80 80 80 257q0 117 -36 195.5t-100 110.5q-45 22 -112 24z" />
    <glyph glyph-name="D" unicode="&#x110;" horiz-adv-x="756" 
d="M730 339q0 -60 -23 -118t-70.5 -110.5t-132.5 -84.5t-196 -32q-43 0 -122 3t-172 3v9l30 5q27 4 35 10t12 21q7 28 7 109v360q0 81 -7 109q-4 15 -12 21t-35 10l-30 5v9h308q195 0 301.5 -83.5t106.5 -245.5zM286 651q-2 -13 -2 -81v-432q0 -85 5 -105q3 -10 9.5 -14.5
t24.5 -4.5h2q79 0 129 50q80 80 80 257q0 117 -36 195.5t-100 110.5q-45 22 -112 24z" />
    <glyph glyph-name="D" unicode="&#x10e;" horiz-adv-x="756" 
d="M730 339q0 -60 -23 -118t-70.5 -110.5t-132.5 -84.5t-196 -32q-43 0 -122 3t-172 3v9l30 5q27 4 35 10t12 21q7 28 7 109v360q0 81 -7 109q-4 15 -12 21t-35 10l-30 5v9h308q195 0 301.5 -83.5t106.5 -245.5zM286 651q-2 -13 -2 -81v-432q0 -85 5 -105q3 -10 9.5 -14.5
t24.5 -4.5h2q79 0 129 50q80 80 80 257q0 117 -36 195.5t-100 110.5q-45 22 -112 24z" />
    <glyph glyph-name="E" unicode="E" horiz-adv-x="636" 
d="M14 668h567l-4 -216l-7 -2q-60 116 -86 142q-37 37 -137 49l-62 7v-299l41 3q58 5 82 29q25 25 42 60l18 36l7 -2l-8 -271h-7l-17 36q-20 43 -40 63q-21 21 -77 25l-41 3v-187q0 -82 5 -102q4 -14 12.5 -18.5t27.5 -4.5q25 0 67 11t61 21q25 12 47 34q11 11 102 138l7 -4
l-41 -219h-559v9l30 5q27 4 35 10t12 21q7 28 7 109v359q0 82 -7 110q-4 15 -12 21t-35 10l-30 5v9z" />
    <glyph glyph-name="E" unicode="&#x11a;" horiz-adv-x="636" 
d="M14 668h567l-4 -216l-7 -2q-60 116 -86 142q-37 37 -137 49l-62 7v-299l41 3q58 5 82 29q25 25 42 60l18 36l7 -2l-8 -271h-7l-17 36q-20 43 -40 63q-21 21 -77 25l-41 3v-187q0 -82 5 -102q4 -14 12.5 -18.5t27.5 -4.5q25 0 67 11t61 21q25 12 47 34q11 11 102 138l7 -4
l-41 -219h-559v9l30 5q27 4 35 10t12 21q7 28 7 109v359q0 82 -7 110q-4 15 -12 21t-35 10l-30 5v9z" />
    <glyph glyph-name="E" unicode="&#x118;" horiz-adv-x="636" 
d="M14 668h567l-4 -216l-7 -2q-60 116 -86 142q-37 37 -137 49l-62 7v-299l41 3q58 5 82 29q25 25 42 60l18 36l7 -2l-8 -271h-7l-17 36q-20 43 -40 63q-21 21 -77 25l-41 3v-187q0 -82 5 -102q4 -14 12.5 -18.5t27.5 -4.5q25 0 67 11t61 21q25 12 47 34q11 11 102 138l7 -4
l-41 -219h-559v9l30 5q27 4 35 10t12 21q7 28 7 109v359q0 82 -7 110q-4 15 -12 21t-35 10l-30 5v9z" />
    <glyph glyph-name="E" unicode="&#x116;" horiz-adv-x="636" 
d="M14 668h567l-4 -216l-7 -2q-60 116 -86 142q-37 37 -137 49l-62 7v-299l41 3q58 5 82 29q25 25 42 60l18 36l7 -2l-8 -271h-7l-17 36q-20 43 -40 63q-21 21 -77 25l-41 3v-187q0 -82 5 -102q4 -14 12.5 -18.5t27.5 -4.5q25 0 67 11t61 21q25 12 47 34q11 11 102 138l7 -4
l-41 -219h-559v9l30 5q27 4 35 10t12 21q7 28 7 109v359q0 82 -7 110q-4 15 -12 21t-35 10l-30 5v9z" />
    <glyph glyph-name="E" unicode="&#x114;" horiz-adv-x="636" 
d="M14 668h567l-4 -216l-7 -2q-60 116 -86 142q-37 37 -137 49l-62 7v-299l41 3q58 5 82 29q25 25 42 60l18 36l7 -2l-8 -271h-7l-17 36q-20 43 -40 63q-21 21 -77 25l-41 3v-187q0 -82 5 -102q4 -14 12.5 -18.5t27.5 -4.5q25 0 67 11t61 21q25 12 47 34q11 11 102 138l7 -4
l-41 -219h-559v9l30 5q27 4 35 10t12 21q7 28 7 109v359q0 82 -7 110q-4 15 -12 21t-35 10l-30 5v9z" />
    <glyph glyph-name="E" unicode="&#x112;" horiz-adv-x="636" 
d="M14 668h567l-4 -216l-7 -2q-60 116 -86 142q-37 37 -137 49l-62 7v-299l41 3q58 5 82 29q25 25 42 60l18 36l7 -2l-8 -271h-7l-17 36q-20 43 -40 63q-21 21 -77 25l-41 3v-187q0 -82 5 -102q4 -14 12.5 -18.5t27.5 -4.5q25 0 67 11t61 21q25 12 47 34q11 11 102 138l7 -4
l-41 -219h-559v9l30 5q27 4 35 10t12 21q7 28 7 109v359q0 82 -7 110q-4 15 -12 21t-35 10l-30 5v9z" />
    <glyph glyph-name="F" unicode="F" horiz-adv-x="620" 
d="M403 295q-21 21 -77 25l-41 3v-169q0 -81 7 -109q4 -16 12.5 -22t34.5 -9l44 -5v-9h-369v9l30 5q27 4 35 10t12 21q7 28 7 109v359q0 82 -7 110q-4 15 -12 21t-35 10l-30 5v9h567l-4 -216l-7 -2q-60 116 -86 142q-37 37 -137 49l-62 7v-307l41 3q58 5 82 29q25 25 42 60
l18 36l7 -2l-8 -271h-7l-17 36q-20 43 -40 63z" />
    <glyph glyph-name="G" unicode="G" horiz-adv-x="732" 
d="M402 684q47 0 118 -12.5t73 -12.5q9 0 18 13l8 12h6q15 -129 19 -256l-8 -1q-79 139 -130 190q-49 49 -106 49q-78 0 -125 -79.5t-47 -236.5q0 -150 55 -246t154 -96q24 0 40 4q3 18 3 49v94q0 84 -6 108q-4 15 -13.5 21t-41.5 11l-30 5v9h340v-9l-30 -5
q-21 -4 -29 -10.5t-12 -21.5q-5 -20 -5 -108v-79q0 -16 4.5 -21.5t15.5 -5.5q12 0 30 3l2 -8q-149 -58 -297 -58q-176 0 -278 89.5t-102 251.5q0 155 99.5 256t274.5 101z" />
    <glyph glyph-name="G" unicode="&#x122;" horiz-adv-x="732" 
d="M402 684q47 0 118 -12.5t73 -12.5q9 0 18 13l8 12h6q15 -129 19 -256l-8 -1q-79 139 -130 190q-49 49 -106 49q-78 0 -125 -79.5t-47 -236.5q0 -150 55 -246t154 -96q24 0 40 4q3 18 3 49v94q0 84 -6 108q-4 15 -13.5 21t-41.5 11l-30 5v9h340v-9l-30 -5
q-21 -4 -29 -10.5t-12 -21.5q-5 -20 -5 -108v-79q0 -16 4.5 -21.5t15.5 -5.5q12 0 30 3l2 -8q-149 -58 -297 -58q-176 0 -278 89.5t-102 251.5q0 155 99.5 256t274.5 101z" />
    <glyph glyph-name="G" unicode="&#x120;" horiz-adv-x="732" 
d="M402 684q47 0 118 -12.5t73 -12.5q9 0 18 13l8 12h6q15 -129 19 -256l-8 -1q-79 139 -130 190q-49 49 -106 49q-78 0 -125 -79.5t-47 -236.5q0 -150 55 -246t154 -96q24 0 40 4q3 18 3 49v94q0 84 -6 108q-4 15 -13.5 21t-41.5 11l-30 5v9h340v-9l-30 -5
q-21 -4 -29 -10.5t-12 -21.5q-5 -20 -5 -108v-79q0 -16 4.5 -21.5t15.5 -5.5q12 0 30 3l2 -8q-149 -58 -297 -58q-176 0 -278 89.5t-102 251.5q0 155 99.5 256t274.5 101z" />
    <glyph glyph-name="G" unicode="&#x11e;" horiz-adv-x="732" 
d="M402 684q47 0 118 -12.5t73 -12.5q9 0 18 13l8 12h6q15 -129 19 -256l-8 -1q-79 139 -130 190q-49 49 -106 49q-78 0 -125 -79.5t-47 -236.5q0 -150 55 -246t154 -96q24 0 40 4q3 18 3 49v94q0 84 -6 108q-4 15 -13.5 21t-41.5 11l-30 5v9h340v-9l-30 -5
q-21 -4 -29 -10.5t-12 -21.5q-5 -20 -5 -108v-79q0 -16 4.5 -21.5t15.5 -5.5q12 0 30 3l2 -8q-149 -58 -297 -58q-176 0 -278 89.5t-102 251.5q0 155 99.5 256t274.5 101z" />
    <glyph glyph-name="H" unicode="H" horiz-adv-x="796" 
d="M511 155v178h-226v-178q0 -82 7 -110q4 -16 11.5 -21.5t30.5 -9.5l30 -5v-9h-350v9l30 5q27 4 35 10t12 21q7 28 7 110v358q0 82 -7 110q-4 15 -12 21t-35 10l-30 5v9h350v-9l-30 -5q-23 -4 -30.5 -9.5t-11.5 -21.5q-7 -28 -7 -110v-154h226v154q0 82 -7 110
q-4 16 -11.5 21.5t-30.5 9.5l-30 5v9h350v-9l-30 -5q-27 -4 -35 -10t-12 -21q-7 -28 -7 -110v-358q0 -82 7 -110q4 -15 12 -21t35 -10l30 -5v-9h-350v9l30 5q23 4 30.5 9.5t11.5 21.5q7 28 7 110z" />
    <glyph glyph-name="H" unicode="&#x126;" horiz-adv-x="796" 
d="M511 155v178h-226v-178q0 -82 7 -110q4 -16 11.5 -21.5t30.5 -9.5l30 -5v-9h-350v9l30 5q27 4 35 10t12 21q7 28 7 110v358q0 82 -7 110q-4 15 -12 21t-35 10l-30 5v9h350v-9l-30 -5q-23 -4 -30.5 -9.5t-11.5 -21.5q-7 -28 -7 -110v-154h226v154q0 82 -7 110
q-4 16 -11.5 21.5t-30.5 9.5l-30 5v9h350v-9l-30 -5q-27 -4 -35 -10t-12 -21q-7 -28 -7 -110v-358q0 -82 7 -110q4 -15 12 -21t35 -10l30 -5v-9h-350v9l30 5q23 4 30.5 9.5t11.5 21.5q7 28 7 110z" />
    <glyph glyph-name="I" unicode="I" horiz-adv-x="393" 
d="M19 668h355v-9l-30 -5q-27 -4 -35 -10t-12 -21q-7 -28 -7 -109v-360q0 -81 7 -109q4 -15 12 -21t35 -10l30 -5v-9h-355v9l30 5q27 4 35 10t12 21q7 28 7 109v360q0 81 -7 109q-4 15 -12 21t-35 10l-30 5v9z" />
    <glyph glyph-name="I" unicode="&#x130;" horiz-adv-x="393" 
d="M19 668h355v-9l-30 -5q-27 -4 -35 -10t-12 -21q-7 -28 -7 -109v-360q0 -81 7 -109q4 -15 12 -21t35 -10l30 -5v-9h-355v9l30 5q27 4 35 10t12 21q7 28 7 109v360q0 81 -7 109q-4 15 -12 21t-35 10l-30 5v9z" />
    <glyph glyph-name="I" unicode="&#x12e;" horiz-adv-x="393" 
d="M19 668h355v-9l-30 -5q-27 -4 -35 -10t-12 -21q-7 -28 -7 -109v-360q0 -81 7 -109q4 -15 12 -21t35 -10l30 -5v-9h-355v9l30 5q27 4 35 10t12 21q7 28 7 109v360q0 81 -7 109q-4 15 -12 21t-35 10l-30 5v9z" />
    <glyph glyph-name="I" unicode="&#x12c;" horiz-adv-x="393" 
d="M19 668h355v-9l-30 -5q-27 -4 -35 -10t-12 -21q-7 -28 -7 -109v-360q0 -81 7 -109q4 -15 12 -21t35 -10l30 -5v-9h-355v9l30 5q27 4 35 10t12 21q7 28 7 109v360q0 81 -7 109q-4 15 -12 21t-35 10l-30 5v9z" />
    <glyph glyph-name="I" unicode="&#x12a;" horiz-adv-x="393" 
d="M19 668h355v-9l-30 -5q-27 -4 -35 -10t-12 -21q-7 -28 -7 -109v-360q0 -81 7 -109q4 -15 12 -21t35 -10l30 -5v-9h-355v9l30 5q27 4 35 10t12 21q7 28 7 109v360q0 81 -7 109q-4 15 -12 21t-35 10l-30 5v9z" />
    <glyph glyph-name="J" unicode="J" horiz-adv-x="418" 
d="M323 514v-371q0 -125 -33 -191q-30 -61 -92 -106t-143 -45q-59 0 -92 23t-33 62q0 35 29 61.5t72 26.5q18 0 24 -16l43 -119q6 -19 13 -19q13 0 19 26q6 24 6 67l2 601q0 81 -7 109q-4 15 -13 20.5t-40 10.5l-29 5v9h358v-9l-30 -5q-27 -4 -35 -10t-12 -21
q-7 -28 -7 -109z" />
    <glyph glyph-name="K" unicode="K" horiz-adv-x="743" 
d="M448 668h271v-6l-35 -14q-48 -19 -77 -37.5t-77 -63.5l-103 -98l222 -356q20 -33 30.5 -46t23.5 -19q20 -10 59 -19v-9h-29q-49 0 -110 -1.5t-77 -1.5q-41 0 -54.5 8.5t-34.5 45.5l-138 238q-14 23 -29 23h-5v-158q0 -81 7 -109q4 -15 12 -21t35 -10l30 -5v-9h-355v9
l30 5q27 4 35 10t12 21q7 28 7 109v360q0 81 -7 109q-4 15 -12 21t-35 10l-30 5v9h355v-9l-30 -5q-27 -4 -35 -10t-12 -21q-7 -28 -7 -109v-192l194 221q44 50 44 70q0 8 -8 14.5t-31 17.5l-36 17v6z" />
    <glyph glyph-name="K" unicode="&#x136;" horiz-adv-x="743" 
d="M448 668h271v-6l-35 -14q-48 -19 -77 -37.5t-77 -63.5l-103 -98l222 -356q20 -33 30.5 -46t23.5 -19q20 -10 59 -19v-9h-29q-49 0 -110 -1.5t-77 -1.5q-41 0 -54.5 8.5t-34.5 45.5l-138 238q-14 23 -29 23h-5v-158q0 -81 7 -109q4 -15 12 -21t35 -10l30 -5v-9h-355v9
l30 5q27 4 35 10t12 21q7 28 7 109v360q0 81 -7 109q-4 15 -12 21t-35 10l-30 5v9h355v-9l-30 -5q-27 -4 -35 -10t-12 -21q-7 -28 -7 -109v-192l194 221q44 50 44 70q0 8 -8 14.5t-31 17.5l-36 17v6z" />
    <glyph glyph-name="L" unicode="L" horiz-adv-x="633" 
d="M14 0v9l30 5q27 4 35 10t12 21q7 28 7 109v360q0 81 -7 109q-4 15 -12 21t-35 10l-30 5v9h355v-9l-30 -5q-27 -4 -35 -10t-12 -21q-7 -28 -7 -109v-359q0 -94 5 -114q6 -23 33 -23q47 0 129 42q22 10 42 30q59 59 115 156l7 -4l-41 -242h-561z" />
    <glyph glyph-name="L" unicode="&#x13f;" horiz-adv-x="633" 
d="M14 0v9l30 5q27 4 35 10t12 21q7 28 7 109v360q0 81 -7 109q-4 15 -12 21t-35 10l-30 5v9h355v-9l-30 -5q-27 -4 -35 -10t-12 -21q-7 -28 -7 -109v-359q0 -94 5 -114q6 -23 33 -23q47 0 129 42q22 10 42 30q59 59 115 156l7 -4l-41 -242h-561z" />
    <glyph glyph-name="L" unicode="&#x13d;" horiz-adv-x="633" 
d="M14 0v9l30 5q27 4 35 10t12 21q7 28 7 109v360q0 81 -7 109q-4 15 -12 21t-35 10l-30 5v9h355v-9l-30 -5q-27 -4 -35 -10t-12 -21q-7 -28 -7 -109v-359q0 -94 5 -114q6 -23 33 -23q47 0 129 42q22 10 42 30q59 59 115 156l7 -4l-41 -242h-561z" />
    <glyph glyph-name="L" unicode="&#x13b;" horiz-adv-x="633" 
d="M14 0v9l30 5q27 4 35 10t12 21q7 28 7 109v360q0 81 -7 109q-4 15 -12 21t-35 10l-30 5v9h355v-9l-30 -5q-27 -4 -35 -10t-12 -21q-7 -28 -7 -109v-359q0 -94 5 -114q6 -23 33 -23q47 0 129 42q22 10 42 30q59 59 115 156l7 -4l-41 -242h-561z" />
    <glyph glyph-name="L" unicode="&#x139;" horiz-adv-x="633" 
d="M14 0v9l30 5q27 4 35 10t12 21q7 28 7 109v360q0 81 -7 109q-4 15 -12 21t-35 10l-30 5v9h355v-9l-30 -5q-27 -4 -35 -10t-12 -21q-7 -28 -7 -109v-359q0 -94 5 -114q6 -23 33 -23q47 0 129 42q22 10 42 30q59 59 115 156l7 -4l-41 -242h-561z" />
    <glyph glyph-name="M" unicode="M" horiz-adv-x="914" 
d="M468 242l101 272q29 80 39 154h276v-9l-18 -6q-55 -18 -67 -40.5t-8 -89.5l21 -379q4 -68 11 -94q4 -16 15.5 -24t40.5 -13l24 -4v-9h-350v9l30 5q31 5 37.5 19.5t4.5 73.5l-19 431l-205 -547h-13l-237 552v-412q0 -48 12.5 -69t51.5 -38l42 -18v-6h-264v6l42 18
q39 17 50.5 37t15.5 70l35 446q-15 31 -34 47t-52 27l-29 9v8h299q2 -46 43 -153z" />
    <glyph glyph-name="N" unicode="N" horiz-adv-x="755" 
d="M251 668l372 -415h1l-12 274q-2 52 -15.5 76.5t-51.5 40.5l-42 18v6h264v-6l-42 -18q-38 -16 -51.5 -40.5t-15.5 -76.5l-25 -543h-23l-461 527l14 -380q2 -49 14.5 -70t50.5 -37l42 -18v-6h-264v6l42 18q38 16 50.5 37t14.5 70l15 404l-49 56q-31 35 -45.5 46t-38.5 21
l-5 2v8h261z" />
    <glyph glyph-name="N" unicode="&#x147;" horiz-adv-x="755" 
d="M251 668l372 -415h1l-12 274q-2 52 -15.5 76.5t-51.5 40.5l-42 18v6h264v-6l-42 -18q-38 -16 -51.5 -40.5t-15.5 -76.5l-25 -543h-23l-461 527l14 -380q2 -49 14.5 -70t50.5 -37l42 -18v-6h-264v6l42 18q38 16 50.5 37t14.5 70l15 404l-49 56q-31 35 -45.5 46t-38.5 21
l-5 2v8h261z" />
    <glyph glyph-name="N" unicode="&#x145;" horiz-adv-x="755" 
d="M251 668l372 -415h1l-12 274q-2 52 -15.5 76.5t-51.5 40.5l-42 18v6h264v-6l-42 -18q-38 -16 -51.5 -40.5t-15.5 -76.5l-25 -543h-23l-461 527l14 -380q2 -49 14.5 -70t50.5 -37l42 -18v-6h-264v6l42 18q38 16 50.5 37t14.5 70l15 404l-49 56q-31 35 -45.5 46t-38.5 21
l-5 2v8h261z" />
    <glyph glyph-name="N" unicode="&#x143;" horiz-adv-x="755" 
d="M251 668l372 -415h1l-12 274q-2 52 -15.5 76.5t-51.5 40.5l-42 18v6h264v-6l-42 -18q-38 -16 -51.5 -40.5t-15.5 -76.5l-25 -543h-23l-461 527l14 -380q2 -49 14.5 -70t50.5 -37l42 -18v-6h-264v6l42 18q38 16 50.5 37t14.5 70l15 404l-49 56q-31 35 -45.5 46t-38.5 21
l-5 2v8h261z" />
    <glyph glyph-name="O" unicode="O" horiz-adv-x="753" 
d="M377 684q151 0 249.5 -93.5t98.5 -249.5q0 -147 -95.5 -252t-253.5 -105q-151 0 -249.5 93.5t-98.5 249.5q0 147 95.5 252t253.5 105zM361 666q-65 0 -99 -85t-34 -221q0 -156 44.5 -257t119.5 -101q65 0 99 85t34 221q0 156 -44.5 257t-119.5 101z" />
    <glyph glyph-name="O" unicode="&#x1fe;" horiz-adv-x="753" 
d="M377 684q151 0 249.5 -93.5t98.5 -249.5q0 -147 -95.5 -252t-253.5 -105q-151 0 -249.5 93.5t-98.5 249.5q0 147 95.5 252t253.5 105zM361 666q-65 0 -99 -85t-34 -221q0 -156 44.5 -257t119.5 -101q65 0 99 85t34 221q0 156 -44.5 257t-119.5 101z" />
    <glyph glyph-name="O" unicode="&#x150;" horiz-adv-x="753" 
d="M377 684q151 0 249.5 -93.5t98.5 -249.5q0 -147 -95.5 -252t-253.5 -105q-151 0 -249.5 93.5t-98.5 249.5q0 147 95.5 252t253.5 105zM361 666q-65 0 -99 -85t-34 -221q0 -156 44.5 -257t119.5 -101q65 0 99 85t34 221q0 156 -44.5 257t-119.5 101z" />
    <glyph glyph-name="O" unicode="&#x14e;" horiz-adv-x="753" 
d="M377 684q151 0 249.5 -93.5t98.5 -249.5q0 -147 -95.5 -252t-253.5 -105q-151 0 -249.5 93.5t-98.5 249.5q0 147 95.5 252t253.5 105zM361 666q-65 0 -99 -85t-34 -221q0 -156 44.5 -257t119.5 -101q65 0 99 85t34 221q0 156 -44.5 257t-119.5 101z" />
    <glyph glyph-name="O" unicode="&#x14c;" horiz-adv-x="753" 
d="M377 684q151 0 249.5 -93.5t98.5 -249.5q0 -147 -95.5 -252t-253.5 -105q-151 0 -249.5 93.5t-98.5 249.5q0 147 95.5 252t253.5 105zM361 666q-65 0 -99 -85t-34 -221q0 -156 44.5 -257t119.5 -101q65 0 99 85t34 221q0 156 -44.5 257t-119.5 101z" />
    <glyph glyph-name="P" unicode="P" horiz-adv-x="650" 
d="M14 652v10q126 10 275 10q349 0 349 -197q0 -92 -88.5 -147t-227.5 -54v8q126 29 126 197q0 79 -41.5 127t-118.5 49q-3 -37 -3 -112v-389q0 -87 6 -111q4 -15 13.5 -21t35.5 -9l34 -4v-9h-360v9l30 5q27 4 35 10t12 21q7 28 7 109v356q0 85 -6 109q-4 15 -15.5 21.5
t-41.5 9.5z" />
    <glyph glyph-name="Q" unicode="Q" horiz-adv-x="753" 
d="M228 360q0 -156 44.5 -257t119.5 -101q65 0 99 85t34 221q0 156 -44.5 257t-119.5 101q-65 0 -99 -85t-34 -221zM692 -181q-54 0 -122 34t-130.5 78.5t-69.5 47.5q-9 5 -34 7q-137 13 -222.5 105t-85.5 236q0 147 95.5 252t253.5 105q151 0 249.5 -93.5t98.5 -249.5
q0 -95 -42 -176t-118 -129q73 -59 145.5 -93t111.5 -34q35 0 72 14l19 7l4 -6l-52 -34q-107 -71 -173 -71z" />
    <glyph glyph-name="R" unicode="R" horiz-adv-x="712" 
d="M628 497q0 -109 -127 -164q31 -65 89 -159.5t95 -131.5q14 -14 30.5 -20.5t53.5 -13.5v-8l-77 -3q-76 -4 -124 -4q-49 0 -72.5 18t-53.5 73l-109 201q-7 12 -13 15t-21 3h-14v-149q0 -87 6 -111q4 -15 13.5 -21t35.5 -9l34 -4v-9h-360v9l30 5q27 4 35 10t12 21
q7 28 7 109v361q0 79 -8 111q-5 21 -45 30l-31 7v10q100 -4 277 -4q103 0 172.5 -14t104 -40t47.5 -54t13 -64zM440 486q0 78 -37 121.5t-115 44.5q-3 -38 -3 -113v-220q62 -1 108.5 38.5t46.5 128.5z" />
    <glyph glyph-name="R" unicode="&#x158;" horiz-adv-x="712" 
d="M628 497q0 -109 -127 -164q31 -65 89 -159.5t95 -131.5q14 -14 30.5 -20.5t53.5 -13.5v-8l-77 -3q-76 -4 -124 -4q-49 0 -72.5 18t-53.5 73l-109 201q-7 12 -13 15t-21 3h-14v-149q0 -87 6 -111q4 -15 13.5 -21t35.5 -9l34 -4v-9h-360v9l30 5q27 4 35 10t12 21
q7 28 7 109v361q0 79 -8 111q-5 21 -45 30l-31 7v10q100 -4 277 -4q103 0 172.5 -14t104 -40t47.5 -54t13 -64zM440 486q0 78 -37 121.5t-115 44.5q-3 -38 -3 -113v-220q62 -1 108.5 38.5t46.5 128.5z" />
    <glyph glyph-name="R" unicode="&#x156;" horiz-adv-x="712" 
d="M628 497q0 -109 -127 -164q31 -65 89 -159.5t95 -131.5q14 -14 30.5 -20.5t53.5 -13.5v-8l-77 -3q-76 -4 -124 -4q-49 0 -72.5 18t-53.5 73l-109 201q-7 12 -13 15t-21 3h-14v-149q0 -87 6 -111q4 -15 13.5 -21t35.5 -9l34 -4v-9h-360v9l30 5q27 4 35 10t12 21
q7 28 7 109v361q0 79 -8 111q-5 21 -45 30l-31 7v10q100 -4 277 -4q103 0 172.5 -14t104 -40t47.5 -54t13 -64zM440 486q0 78 -37 121.5t-115 44.5q-3 -38 -3 -113v-220q62 -1 108.5 38.5t46.5 128.5z" />
    <glyph glyph-name="R" unicode="&#x154;" horiz-adv-x="712" 
d="M628 497q0 -109 -127 -164q31 -65 89 -159.5t95 -131.5q14 -14 30.5 -20.5t53.5 -13.5v-8l-77 -3q-76 -4 -124 -4q-49 0 -72.5 18t-53.5 73l-109 201q-7 12 -13 15t-21 3h-14v-149q0 -87 6 -111q4 -15 13.5 -21t35.5 -9l34 -4v-9h-360v9l30 5q27 4 35 10t12 21
q7 28 7 109v361q0 79 -8 111q-5 21 -45 30l-31 7v10q100 -4 277 -4q103 0 172.5 -14t104 -40t47.5 -54t13 -64zM440 486q0 78 -37 121.5t-115 44.5q-3 -38 -3 -113v-220q62 -1 108.5 38.5t46.5 128.5z" />
    <glyph glyph-name="S" unicode="S" horiz-adv-x="552" 
d="M481 649q13 -67 13 -189l-9 -2q-62 123 -94 163t-76 40q-37 0 -60 -27t-23 -65q0 -29 18.5 -58.5t39.5 -48.5t71 -60q81 -66 114 -115t33 -115q0 -81 -66.5 -132.5t-180.5 -51.5q-101 0 -209 43q-16 91 -16 211l9 3q74 -146 110.5 -192t88.5 -46q43 0 70.5 31.5
t27.5 80.5q0 42 -29.5 77.5t-113.5 105.5q-68 56 -100 100.5t-32 105.5q0 72 64 122t177 50q104 0 173 -31z" />
    <glyph glyph-name="S" unicode="&#x218;" horiz-adv-x="552" 
d="M481 649q13 -67 13 -189l-9 -2q-62 123 -94 163t-76 40q-37 0 -60 -27t-23 -65q0 -29 18.5 -58.5t39.5 -48.5t71 -60q81 -66 114 -115t33 -115q0 -81 -66.5 -132.5t-180.5 -51.5q-101 0 -209 43q-16 91 -16 211l9 3q74 -146 110.5 -192t88.5 -46q43 0 70.5 31.5
t27.5 80.5q0 42 -29.5 77.5t-113.5 105.5q-68 56 -100 100.5t-32 105.5q0 72 64 122t177 50q104 0 173 -31z" />
    <glyph glyph-name="S" unicode="&#x15e;" horiz-adv-x="552" 
d="M481 649q13 -67 13 -189l-9 -2q-62 123 -94 163t-76 40q-37 0 -60 -27t-23 -65q0 -29 18.5 -58.5t39.5 -48.5t71 -60q81 -66 114 -115t33 -115q0 -81 -66.5 -132.5t-180.5 -51.5q-101 0 -209 43q-16 91 -16 211l9 3q74 -146 110.5 -192t88.5 -46q43 0 70.5 31.5
t27.5 80.5q0 42 -29.5 77.5t-113.5 105.5q-68 56 -100 100.5t-32 105.5q0 72 64 122t177 50q104 0 173 -31z" />
    <glyph glyph-name="S" unicode="&#x15a;" horiz-adv-x="552" 
d="M481 649q13 -67 13 -189l-9 -2q-62 123 -94 163t-76 40q-37 0 -60 -27t-23 -65q0 -29 18.5 -58.5t39.5 -48.5t71 -60q81 -66 114 -115t33 -115q0 -81 -66.5 -132.5t-180.5 -51.5q-101 0 -209 43q-16 91 -16 211l9 3q74 -146 110.5 -192t88.5 -46q43 0 70.5 31.5
t27.5 80.5q0 42 -29.5 77.5t-113.5 105.5q-68 56 -100 100.5t-32 105.5q0 72 64 122t177 50q104 0 173 -31z" />
    <glyph glyph-name="T" unicode="T" horiz-adv-x="737" 
d="M277 646l-27 -2q-34 -3 -56 -14q-49 -25 -158 -185q-12 -17 -18 -26l-7 2l50 275l6 -1l4 -13q4 -12 9.5 -15t22.5 -3h537q27 0 37 4.5t18 16.5l7 11h6l5 -276l-7 -2q-58 119 -85.5 157.5t-54.5 52.5q-26 12 -75 16l-27 2v-492q0 -81 7 -109q4 -15 13.5 -21t42.5 -10
l39 -5v-9h-391v9l39 5q33 4 42.5 10t13.5 21q7 28 7 109v492z" />
    <glyph glyph-name="T" unicode="&#x21a;" horiz-adv-x="737" 
d="M277 646l-27 -2q-34 -3 -56 -14q-49 -25 -158 -185q-12 -17 -18 -26l-7 2l50 275l6 -1l4 -13q4 -12 9.5 -15t22.5 -3h537q27 0 37 4.5t18 16.5l7 11h6l5 -276l-7 -2q-58 119 -85.5 157.5t-54.5 52.5q-26 12 -75 16l-27 2v-492q0 -81 7 -109q4 -15 13.5 -21t42.5 -10
l39 -5v-9h-391v9l39 5q33 4 42.5 10t13.5 21q7 28 7 109v492z" />
    <glyph glyph-name="T" unicode="&#x164;" horiz-adv-x="737" 
d="M277 646l-27 -2q-34 -3 -56 -14q-49 -25 -158 -185q-12 -17 -18 -26l-7 2l50 275l6 -1l4 -13q4 -12 9.5 -15t22.5 -3h537q27 0 37 4.5t18 16.5l7 11h6l5 -276l-7 -2q-58 119 -85.5 157.5t-54.5 52.5q-26 12 -75 16l-27 2v-492q0 -81 7 -109q4 -15 13.5 -21t42.5 -10
l39 -5v-9h-391v9l39 5q33 4 42.5 10t13.5 21q7 28 7 109v492z" />
    <glyph glyph-name="T" unicode="&#x162;" horiz-adv-x="737" 
d="M277 646l-27 -2q-34 -3 -56 -14q-49 -25 -158 -185q-12 -17 -18 -26l-7 2l50 275l6 -1l4 -13q4 -12 9.5 -15t22.5 -3h537q27 0 37 4.5t18 16.5l7 11h6l5 -276l-7 -2q-58 119 -85.5 157.5t-54.5 52.5q-26 12 -75 16l-27 2v-492q0 -81 7 -109q4 -15 13.5 -21t42.5 -10
l39 -5v-9h-391v9l39 5q33 4 42.5 10t13.5 21q7 28 7 109v492z" />
    <glyph glyph-name="U" unicode="U" horiz-adv-x="719" 
d="M372 -16q-127 0 -203.5 58t-76.5 183v289q0 81 -7 109q-4 15 -12 21t-35 10l-30 5v9h369v-9l-37 -5q-29 -4 -39.5 -10t-14.5 -21q-7 -28 -7 -109v-300q0 -168 151 -168q74 0 118 41.5t44 127.5q0 78 -2 150l-4 177q-1 48 -17 67.5t-52 34.5l-42 18v6h264v-6l-34 -18
q-26 -14 -36 -21t-21 -27.5t-12 -53.5l-16 -336q-5 -111 -70.5 -166.5t-177.5 -55.5z" />
    <glyph glyph-name="U" unicode="&#x172;" horiz-adv-x="719" 
d="M372 -16q-127 0 -203.5 58t-76.5 183v289q0 81 -7 109q-4 15 -12 21t-35 10l-30 5v9h369v-9l-37 -5q-29 -4 -39.5 -10t-14.5 -21q-7 -28 -7 -109v-300q0 -168 151 -168q74 0 118 41.5t44 127.5q0 78 -2 150l-4 177q-1 48 -17 67.5t-52 34.5l-42 18v6h264v-6l-34 -18
q-26 -14 -36 -21t-21 -27.5t-12 -53.5l-16 -336q-5 -111 -70.5 -166.5t-177.5 -55.5z" />
    <glyph glyph-name="U" unicode="&#x170;" horiz-adv-x="719" 
d="M372 -16q-127 0 -203.5 58t-76.5 183v289q0 81 -7 109q-4 15 -12 21t-35 10l-30 5v9h369v-9l-37 -5q-29 -4 -39.5 -10t-14.5 -21q-7 -28 -7 -109v-300q0 -168 151 -168q74 0 118 41.5t44 127.5q0 78 -2 150l-4 177q-1 48 -17 67.5t-52 34.5l-42 18v6h264v-6l-34 -18
q-26 -14 -36 -21t-21 -27.5t-12 -53.5l-16 -336q-5 -111 -70.5 -166.5t-177.5 -55.5z" />
    <glyph glyph-name="U" unicode="&#x16e;" horiz-adv-x="719" 
d="M372 -16q-127 0 -203.5 58t-76.5 183v289q0 81 -7 109q-4 15 -12 21t-35 10l-30 5v9h369v-9l-37 -5q-29 -4 -39.5 -10t-14.5 -21q-7 -28 -7 -109v-300q0 -168 151 -168q74 0 118 41.5t44 127.5q0 78 -2 150l-4 177q-1 48 -17 67.5t-52 34.5l-42 18v6h264v-6l-34 -18
q-26 -14 -36 -21t-21 -27.5t-12 -53.5l-16 -336q-5 -111 -70.5 -166.5t-177.5 -55.5z" />
    <glyph glyph-name="U" unicode="&#x16c;" horiz-adv-x="719" 
d="M372 -16q-127 0 -203.5 58t-76.5 183v289q0 81 -7 109q-4 15 -12 21t-35 10l-30 5v9h369v-9l-37 -5q-29 -4 -39.5 -10t-14.5 -21q-7 -28 -7 -109v-300q0 -168 151 -168q74 0 118 41.5t44 127.5q0 78 -2 150l-4 177q-1 48 -17 67.5t-52 34.5l-42 18v6h264v-6l-34 -18
q-26 -14 -36 -21t-21 -27.5t-12 -53.5l-16 -336q-5 -111 -70.5 -166.5t-177.5 -55.5z" />
    <glyph glyph-name="U" unicode="&#x16a;" horiz-adv-x="719" 
d="M372 -16q-127 0 -203.5 58t-76.5 183v289q0 81 -7 109q-4 15 -12 21t-35 10l-30 5v9h369v-9l-37 -5q-29 -4 -39.5 -10t-14.5 -21q-7 -28 -7 -109v-300q0 -168 151 -168q74 0 118 41.5t44 127.5q0 78 -2 150l-4 177q-1 48 -17 67.5t-52 34.5l-42 18v6h264v-6l-34 -18
q-26 -14 -36 -21t-21 -27.5t-12 -53.5l-16 -336q-5 -111 -70.5 -166.5t-177.5 -55.5z" />
    <glyph glyph-name="V" unicode="V" horiz-adv-x="681" 
d="M548 604q0 13 -10 20.5t-41 20.5l-40 17v6h263v-6l-34 -16q-39 -19 -58 -46.5t-57 -119.5l-201 -496h-54l-202 496q-47 114 -66 140t-63 36l-13 3v9h373v-9l-34 -6q-40 -7 -40 -30q0 -18 13 -54l141 -382h1l88 272q34 108 34 145z" />
    <glyph glyph-name="W" unicode="W" horiz-adv-x="1016" 
d="M665 625q0 -29 16 -83l101 -328h1l92 310q17 61 17 79q0 12 -9.5 19.5t-40.5 21.5l-40 18v6h263v-6l-35 -17q-41 -20 -60 -47.5t-55 -117.5l-196 -496h-54l-140 438l-171 -438h-54l-183 495q-30 82 -46.5 114t-31.5 44t-46 19l-13 3v9h366v-9l-31 -6q-43 -8 -43 -31
q0 -18 13 -54l126 -353h1l97 256l-14 46q-30 91 -41.5 110t-48.5 28l-16 4v9h360v-9l-36 -6q-48 -8 -48 -28z" />
    <glyph glyph-name="W" unicode="&#x1e84;" horiz-adv-x="1016" 
d="M665 625q0 -29 16 -83l101 -328h1l92 310q17 61 17 79q0 12 -9.5 19.5t-40.5 21.5l-40 18v6h263v-6l-35 -17q-41 -20 -60 -47.5t-55 -117.5l-196 -496h-54l-140 438l-171 -438h-54l-183 495q-30 82 -46.5 114t-31.5 44t-46 19l-13 3v9h366v-9l-31 -6q-43 -8 -43 -31
q0 -18 13 -54l126 -353h1l97 256l-14 46q-30 91 -41.5 110t-48.5 28l-16 4v9h360v-9l-36 -6q-48 -8 -48 -28z" />
    <glyph glyph-name="W" unicode="&#x1e82;" horiz-adv-x="1016" 
d="M665 625q0 -29 16 -83l101 -328h1l92 310q17 61 17 79q0 12 -9.5 19.5t-40.5 21.5l-40 18v6h263v-6l-35 -17q-41 -20 -60 -47.5t-55 -117.5l-196 -496h-54l-140 438l-171 -438h-54l-183 495q-30 82 -46.5 114t-31.5 44t-46 19l-13 3v9h366v-9l-31 -6q-43 -8 -43 -31
q0 -18 13 -54l126 -353h1l97 256l-14 46q-30 91 -41.5 110t-48.5 28l-16 4v9h360v-9l-36 -6q-48 -8 -48 -28z" />
    <glyph glyph-name="W" unicode="&#x1e80;" horiz-adv-x="1016" 
d="M665 625q0 -29 16 -83l101 -328h1l92 310q17 61 17 79q0 12 -9.5 19.5t-40.5 21.5l-40 18v6h263v-6l-35 -17q-41 -20 -60 -47.5t-55 -117.5l-196 -496h-54l-140 438l-171 -438h-54l-183 495q-30 82 -46.5 114t-31.5 44t-46 19l-13 3v9h366v-9l-31 -6q-43 -8 -43 -31
q0 -18 13 -54l126 -353h1l97 256l-14 46q-30 91 -41.5 110t-48.5 28l-16 4v9h360v-9l-36 -6q-48 -8 -48 -28z" />
    <glyph glyph-name="W" unicode="&#x174;" horiz-adv-x="1016" 
d="M665 625q0 -29 16 -83l101 -328h1l92 310q17 61 17 79q0 12 -9.5 19.5t-40.5 21.5l-40 18v6h263v-6l-35 -17q-41 -20 -60 -47.5t-55 -117.5l-196 -496h-54l-140 438l-171 -438h-54l-183 495q-30 82 -46.5 114t-31.5 44t-46 19l-13 3v9h366v-9l-31 -6q-43 -8 -43 -31
q0 -18 13 -54l126 -353h1l97 256l-14 46q-30 91 -41.5 110t-48.5 28l-16 4v9h360v-9l-36 -6q-48 -8 -48 -28z" />
    <glyph glyph-name="X" unicode="X" horiz-adv-x="745" 
d="M538 608q0 3 -0.5 5l-1 4t-2 4t-2.5 3t-4 3l-4.5 3t-5.5 3.5t-6 3.5t-7 4t-8 4l-31 17v6h261v-6l-22 -10q-40 -18 -54 -25.5t-40.5 -28t-50.5 -51.5l-117 -149l186 -285q34 -53 52.5 -71.5t50.5 -26.5l25 -6v-9h-384v9l27 6q20 4 29 7t14 7.5t5 10.5q0 10 -29 61l-95 165
l-4 5l-31 -46q-95 -140 -95 -165q0 -3 0.5 -5l1 -4t2 -4t2.5 -3t4 -3l4.5 -3t5.5 -3.5t6 -3.5t7 -4t8 -4l31 -17v-6h-261v6l22 10q40 18 54 25.5t40.5 28t50.5 51.5l135 171l-171 263q-34 53 -52.5 71.5t-50.5 26.5l-25 6v9h384v-9l-27 -6q-20 -4 -29 -7t-14 -7.5t-5 -10.5
q0 -10 29 -61l83 -145l14 21q95 140 95 165z" />
    <glyph glyph-name="Y" unicode="Y" horiz-adv-x="673" 
d="M535 609q0 9 -9 15.5t-41 20.5l-39 17v6h261v-6l-34 -16q-36 -17 -56.5 -38t-50.5 -76l-130 -235v-143q0 -81 7 -109q4 -15 12 -21t35 -10l30 -5v-9h-355v9l30 5q27 4 35 10t12 21q7 28 7 109v35q0 64 -25 114l-135 264q-27 52 -39.5 65t-41.5 20l-32 7v9h389v-9l-32 -6
q-24 -4 -33 -9.5t-9 -15.5t20 -55l110 -251h1l76 176q37 86 37 111z" />
    <glyph glyph-name="Y" unicode="&#x1ef2;" horiz-adv-x="673" 
d="M535 609q0 9 -9 15.5t-41 20.5l-39 17v6h261v-6l-34 -16q-36 -17 -56.5 -38t-50.5 -76l-130 -235v-143q0 -81 7 -109q4 -15 12 -21t35 -10l30 -5v-9h-355v9l30 5q27 4 35 10t12 21q7 28 7 109v35q0 64 -25 114l-135 264q-27 52 -39.5 65t-41.5 20l-32 7v9h389v-9l-32 -6
q-24 -4 -33 -9.5t-9 -15.5t20 -55l110 -251h1l76 176q37 86 37 111z" />
    <glyph glyph-name="Y" unicode="&#x176;" horiz-adv-x="673" 
d="M535 609q0 9 -9 15.5t-41 20.5l-39 17v6h261v-6l-34 -16q-36 -17 -56.5 -38t-50.5 -76l-130 -235v-143q0 -81 7 -109q4 -15 12 -21t35 -10l30 -5v-9h-355v9l30 5q27 4 35 10t12 21q7 28 7 109v35q0 64 -25 114l-135 264q-27 52 -39.5 65t-41.5 20l-32 7v9h389v-9l-32 -6
q-24 -4 -33 -9.5t-9 -15.5t20 -55l110 -251h1l76 176q37 86 37 111z" />
    <glyph glyph-name="Z" unicode="Z" horiz-adv-x="665" 
d="M188 595q-30 -30 -121 -163l-7 2l37 266h6l7 -18q5 -13 9 -15.5t20 -2.5h494l2 -4l-389 -639l1 -1l84 3q83 3 116.5 12.5t65.5 41.5q50 50 126 155l8 -3l-46 -229h-570l-2 4l391 639l-1 1l-108 -3q-50 -1 -73.5 -10.5t-49.5 -35.5z" />
    <glyph glyph-name="Z" unicode="&#x17b;" horiz-adv-x="665" 
d="M188 595q-30 -30 -121 -163l-7 2l37 266h6l7 -18q5 -13 9 -15.5t20 -2.5h494l2 -4l-389 -639l1 -1l84 3q83 3 116.5 12.5t65.5 41.5q50 50 126 155l8 -3l-46 -229h-570l-2 4l391 639l-1 1l-108 -3q-50 -1 -73.5 -10.5t-49.5 -35.5z" />
    <glyph glyph-name="Z" unicode="&#x179;" horiz-adv-x="665" 
d="M188 595q-30 -30 -121 -163l-7 2l37 266h6l7 -18q5 -13 9 -15.5t20 -2.5h494l2 -4l-389 -639l1 -1l84 3q83 3 116.5 12.5t65.5 41.5q50 50 126 155l8 -3l-46 -229h-570l-2 4l391 639l-1 1l-108 -3q-50 -1 -73.5 -10.5t-49.5 -35.5z" />
    <glyph glyph-name="bracketleft" unicode="[" horiz-adv-x="426" 
d="M101 766q228 -7 331 -1l2 -8q-52 -9 -172 -16q-3 -156 -3 -460q0 -303 3 -459q120 -7 172 -16l-2 -8q-103 6 -331 -1q3 74 3 184v601q0 110 -3 184z" />
    <glyph glyph-name="backslash" unicode="\" horiz-adv-x="397" 
d="M419 -232l-23 -8l-378 1036l23 8z" />
    <glyph glyph-name="bracketright" unicode="]" horiz-adv-x="426" 
d="M325 766q-3 -74 -3 -184v-601q0 -110 3 -184q-228 7 -331 1l-2 8q52 9 172 16q3 156 3 459q0 304 -3 460q-120 7 -172 16l2 8q103 -6 331 1z" />
    <glyph glyph-name="underscore" unicode="_" horiz-adv-x="419" 
d="M419 -124h-419v24h419v-24z" />
    <glyph glyph-name="grave" unicode="`" 
d="M129 712q0 30 25.5 55t60.5 25q10 0 18.5 -2.5t15 -5t13 -9.5t10 -10.5t9 -14t7 -13t6.5 -15t6 -13.5l36 -82q18 -39 45 -96l-4 -3l-107 60l-87 48q-54 30 -54 76z" />
    <glyph glyph-name="a" unicode="a" horiz-adv-x="490" 
d="M193 414q-23 0 -41 -9l30 -103q-44 -23 -100 -23q-58 0 -58 37q0 24 39 63q40 40 103 73.5t119 33.5q75 0 110 -35q33 -33 33 -109v-228q0 -37 15 -52q10 -10 26 -10q15 0 32 11l4 -4q-21 -27 -56.5 -50.5t-79.5 -23.5q-81 0 -108 71l-3 1l-14 -12q-36 -30 -62 -43
t-59 -13q-47 0 -75.5 30.5t-28.5 72.5q0 35 22 57q28 28 136 64l82 27v50q0 88 -21 108q-15 16 -45 16zM259 68v161q-42 -23 -56 -37q-21 -21 -21 -58q0 -35 14 -54.5t35 -19.5q15 0 28 8z" />
    <glyph glyph-name="a" unicode="&#x1fb;" horiz-adv-x="490" 
d="M193 414q-23 0 -41 -9l30 -103q-44 -23 -100 -23q-58 0 -58 37q0 24 39 63q40 40 103 73.5t119 33.5q75 0 110 -35q33 -33 33 -109v-228q0 -37 15 -52q10 -10 26 -10q15 0 32 11l4 -4q-21 -27 -56.5 -50.5t-79.5 -23.5q-81 0 -108 71l-3 1l-14 -12q-36 -30 -62 -43
t-59 -13q-47 0 -75.5 30.5t-28.5 72.5q0 35 22 57q28 28 136 64l82 27v50q0 88 -21 108q-15 16 -45 16zM259 68v161q-42 -23 -56 -37q-21 -21 -21 -58q0 -35 14 -54.5t35 -19.5q15 0 28 8z" />
    <glyph glyph-name="a" unicode="&#x105;" horiz-adv-x="490" 
d="M193 414q-23 0 -41 -9l30 -103q-44 -23 -100 -23q-58 0 -58 37q0 24 39 63q40 40 103 73.5t119 33.5q75 0 110 -35q33 -33 33 -109v-228q0 -37 15 -52q10 -10 26 -10q15 0 32 11l4 -4q-21 -27 -56.5 -50.5t-79.5 -23.5q-81 0 -108 71l-3 1l-14 -12q-36 -30 -62 -43
t-59 -13q-47 0 -75.5 30.5t-28.5 72.5q0 35 22 57q28 28 136 64l82 27v50q0 88 -21 108q-15 16 -45 16zM259 68v161q-42 -23 -56 -37q-21 -21 -21 -58q0 -35 14 -54.5t35 -19.5q15 0 28 8z" />
    <glyph glyph-name="a" unicode="&#x103;" horiz-adv-x="490" 
d="M193 414q-23 0 -41 -9l30 -103q-44 -23 -100 -23q-58 0 -58 37q0 24 39 63q40 40 103 73.5t119 33.5q75 0 110 -35q33 -33 33 -109v-228q0 -37 15 -52q10 -10 26 -10q15 0 32 11l4 -4q-21 -27 -56.5 -50.5t-79.5 -23.5q-81 0 -108 71l-3 1l-14 -12q-36 -30 -62 -43
t-59 -13q-47 0 -75.5 30.5t-28.5 72.5q0 35 22 57q28 28 136 64l82 27v50q0 88 -21 108q-15 16 -45 16zM259 68v161q-42 -23 -56 -37q-21 -21 -21 -58q0 -35 14 -54.5t35 -19.5q15 0 28 8z" />
    <glyph glyph-name="a" unicode="&#x101;" horiz-adv-x="490" 
d="M193 414q-23 0 -41 -9l30 -103q-44 -23 -100 -23q-58 0 -58 37q0 24 39 63q40 40 103 73.5t119 33.5q75 0 110 -35q33 -33 33 -109v-228q0 -37 15 -52q10 -10 26 -10q15 0 32 11l4 -4q-21 -27 -56.5 -50.5t-79.5 -23.5q-81 0 -108 71l-3 1l-14 -12q-36 -30 -62 -43
t-59 -13q-47 0 -75.5 30.5t-28.5 72.5q0 35 22 57q28 28 136 64l82 27v50q0 88 -21 108q-15 16 -45 16zM259 68v161q-42 -23 -56 -37q-21 -21 -21 -58q0 -35 14 -54.5t35 -19.5q15 0 28 8z" />
    <glyph glyph-name="b" unicode="b" horiz-adv-x="548" 
d="M359 480q80 0 126 -60t46 -161q0 -116 -70 -194t-196 -78q-85 0 -157 41q-30 -11 -63 -35l-4 2q7 53 7 106v462q0 25 -11 38l-27 34v3l211 68l2 -2q-3 -57 -3 -91v-202l4 -2q55 71 135 71zM250 400q-17 0 -30 -5l-2 -315q0 -37 14 -56t37 -19q36 0 61 54.5t25 147.5
q0 90 -29.5 141.5t-75.5 51.5z" />
    <glyph glyph-name="c" unicode="c" horiz-adv-x="455" 
d="M336 79q56 0 101 42l3 -4q-64 -133 -202 -133q-100 0 -160.5 68t-60.5 167q0 107 72.5 184t188.5 77q74 0 120.5 -28t46.5 -74q0 -34 -24.5 -56t-53.5 -22q-22 0 -38 30l-63 116q-9 15 -18 15q-26 0 -50.5 -48t-24.5 -126q0 -93 44.5 -150.5t118.5 -57.5z" />
    <glyph glyph-name="c" unicode="&#x10d;" horiz-adv-x="455" 
d="M336 79q56 0 101 42l3 -4q-64 -133 -202 -133q-100 0 -160.5 68t-60.5 167q0 107 72.5 184t188.5 77q74 0 120.5 -28t46.5 -74q0 -34 -24.5 -56t-53.5 -22q-22 0 -38 30l-63 116q-9 15 -18 15q-26 0 -50.5 -48t-24.5 -126q0 -93 44.5 -150.5t118.5 -57.5z" />
    <glyph glyph-name="c" unicode="&#x10b;" horiz-adv-x="455" 
d="M336 79q56 0 101 42l3 -4q-64 -133 -202 -133q-100 0 -160.5 68t-60.5 167q0 107 72.5 184t188.5 77q74 0 120.5 -28t46.5 -74q0 -34 -24.5 -56t-53.5 -22q-22 0 -38 30l-63 116q-9 15 -18 15q-26 0 -50.5 -48t-24.5 -126q0 -93 44.5 -150.5t118.5 -57.5z" />
    <glyph glyph-name="c" unicode="&#x107;" horiz-adv-x="455" 
d="M336 79q56 0 101 42l3 -4q-64 -133 -202 -133q-100 0 -160.5 68t-60.5 167q0 107 72.5 184t188.5 77q74 0 120.5 -28t46.5 -74q0 -34 -24.5 -56t-53.5 -22q-22 0 -38 30l-63 116q-9 15 -18 15q-26 0 -50.5 -48t-24.5 -126q0 -93 44.5 -150.5t118.5 -57.5z" />
    <glyph glyph-name="d" unicode="d" horiz-adv-x="557" 
d="M245 477q45 0 83 -18v104q0 24 -11 37l-28 35v3l213 68l2 -1q-3 -57 -3 -92v-557q0 -18 5 -23t24 -5h22l1 -9l-229 -37l-2 2q2 13 4 39l2 30l-4 2q-57 -71 -135 -71q-80 0 -126 62t-46 165q0 114 62 190t166 76zM280 451q-37 0 -62 -53t-25 -144q0 -88 29.5 -139
t75.5 -51q17 0 30 5l2 308q0 37 -14 55.5t-36 18.5z" />
    <glyph glyph-name="d" unicode="&#x111;" horiz-adv-x="557" 
d="M245 477q45 0 83 -18v104q0 24 -11 37l-28 35v3l213 68l2 -1q-3 -57 -3 -92v-557q0 -18 5 -23t24 -5h22l1 -9l-229 -37l-2 2q2 13 4 39l2 30l-4 2q-57 -71 -135 -71q-80 0 -126 62t-46 165q0 114 62 190t166 76zM280 451q-37 0 -62 -53t-25 -144q0 -88 29.5 -139
t75.5 -51q17 0 30 5l2 308q0 37 -14 55.5t-36 18.5z" />
    <glyph glyph-name="d" unicode="&#x10f;" horiz-adv-x="557" 
d="M245 477q45 0 83 -18v104q0 24 -11 37l-28 35v3l213 68l2 -1q-3 -57 -3 -92v-557q0 -18 5 -23t24 -5h22l1 -9l-229 -37l-2 2q2 13 4 39l2 30l-4 2q-57 -71 -135 -71q-80 0 -126 62t-46 165q0 114 62 190t166 76zM280 451q-37 0 -62 -53t-25 -144q0 -88 29.5 -139
t75.5 -51q17 0 30 5l2 308q0 37 -14 55.5t-36 18.5z" />
    <glyph glyph-name="e" unicode="e" horiz-adv-x="471" 
d="M261 480q91 0 141.5 -43.5t50.5 -110.5q0 -19 -4 -31h-275q0 -98 42 -150t120 -52q68 0 119 47l4 -3q-72 -153 -222 -153q-99 0 -159.5 67t-60.5 167q0 113 71.5 187.5t172.5 74.5zM218 447q-42 -42 -44 -138q116 4 137 11q-1 58 -17 99.5t-45 41.5q-17 0 -31 -14z" />
    <glyph glyph-name="e" unicode="&#x11b;" horiz-adv-x="471" 
d="M261 480q91 0 141.5 -43.5t50.5 -110.5q0 -19 -4 -31h-275q0 -98 42 -150t120 -52q68 0 119 47l4 -3q-72 -153 -222 -153q-99 0 -159.5 67t-60.5 167q0 113 71.5 187.5t172.5 74.5zM218 447q-42 -42 -44 -138q116 4 137 11q-1 58 -17 99.5t-45 41.5q-17 0 -31 -14z" />
    <glyph glyph-name="e" unicode="&#x119;" horiz-adv-x="471" 
d="M261 480q91 0 141.5 -43.5t50.5 -110.5q0 -19 -4 -31h-275q0 -98 42 -150t120 -52q68 0 119 47l4 -3q-72 -153 -222 -153q-99 0 -159.5 67t-60.5 167q0 113 71.5 187.5t172.5 74.5zM218 447q-42 -42 -44 -138q116 4 137 11q-1 58 -17 99.5t-45 41.5q-17 0 -31 -14z" />
    <glyph glyph-name="e" unicode="&#x117;" horiz-adv-x="471" 
d="M261 480q91 0 141.5 -43.5t50.5 -110.5q0 -19 -4 -31h-275q0 -98 42 -150t120 -52q68 0 119 47l4 -3q-72 -153 -222 -153q-99 0 -159.5 67t-60.5 167q0 113 71.5 187.5t172.5 74.5zM218 447q-42 -42 -44 -138q116 4 137 11q-1 58 -17 99.5t-45 41.5q-17 0 -31 -14z" />
    <glyph glyph-name="e" unicode="&#x115;" horiz-adv-x="471" 
d="M261 480q91 0 141.5 -43.5t50.5 -110.5q0 -19 -4 -31h-275q0 -98 42 -150t120 -52q68 0 119 47l4 -3q-72 -153 -222 -153q-99 0 -159.5 67t-60.5 167q0 113 71.5 187.5t172.5 74.5zM218 447q-42 -42 -44 -138q116 4 137 11q-1 58 -17 99.5t-45 41.5q-17 0 -31 -14z" />
    <glyph glyph-name="e" unicode="&#x113;" horiz-adv-x="471" 
d="M261 480q91 0 141.5 -43.5t50.5 -110.5q0 -19 -4 -31h-275q0 -98 42 -150t120 -52q68 0 119 47l4 -3q-72 -153 -222 -153q-99 0 -159.5 67t-60.5 167q0 113 71.5 187.5t172.5 74.5zM218 447q-42 -42 -44 -138q116 4 137 11q-1 58 -17 99.5t-45 41.5q-17 0 -31 -14z" />
    <glyph glyph-name="f" unicode="f" horiz-adv-x="360" 
d="M241 389v-354q0 -12 4.5 -16t23.5 -6l31 -4v-9h-275v9l16 3q18 4 22.5 8t4.5 16v353h-73v5l73 68l3 25q12 104 82 161.5t171 57.5q65 0 104 -25.5t39 -63.5q0 -35 -28 -59t-62 -24q-21 0 -33 26l-50 108q-8 16 -13 16q-22 0 -35 -47.5t-9 -134.5l2 -38h134l-18 -75h-114z
" />
    <glyph glyph-name="g" unicode="g" horiz-adv-x="508" 
d="M188 -234q-90 0 -137 26.5t-47 70.5q0 62 108 93q-35 8 -57 30q-32 34 -32 78q0 57 99 111q-43 21 -67 57.5t-24 81.5q0 72 56.5 118t149.5 46q31 0 82 -8t72 -8q43 0 116 26q17 -22 17 -49q0 -22 -12.5 -35t-34.5 -13q-31 0 -80 34l-21 14l-4 -3q65 -58 65 -121
q0 -74 -55.5 -119t-147.5 -45q-57 0 -101 19q-21 -20 -21 -44q0 -14 11 -21t43 -7q15 0 61.5 0.5t78.5 0.5q133 0 171 -38q30 -30 30 -76q0 -60 -55 -115q-104 -104 -264 -104zM140 -47q-7 0 -19 2q-8 -16 -8 -35q0 -43 44 -66.5t118 -23.5q154 0 154 68q0 21 -12 33
q-23 23 -149 23q-22 0 -65 -0.5t-63 -0.5zM234 463q-23 0 -38 -40t-15 -97q0 -70 17.5 -114.5t45.5 -44.5q46 0 46 128q0 74 -14 121t-42 47z" />
    <glyph glyph-name="g" unicode="&#x123;" horiz-adv-x="508" 
d="M188 -234q-90 0 -137 26.5t-47 70.5q0 62 108 93q-35 8 -57 30q-32 34 -32 78q0 57 99 111q-43 21 -67 57.5t-24 81.5q0 72 56.5 118t149.5 46q31 0 82 -8t72 -8q43 0 116 26q17 -22 17 -49q0 -22 -12.5 -35t-34.5 -13q-31 0 -80 34l-21 14l-4 -3q65 -58 65 -121
q0 -74 -55.5 -119t-147.5 -45q-57 0 -101 19q-21 -20 -21 -44q0 -14 11 -21t43 -7q15 0 61.5 0.5t78.5 0.5q133 0 171 -38q30 -30 30 -76q0 -60 -55 -115q-104 -104 -264 -104zM140 -47q-7 0 -19 2q-8 -16 -8 -35q0 -43 44 -66.5t118 -23.5q154 0 154 68q0 21 -12 33
q-23 23 -149 23q-22 0 -65 -0.5t-63 -0.5zM234 463q-23 0 -38 -40t-15 -97q0 -70 17.5 -114.5t45.5 -44.5q46 0 46 128q0 74 -14 121t-42 47z" />
    <glyph glyph-name="g" unicode="&#x121;" horiz-adv-x="508" 
d="M188 -234q-90 0 -137 26.5t-47 70.5q0 62 108 93q-35 8 -57 30q-32 34 -32 78q0 57 99 111q-43 21 -67 57.5t-24 81.5q0 72 56.5 118t149.5 46q31 0 82 -8t72 -8q43 0 116 26q17 -22 17 -49q0 -22 -12.5 -35t-34.5 -13q-31 0 -80 34l-21 14l-4 -3q65 -58 65 -121
q0 -74 -55.5 -119t-147.5 -45q-57 0 -101 19q-21 -20 -21 -44q0 -14 11 -21t43 -7q15 0 61.5 0.5t78.5 0.5q133 0 171 -38q30 -30 30 -76q0 -60 -55 -115q-104 -104 -264 -104zM140 -47q-7 0 -19 2q-8 -16 -8 -35q0 -43 44 -66.5t118 -23.5q154 0 154 68q0 21 -12 33
q-23 23 -149 23q-22 0 -65 -0.5t-63 -0.5zM234 463q-23 0 -38 -40t-15 -97q0 -70 17.5 -114.5t45.5 -44.5q46 0 46 128q0 74 -14 121t-42 47z" />
    <glyph glyph-name="g" unicode="&#x11f;" horiz-adv-x="508" 
d="M188 -234q-90 0 -137 26.5t-47 70.5q0 62 108 93q-35 8 -57 30q-32 34 -32 78q0 57 99 111q-43 21 -67 57.5t-24 81.5q0 72 56.5 118t149.5 46q31 0 82 -8t72 -8q43 0 116 26q17 -22 17 -49q0 -22 -12.5 -35t-34.5 -13q-31 0 -80 34l-21 14l-4 -3q65 -58 65 -121
q0 -74 -55.5 -119t-147.5 -45q-57 0 -101 19q-21 -20 -21 -44q0 -14 11 -21t43 -7q15 0 61.5 0.5t78.5 0.5q133 0 171 -38q30 -30 30 -76q0 -60 -55 -115q-104 -104 -264 -104zM140 -47q-7 0 -19 2q-8 -16 -8 -35q0 -43 44 -66.5t118 -23.5q154 0 154 68q0 21 -12 33
q-23 23 -149 23q-22 0 -65 -0.5t-63 -0.5zM234 463q-23 0 -38 -40t-15 -97q0 -70 17.5 -114.5t45.5 -44.5q46 0 46 128q0 74 -14 121t-42 47z" />
    <glyph glyph-name="h" unicode="h" horiz-adv-x="562" 
d="M400 480q48 0 79 -31t31 -102v-312q0 -12 4.5 -15.5t22.5 -7.5l16 -3v-9h-251v9l16 3q12 2 16 6.5t4 16.5v256q0 57 -16 74q-16 14 -42 14q-18 0 -51 -11v-333q0 -12 3.5 -16.5t15.5 -6.5l16 -3v-9h-251v9l16 3q18 4 22.5 8t4.5 16v527q0 23 -10 37l-28 35v3l212 68l2 -2
q-3 -57 -3 -91v-229l4 -2q86 98 167 98z" />
    <glyph glyph-name="h" unicode="&#x127;" horiz-adv-x="562" 
d="M400 480q48 0 79 -31t31 -102v-312q0 -12 4.5 -15.5t22.5 -7.5l16 -3v-9h-251v9l16 3q12 2 16 6.5t4 16.5v256q0 57 -16 74q-16 14 -42 14q-18 0 -51 -11v-333q0 -12 3.5 -16.5t15.5 -6.5l16 -3v-9h-251v9l16 3q18 4 22.5 8t4.5 16v527q0 23 -10 37l-28 35v3l212 68l2 -2
q-3 -57 -3 -91v-229l4 -2q86 98 167 98z" />
    <glyph glyph-name="i" unicode="i" horiz-adv-x="280" 
d="M49 607q0 34 29.5 61t71.5 27q38 0 63 -25.5t25 -60.5t-27.5 -61t-68.5 -26q-39 0 -66 24.5t-27 60.5zM229 395v-359q0 -12 4.5 -16t22.5 -8l16 -3v-9h-259v9l16 3q18 4 22.5 8t4.5 16v310q0 23 -10 37l-28 34v2l212 68l2 -2q-3 -55 -3 -90z" />
    <glyph glyph-name="i" unicode="&#x12f;" horiz-adv-x="280" 
d="M49 607q0 34 29.5 61t71.5 27q38 0 63 -25.5t25 -60.5t-27.5 -61t-68.5 -26q-39 0 -66 24.5t-27 60.5zM229 395v-359q0 -12 4.5 -16t22.5 -8l16 -3v-9h-259v9l16 3q18 4 22.5 8t4.5 16v310q0 23 -10 37l-28 34v2l212 68l2 -2q-3 -55 -3 -90z" />
    <glyph glyph-name="i" unicode="&#x12d;" horiz-adv-x="280" 
d="M49 607q0 34 29.5 61t71.5 27q38 0 63 -25.5t25 -60.5t-27.5 -61t-68.5 -26q-39 0 -66 24.5t-27 60.5zM229 395v-359q0 -12 4.5 -16t22.5 -8l16 -3v-9h-259v9l16 3q18 4 22.5 8t4.5 16v310q0 23 -10 37l-28 34v2l212 68l2 -2q-3 -55 -3 -90z" />
    <glyph glyph-name="i" unicode="&#x12b;" horiz-adv-x="280" 
d="M49 607q0 34 29.5 61t71.5 27q38 0 63 -25.5t25 -60.5t-27.5 -61t-68.5 -26q-39 0 -66 24.5t-27 60.5zM229 395v-359q0 -12 4.5 -16t22.5 -8l16 -3v-9h-259v9l16 3q18 4 22.5 8t4.5 16v310q0 23 -10 37l-28 34v2l212 68l2 -2q-3 -55 -3 -90z" />
    <glyph glyph-name="j" unicode="j" horiz-adv-x="284" 
d="M235 395v-342q0 -68 -9 -104q-16 -65 -66 -115q-68 -68 -166 -68q-52 0 -81.5 22.5t-29.5 60.5q0 33 23 55.5t55 22.5q17 0 26 -20l54 -119q3 -7 6 -7q2 0 4 2q11 11 11 85v477q0 23 -10 37l-28 34v3l212 68l2 -2q-3 -55 -3 -90zM55 607q0 34 29.5 61t71.5 27
q38 0 63 -25.5t25 -60.5t-27.5 -61t-68.5 -26q-39 0 -66 24.5t-27 60.5z" />
    <glyph glyph-name="k" unicode="k" horiz-adv-x="560" 
d="M372 346l151 -287q21 -39 54 -47l15 -4v-8h-280v8l13 3q16 4 17.5 10t-9.5 29l-66 132q-8 16 -14.5 24t-10.5 9.5t-11 1.5h-2v-182q0 -12 3.5 -16.5t15.5 -6.5l16 -3v-9h-251v9l16 3q18 4 22.5 8t4.5 16v527q0 23 -10 37l-28 35v3l212 68l2 -2q-3 -57 -3 -90v-390
l128 144q27 32 27 43q0 13 -46 29l-45 16v8h270v-8l-41 -15q-35 -13 -52.5 -23t-57.5 -41z" />
    <glyph glyph-name="k" unicode="&#x137;" horiz-adv-x="560" 
d="M372 346l151 -287q21 -39 54 -47l15 -4v-8h-280v8l13 3q16 4 17.5 10t-9.5 29l-66 132q-8 16 -14.5 24t-10.5 9.5t-11 1.5h-2v-182q0 -12 3.5 -16.5t15.5 -6.5l16 -3v-9h-251v9l16 3q18 4 22.5 8t4.5 16v527q0 23 -10 37l-28 35v3l212 68l2 -2q-3 -57 -3 -90v-390
l128 144q27 32 27 43q0 13 -46 29l-45 16v8h270v-8l-41 -15q-35 -13 -52.5 -23t-57.5 -41z" />
    <glyph glyph-name="l" unicode="l" horiz-adv-x="285" 
d="M229 614v-579q0 -11 4.5 -15t22.5 -8l16 -3v-9h-259v9l16 3q18 4 22.5 8t4.5 16v527q0 23 -10 37l-28 35v3l212 68l2 -2q-3 -57 -3 -90z" />
    <glyph glyph-name="l" unicode="&#x140;" horiz-adv-x="285" 
d="M229 614v-579q0 -11 4.5 -15t22.5 -8l16 -3v-9h-259v9l16 3q18 4 22.5 8t4.5 16v527q0 23 -10 37l-28 35v3l212 68l2 -2q-3 -57 -3 -90z" />
    <glyph glyph-name="l" unicode="&#x13e;" horiz-adv-x="285" 
d="M229 614v-579q0 -11 4.5 -15t22.5 -8l16 -3v-9h-259v9l16 3q18 4 22.5 8t4.5 16v527q0 23 -10 37l-28 35v3l212 68l2 -2q-3 -57 -3 -90z" />
    <glyph glyph-name="l" unicode="&#x13c;" horiz-adv-x="285" 
d="M229 614v-579q0 -11 4.5 -15t22.5 -8l16 -3v-9h-259v9l16 3q18 4 22.5 8t4.5 16v527q0 23 -10 37l-28 35v3l212 68l2 -2q-3 -57 -3 -90z" />
    <glyph glyph-name="l" unicode="&#x13a;" horiz-adv-x="285" 
d="M229 614v-579q0 -11 4.5 -15t22.5 -8l16 -3v-9h-259v9l16 3q18 4 22.5 8t4.5 16v527q0 23 -10 37l-28 35v3l212 68l2 -2q-3 -57 -3 -90z" />
    <glyph glyph-name="m" unicode="m" horiz-adv-x="831" 
d="M674 480q45 0 76 -31q29 -29 29 -102v-312q0 -12 4 -15.5t23 -7.5l16 -3v-9h-248v9l16 3q11 2 14 6.5t3 16.5v256q0 59 -16 75q-13 13 -37 13q-18 0 -51 -13q1 -8 1 -27v-304q0 -12 3 -16.5t14 -6.5l16 -3v-9h-239v9l16 3q12 2 15 6.5t3 16.5v256q0 59 -16 75
q-13 13 -37 13q-17 0 -50 -11v-333q0 -12 3 -16.5t15 -6.5l16 -3v-9h-250v9l16 3q18 4 22.5 8t4.5 16v309q0 23 -10 37l-28 34v3l214 69l2 -2q-5 -63 -5 -81l-1 -21l4 -2q86 98 166 98q45 0 76 -31q23 -24 28 -73q88 104 172 104z" />
    <glyph glyph-name="n" unicode="n" horiz-adv-x="562" 
d="M400 480q48 0 79 -31t31 -102v-312q0 -12 4.5 -15.5t22.5 -7.5l16 -3v-9h-251v9l16 3q12 2 16 6.5t4 16.5v256q0 57 -16 74q-16 14 -42 14q-18 0 -51 -11v-333q0 -12 3.5 -16.5t15.5 -6.5l16 -3v-9h-251v9l16 3q18 4 22.5 8t4.5 16v309q0 23 -10 37l-28 34v3l214 69l2 -2
q-5 -62 -5 -81l-1 -21l4 -2q86 98 168 98z" />
    <glyph glyph-name="n" unicode="&#x148;" horiz-adv-x="562" 
d="M400 480q48 0 79 -31t31 -102v-312q0 -12 4.5 -15.5t22.5 -7.5l16 -3v-9h-251v9l16 3q12 2 16 6.5t4 16.5v256q0 57 -16 74q-16 14 -42 14q-18 0 -51 -11v-333q0 -12 3.5 -16.5t15.5 -6.5l16 -3v-9h-251v9l16 3q18 4 22.5 8t4.5 16v309q0 23 -10 37l-28 34v3l214 69l2 -2
q-5 -62 -5 -81l-1 -21l4 -2q86 98 168 98z" />
    <glyph glyph-name="n" unicode="&#x146;" horiz-adv-x="562" 
d="M400 480q48 0 79 -31t31 -102v-312q0 -12 4.5 -15.5t22.5 -7.5l16 -3v-9h-251v9l16 3q12 2 16 6.5t4 16.5v256q0 57 -16 74q-16 14 -42 14q-18 0 -51 -11v-333q0 -12 3.5 -16.5t15.5 -6.5l16 -3v-9h-251v9l16 3q18 4 22.5 8t4.5 16v309q0 23 -10 37l-28 34v3l214 69l2 -2
q-5 -62 -5 -81l-1 -21l4 -2q86 98 168 98z" />
    <glyph glyph-name="n" unicode="&#x144;" horiz-adv-x="562" 
d="M400 480q48 0 79 -31t31 -102v-312q0 -12 4.5 -15.5t22.5 -7.5l16 -3v-9h-251v9l16 3q12 2 16 6.5t4 16.5v256q0 57 -16 74q-16 14 -42 14q-18 0 -51 -11v-333q0 -12 3.5 -16.5t15.5 -6.5l16 -3v-9h-251v9l16 3q18 4 22.5 8t4.5 16v309q0 23 -10 37l-28 34v3l214 69l2 -2
q-5 -62 -5 -81l-1 -21l4 -2q86 98 168 98z" />
    <glyph glyph-name="o" unicode="o" horiz-adv-x="543" 
d="M276 480q114 0 182 -72t68 -172q0 -107 -70 -177q-75 -75 -189 -75t-182 72t-68 172q0 107 70 177q75 75 189 75zM278 3q26 0 42 33q26 52 26 179q0 100 -22 173t-59 73q-25 0 -42 -33q-26 -52 -26 -179q0 -100 22 -173t59 -73z" />
    <glyph glyph-name="o" unicode="&#x1ff;" horiz-adv-x="543" 
d="M276 480q114 0 182 -72t68 -172q0 -107 -70 -177q-75 -75 -189 -75t-182 72t-68 172q0 107 70 177q75 75 189 75zM278 3q26 0 42 33q26 52 26 179q0 100 -22 173t-59 73q-25 0 -42 -33q-26 -52 -26 -179q0 -100 22 -173t59 -73z" />
    <glyph glyph-name="o" unicode="&#x151;" horiz-adv-x="543" 
d="M276 480q114 0 182 -72t68 -172q0 -107 -70 -177q-75 -75 -189 -75t-182 72t-68 172q0 107 70 177q75 75 189 75zM278 3q26 0 42 33q26 52 26 179q0 100 -22 173t-59 73q-25 0 -42 -33q-26 -52 -26 -179q0 -100 22 -173t59 -73z" />
    <glyph glyph-name="o" unicode="&#x14f;" horiz-adv-x="543" 
d="M276 480q114 0 182 -72t68 -172q0 -107 -70 -177q-75 -75 -189 -75t-182 72t-68 172q0 107 70 177q75 75 189 75zM278 3q26 0 42 33q26 52 26 179q0 100 -22 173t-59 73q-25 0 -42 -33q-26 -52 -26 -179q0 -100 22 -173t59 -73z" />
    <glyph glyph-name="o" unicode="&#x14d;" horiz-adv-x="543" 
d="M276 480q114 0 182 -72t68 -172q0 -107 -70 -177q-75 -75 -189 -75t-182 72t-68 172q0 107 70 177q75 75 189 75zM278 3q26 0 42 33q26 52 26 179q0 100 -22 173t-59 73q-25 0 -42 -33q-26 -52 -26 -179q0 -100 22 -173t59 -73z" />
    <glyph glyph-name="p" unicode="p" horiz-adv-x="555" 
d="M538 253q0 -114 -62 -190t-166 -76q-46 0 -83 18v-193q0 -12 5 -16t25 -7l29 -4v-9h-274v9l16 3q18 4 22.5 8t4.5 16v533q0 25 -11 38l-27 34v2l214 69l2 -2q-6 -52 -6 -72v-3l4 -2q57 71 135 71q80 0 126 -62t46 -165zM362 210q0 88 -29.5 139t-75.5 51q-17 0 -30 -5
l-2 -308q0 -37 14 -55.5t36 -18.5q37 0 62 53t25 144z" />
    <glyph glyph-name="q" unicode="q" horiz-adv-x="549" 
d="M283 480q87 0 157 -48q34 25 60 49l4 -2q-4 -43 -4 -109v-558q0 -12 4.5 -16t22.5 -8l16 -3v-9h-274v9l29 4q20 3 25 7t5 16v244l-4 2q-55 -71 -135 -71t-126 60t-46 161q0 116 70 194t196 78zM279 462q-36 0 -61 -54.5t-25 -147.5q0 -90 29.5 -141.5t75.5 -51.5
q17 0 30 5l2 315q0 37 -14 56t-37 19z" />
    <glyph glyph-name="r" unicode="r" horiz-adv-x="422" 
d="M364 483q32 0 48.5 -19t16.5 -50q0 -60 -45 -110q-66 35 -106 35q-35 0 -49 -43v-261q0 -12 4.5 -16t23.5 -6l33 -4v-9h-277v9l16 3q18 4 22.5 8t4.5 16v309q0 26 -10 37l-28 34v3l214 69l2 -2l-5 -78l-4 -81l5 -2q18 71 56 114.5t78 43.5z" />
    <glyph glyph-name="r" unicode="&#x159;" horiz-adv-x="422" 
d="M364 483q32 0 48.5 -19t16.5 -50q0 -60 -45 -110q-66 35 -106 35q-35 0 -49 -43v-261q0 -12 4.5 -16t23.5 -6l33 -4v-9h-277v9l16 3q18 4 22.5 8t4.5 16v309q0 26 -10 37l-28 34v3l214 69l2 -2l-5 -78l-4 -81l5 -2q18 71 56 114.5t78 43.5z" />
    <glyph glyph-name="r" unicode="&#x157;" horiz-adv-x="422" 
d="M364 483q32 0 48.5 -19t16.5 -50q0 -60 -45 -110q-66 35 -106 35q-35 0 -49 -43v-261q0 -12 4.5 -16t23.5 -6l33 -4v-9h-277v9l16 3q18 4 22.5 8t4.5 16v309q0 26 -10 37l-28 34v3l214 69l2 -2l-5 -78l-4 -81l5 -2q18 71 56 114.5t78 43.5z" />
    <glyph glyph-name="r" unicode="&#x155;" horiz-adv-x="422" 
d="M364 483q32 0 48.5 -19t16.5 -50q0 -60 -45 -110q-66 35 -106 35q-35 0 -49 -43v-261q0 -12 4.5 -16t23.5 -6l33 -4v-9h-277v9l16 3q18 4 22.5 8t4.5 16v309q0 26 -10 37l-28 34v3l214 69l2 -2l-5 -78l-4 -81l5 -2q18 71 56 114.5t78 43.5z" />
    <glyph glyph-name="s" unicode="s" horiz-adv-x="415" 
d="M272 59q0 28 -21.5 50t-71.5 52q-2 1 -21.5 13t-22.5 13.5t-19.5 12.5t-20 14.5t-16 14t-16 16.5t-11 17t-10 21t-5 22.5t-2.5 25.5q0 63 52 105t134 42q76 0 148 -28q7 -49 7 -134l-6 -2q-65 89 -96.5 116.5t-58.5 27.5q-25 0 -38.5 -14t-13.5 -36q0 -26 18.5 -45.5
t57.5 -41.5q41 -23 63 -37.5t48 -37t37.5 -47.5t11.5 -56q0 -72 -56 -114.5t-147 -42.5t-160 29q-12 77 -14 162l6 2q72 -95 113.5 -134t76.5 -39q27 0 40.5 14.5t13.5 38.5z" />
    <glyph glyph-name="s" unicode="&#x219;" horiz-adv-x="415" 
d="M272 59q0 28 -21.5 50t-71.5 52q-2 1 -21.5 13t-22.5 13.5t-19.5 12.5t-20 14.5t-16 14t-16 16.5t-11 17t-10 21t-5 22.5t-2.5 25.5q0 63 52 105t134 42q76 0 148 -28q7 -49 7 -134l-6 -2q-65 89 -96.5 116.5t-58.5 27.5q-25 0 -38.5 -14t-13.5 -36q0 -26 18.5 -45.5
t57.5 -41.5q41 -23 63 -37.5t48 -37t37.5 -47.5t11.5 -56q0 -72 -56 -114.5t-147 -42.5t-160 29q-12 77 -14 162l6 2q72 -95 113.5 -134t76.5 -39q27 0 40.5 14.5t13.5 38.5z" />
    <glyph glyph-name="s" unicode="&#x15f;" horiz-adv-x="415" 
d="M272 59q0 28 -21.5 50t-71.5 52q-2 1 -21.5 13t-22.5 13.5t-19.5 12.5t-20 14.5t-16 14t-16 16.5t-11 17t-10 21t-5 22.5t-2.5 25.5q0 63 52 105t134 42q76 0 148 -28q7 -49 7 -134l-6 -2q-65 89 -96.5 116.5t-58.5 27.5q-25 0 -38.5 -14t-13.5 -36q0 -26 18.5 -45.5
t57.5 -41.5q41 -23 63 -37.5t48 -37t37.5 -47.5t11.5 -56q0 -72 -56 -114.5t-147 -42.5t-160 29q-12 77 -14 162l6 2q72 -95 113.5 -134t76.5 -39q27 0 40.5 14.5t13.5 38.5z" />
    <glyph glyph-name="s" unicode="&#x15b;" horiz-adv-x="415" 
d="M272 59q0 28 -21.5 50t-71.5 52q-2 1 -21.5 13t-22.5 13.5t-19.5 12.5t-20 14.5t-16 14t-16 16.5t-11 17t-10 21t-5 22.5t-2.5 25.5q0 63 52 105t134 42q76 0 148 -28q7 -49 7 -134l-6 -2q-65 89 -96.5 116.5t-58.5 27.5q-25 0 -38.5 -14t-13.5 -36q0 -26 18.5 -45.5
t57.5 -41.5q41 -23 63 -37.5t48 -37t37.5 -47.5t11.5 -56q0 -72 -56 -114.5t-147 -42.5t-160 29q-12 77 -14 162l6 2q72 -95 113.5 -134t76.5 -39q27 0 40.5 14.5t13.5 38.5z" />
    <glyph glyph-name="t" unicode="t" horiz-adv-x="380" 
d="M203 -15q-73 0 -108 35t-35 108v261h-59v13q120 87 232 187l4 -1l-4 -124h143l-12 -75h-132v-235q0 -38 18 -56q16 -16 52 -16q43 0 80 27l4 -3q-60 -121 -183 -121z" />
    <glyph glyph-name="t" unicode="&#x21b;" horiz-adv-x="380" 
d="M203 -15q-73 0 -108 35t-35 108v261h-59v13q120 87 232 187l4 -1l-4 -124h143l-12 -75h-132v-235q0 -38 18 -56q16 -16 52 -16q43 0 80 27l4 -3q-60 -121 -183 -121z" />
    <glyph glyph-name="t" unicode="&#x165;" horiz-adv-x="380" 
d="M203 -15q-73 0 -108 35t-35 108v261h-59v13q120 87 232 187l4 -1l-4 -124h143l-12 -75h-132v-235q0 -38 18 -56q16 -16 52 -16q43 0 80 27l4 -3q-60 -121 -183 -121z" />
    <glyph glyph-name="t" unicode="&#x163;" horiz-adv-x="380" 
d="M203 -15q-73 0 -108 35t-35 108v261h-59v13q120 87 232 187l4 -1l-4 -124h143l-12 -75h-132v-235q0 -38 18 -56q16 -16 52 -16q43 0 80 27l4 -3q-60 -121 -183 -121z" />
    <glyph glyph-name="u" unicode="u" horiz-adv-x="559" 
d="M160 -15q-48 0 -77 29q-31 31 -31 103v280q0 21 -3 27t-17 12l-33 14v6l227 21l2 -2q-3 -39 -3 -84v-218q0 -60 15 -74q13 -14 39 -14q17 0 50 13v300q0 21 -3 27t-17 12l-33 14v5l226 21l2 -2q-3 -39 -3 -86v-331q0 -18 5 -23t24 -5h22l1 -9l-228 -37l-2 2q2 14 4 38
l2 57l-4 2q-85 -98 -165 -98z" />
    <glyph glyph-name="u" unicode="&#x173;" horiz-adv-x="559" 
d="M160 -15q-48 0 -77 29q-31 31 -31 103v280q0 21 -3 27t-17 12l-33 14v6l227 21l2 -2q-3 -39 -3 -84v-218q0 -60 15 -74q13 -14 39 -14q17 0 50 13v300q0 21 -3 27t-17 12l-33 14v5l226 21l2 -2q-3 -39 -3 -86v-331q0 -18 5 -23t24 -5h22l1 -9l-228 -37l-2 2q2 14 4 38
l2 57l-4 2q-85 -98 -165 -98z" />
    <glyph glyph-name="u" unicode="&#x171;" horiz-adv-x="559" 
d="M160 -15q-48 0 -77 29q-31 31 -31 103v280q0 21 -3 27t-17 12l-33 14v6l227 21l2 -2q-3 -39 -3 -84v-218q0 -60 15 -74q13 -14 39 -14q17 0 50 13v300q0 21 -3 27t-17 12l-33 14v5l226 21l2 -2q-3 -39 -3 -86v-331q0 -18 5 -23t24 -5h22l1 -9l-228 -37l-2 2q2 14 4 38
l2 57l-4 2q-85 -98 -165 -98z" />
    <glyph glyph-name="u" unicode="&#x16f;" horiz-adv-x="559" 
d="M160 -15q-48 0 -77 29q-31 31 -31 103v280q0 21 -3 27t-17 12l-33 14v6l227 21l2 -2q-3 -39 -3 -84v-218q0 -60 15 -74q13 -14 39 -14q17 0 50 13v300q0 21 -3 27t-17 12l-33 14v5l226 21l2 -2q-3 -39 -3 -86v-331q0 -18 5 -23t24 -5h22l1 -9l-228 -37l-2 2q2 14 4 38
l2 57l-4 2q-85 -98 -165 -98z" />
    <glyph glyph-name="u" unicode="&#x16d;" horiz-adv-x="559" 
d="M160 -15q-48 0 -77 29q-31 31 -31 103v280q0 21 -3 27t-17 12l-33 14v6l227 21l2 -2q-3 -39 -3 -84v-218q0 -60 15 -74q13 -14 39 -14q17 0 50 13v300q0 21 -3 27t-17 12l-33 14v5l226 21l2 -2q-3 -39 -3 -86v-331q0 -18 5 -23t24 -5h22l1 -9l-228 -37l-2 2q2 14 4 38
l2 57l-4 2q-85 -98 -165 -98z" />
    <glyph glyph-name="u" unicode="&#x16b;" horiz-adv-x="559" 
d="M160 -15q-48 0 -77 29q-31 31 -31 103v280q0 21 -3 27t-17 12l-33 14v6l227 21l2 -2q-3 -39 -3 -84v-218q0 -60 15 -74q13 -14 39 -14q17 0 50 13v300q0 21 -3 27t-17 12l-33 14v5l226 21l2 -2q-3 -39 -3 -86v-331q0 -18 5 -23t24 -5h22l1 -9l-228 -37l-2 2q2 14 4 38
l2 57l-4 2q-85 -98 -165 -98z" />
    <glyph glyph-name="v" unicode="v" horiz-adv-x="480" 
d="M391 407q0 17 -38 39l-22 14v4h180v-4l-27 -18q-22 -15 -33.5 -29t-25.5 -46l-162 -373h-45l-181 411q-11 25 -19.5 32t-28.5 13l-18 5v9h300v-9l-25 -5q-17 -3 -22.5 -6.5t-5.5 -10.5q0 -13 7 -30l89 -237h2l38 104q37 104 37 137z" />
    <glyph glyph-name="w" unicode="w" horiz-adv-x="764" 
d="M531 436q0 -4 6 -27l70 -235h2l27 83q42 132 42 153q0 13 -37 35l-23 15v4h180v-4l-34 -23q-18 -13 -29.5 -28t-25.5 -48l-156 -367h-45l-119 318l-136 -318h-45l-163 420q-7 19 -14.5 24.5t-29.5 11.5l-17 5v9h281v-9l-19 -5q-13 -3 -17 -5.5t-4 -8.5q0 -9 6 -27
l73 -235h2l71 169l-26 71q-7 19 -13.5 24.5t-24.5 11.5l-15 5v9h278v-9l-19 -5q-26 -6 -26 -14z" />
    <glyph glyph-name="w" unicode="&#x1e85;" horiz-adv-x="764" 
d="M531 436q0 -4 6 -27l70 -235h2l27 83q42 132 42 153q0 13 -37 35l-23 15v4h180v-4l-34 -23q-18 -13 -29.5 -28t-25.5 -48l-156 -367h-45l-119 318l-136 -318h-45l-163 420q-7 19 -14.5 24.5t-29.5 11.5l-17 5v9h281v-9l-19 -5q-13 -3 -17 -5.5t-4 -8.5q0 -9 6 -27
l73 -235h2l71 169l-26 71q-7 19 -13.5 24.5t-24.5 11.5l-15 5v9h278v-9l-19 -5q-26 -6 -26 -14z" />
    <glyph glyph-name="w" unicode="&#x1e83;" horiz-adv-x="764" 
d="M531 436q0 -4 6 -27l70 -235h2l27 83q42 132 42 153q0 13 -37 35l-23 15v4h180v-4l-34 -23q-18 -13 -29.5 -28t-25.5 -48l-156 -367h-45l-119 318l-136 -318h-45l-163 420q-7 19 -14.5 24.5t-29.5 11.5l-17 5v9h281v-9l-19 -5q-13 -3 -17 -5.5t-4 -8.5q0 -9 6 -27
l73 -235h2l71 169l-26 71q-7 19 -13.5 24.5t-24.5 11.5l-15 5v9h278v-9l-19 -5q-26 -6 -26 -14z" />
    <glyph glyph-name="w" unicode="&#x1e81;" horiz-adv-x="764" 
d="M531 436q0 -4 6 -27l70 -235h2l27 83q42 132 42 153q0 13 -37 35l-23 15v4h180v-4l-34 -23q-18 -13 -29.5 -28t-25.5 -48l-156 -367h-45l-119 318l-136 -318h-45l-163 420q-7 19 -14.5 24.5t-29.5 11.5l-17 5v9h281v-9l-19 -5q-13 -3 -17 -5.5t-4 -8.5q0 -9 6 -27
l73 -235h2l71 169l-26 71q-7 19 -13.5 24.5t-24.5 11.5l-15 5v9h278v-9l-19 -5q-26 -6 -26 -14z" />
    <glyph glyph-name="w" unicode="&#x175;" horiz-adv-x="764" 
d="M531 436q0 -4 6 -27l70 -235h2l27 83q42 132 42 153q0 13 -37 35l-23 15v4h180v-4l-34 -23q-18 -13 -29.5 -28t-25.5 -48l-156 -367h-45l-119 318l-136 -318h-45l-163 420q-7 19 -14.5 24.5t-29.5 11.5l-17 5v9h281v-9l-19 -5q-13 -3 -17 -5.5t-4 -8.5q0 -9 6 -27
l73 -235h2l71 169l-26 71q-7 19 -13.5 24.5t-24.5 11.5l-15 5v9h278v-9l-19 -5q-26 -6 -26 -14z" />
    <glyph glyph-name="x" unicode="x" horiz-adv-x="506" 
d="M364 417q0 10 -21 26l-24 17v4h182v-4l-36 -21q-50 -29 -69 -51l-80 -96l133 -234q13 -23 23.5 -30.5t30.5 -12.5l23 -6v-9h-298v9l37 7q8 2 11 4t1.5 9t-9.5 22l-69 121l-49 -79q-22 -36 -22 -46t21 -26l24 -17v-4h-182v4l36 21q45 26 67 52l95 113l-122 216
q-13 22 -23.5 30t-30.5 13l-23 6v9h294v-9l-33 -7q-8 -2 -11 -4t-1.5 -9t9.5 -22l58 -103l38 62q20 32 20 45z" />
    <glyph glyph-name="y" unicode="y" horiz-adv-x="481" 
d="M391 410q0 8 -8 15t-29 20l-23 15v4h180v-4l-32 -22q-19 -13 -28.5 -26t-24.5 -49l-170 -414q-45 -110 -83 -146.5t-77 -36.5q-36 0 -57 25t-21 63q0 28 13.5 47.5t34.5 19.5q8 0 21 -5l67 -25q18 -6 28 -6q11 0 19 9t25 45l-185 466q-10 26 -18.5 32.5t-29.5 12.5l-18 5
v9h300v-9l-26 -6q-26 -10 -28 -15q0 -6 7 -27l85 -260h2l38 112q38 118 38 151z" />
    <glyph glyph-name="y" unicode="&#x1ef3;" horiz-adv-x="481" 
d="M391 410q0 8 -8 15t-29 20l-23 15v4h180v-4l-32 -22q-19 -13 -28.5 -26t-24.5 -49l-170 -414q-45 -110 -83 -146.5t-77 -36.5q-36 0 -57 25t-21 63q0 28 13.5 47.5t34.5 19.5q8 0 21 -5l67 -25q18 -6 28 -6q11 0 19 9t25 45l-185 466q-10 26 -18.5 32.5t-29.5 12.5l-18 5
v9h300v-9l-26 -6q-26 -10 -28 -15q0 -6 7 -27l85 -260h2l38 112q38 118 38 151z" />
    <glyph glyph-name="y" unicode="&#x177;" horiz-adv-x="481" 
d="M391 410q0 8 -8 15t-29 20l-23 15v4h180v-4l-32 -22q-19 -13 -28.5 -26t-24.5 -49l-170 -414q-45 -110 -83 -146.5t-77 -36.5q-36 0 -57 25t-21 63q0 28 13.5 47.5t34.5 19.5q8 0 21 -5l67 -25q18 -6 28 -6q11 0 19 9t25 45l-185 466q-10 26 -18.5 32.5t-29.5 12.5l-18 5
v9h300v-9l-26 -6q-26 -10 -28 -15q0 -6 7 -27l85 -260h2l38 112q38 118 38 151z" />
    <glyph glyph-name="z" unicode="z" horiz-adv-x="476" 
d="M378 76q13 13 80 108l5 -2l-23 -182h-433l-2 6l267 440l-1 2l-54 -7q-61 -8 -85 -32q-7 -7 -100 -119l-6 2l38 207h6l5 -20q2 -9 5.5 -12t12.5 -3h370l2 -6l-255 -439l2 -3l18 3q108 17 148 57z" />
    <glyph glyph-name="z" unicode="&#x17c;" horiz-adv-x="476" 
d="M378 76q13 13 80 108l5 -2l-23 -182h-433l-2 6l267 440l-1 2l-54 -7q-61 -8 -85 -32q-7 -7 -100 -119l-6 2l38 207h6l5 -20q2 -9 5.5 -12t12.5 -3h370l2 -6l-255 -439l2 -3l18 3q108 17 148 57z" />
    <glyph glyph-name="z" unicode="&#x17a;" horiz-adv-x="476" 
d="M378 76q13 13 80 108l5 -2l-23 -182h-433l-2 6l267 440l-1 2l-54 -7q-61 -8 -85 -32q-7 -7 -100 -119l-6 2l38 207h6l5 -20q2 -9 5.5 -12t12.5 -3h370l2 -6l-255 -439l2 -3l18 3q108 17 148 57z" />
    <glyph glyph-name="braceleft" unicode="{" horiz-adv-x="459" 
d="M179 182q0 42 -31 64t-107 29l-23 2v8l23 2q76 7 107 29t31 64q0 39 -25.5 122t-25.5 116q0 46 24.5 77.5t73.5 49t110 26t146 10.5l1 -9q-98 -12 -134.5 -33.5t-36.5 -82.5q0 -41 5.5 -108.5t5.5 -106.5q0 -34 -14.5 -59.5t-35 -41.5t-57.5 -28t-67.5 -17.5t-79.5 -12.5
v-2q49 -7 79.5 -12.5t67.5 -17.5t57.5 -28t35 -41.5t14.5 -59.5q0 -39 -5.5 -106.5t-5.5 -108.5q0 -61 36.5 -82.5t134.5 -33.5l-1 -9q-85 2 -146 10.5t-110 26t-73.5 49t-24.5 77.5q0 33 25.5 116t25.5 122z" />
    <glyph glyph-name="bar" unicode="|" horiz-adv-x="282" 
d="M129 -234v1030h24v-1030h-24z" />
    <glyph glyph-name="braceright" unicode="}" horiz-adv-x="459" 
d="M286 182q0 -39 25.5 -122t25.5 -116q0 -46 -24.5 -77.5t-73.5 -49t-110 -26t-146 -10.5l-1 9q98 12 134.5 33.5t36.5 82.5q0 41 -5.5 108.5t-5.5 106.5q0 34 14.5 59.5t35 41.5t57.5 28t67.5 17.5t79.5 12.5v2q-49 7 -79.5 12.5t-67.5 17.5t-57.5 28t-35 41.5t-14.5 59.5
q0 39 5.5 106.5t5.5 108.5q0 61 -36.5 82.5t-134.5 33.5l1 9q85 -2 146 -10.5t110 -26t73.5 -49t24.5 -77.5q0 -33 -25.5 -116t-25.5 -122q0 -42 31 -64t107 -29l23 -2v-8l-23 -2q-76 -7 -107 -29t-31 -64z" />
    <glyph glyph-name="exclamdown" unicode="&#xa1;" horiz-adv-x="304" 
d="M152 -16q-46 0 -73.5 26t-27.5 74q0 49 33 149q46 139 53 171l11 49h8l11 -49q7 -32 53 -171q33 -100 33 -149q0 -48 -27.5 -74t-73.5 -26zM151 680q41 0 69.5 -26.5t28.5 -64.5q0 -35 -28 -63t-72 -28q-38 0 -66 27t-28 62q0 37 27.5 65t68.5 28z" />
    <glyph glyph-name="cent" unicode="&#xa2;" horiz-adv-x="496" 
d="M261 -103l-14 1l6 86q-101 3 -160 70.5t-59 164.5q0 104 69.5 180t184.5 81l6 85h15l-6 -85q78 -1 126.5 -32t48.5 -79q0 -34 -23 -56.5t-52 -22.5q-28 0 -38 30l-40 126q-3 10 -6.5 12.5t-12.5 2.5h-5l-26 -367q31 -15 74 -15q73 0 115 42l3 -4q-61 -130 -200 -133z
M190 275q0 -128 71 -173l25 356q-39 -10 -67.5 -59.5t-28.5 -123.5z" />
    <glyph glyph-name="sterling" unicode="&#xa3;" horiz-adv-x="588" 
d="M450 296h-168q-12 -54 -40 -91t-92 -99l4 -5q85 53 157 53q31 0 81 -6.5t71 -6.5q25 0 37.5 11t26.5 49l4 11l7 -1l-6 -36q-14 -86 -36 -134.5t-61 -48.5q-41 0 -145.5 50t-134.5 50h-1q-51 -102 -84 -102q-18 0 -34 16t-16 37q0 20 33.5 40t88.5 26q10 30 8.5 51
t-14.5 92l-8 44h-88v18h86q-5 37 -5 68q0 98 68 161t185 63q64 0 111 -25t47 -75q0 -33 -22 -57.5t-50 -24.5q-23 0 -40 32l-56 100q-13 24 -17.5 29.5t-9.5 5.5q-43 0 -43 -162q0 -65 -8 -115h164v-18z" />
    <glyph glyph-name="yen" unicode="&#xa5;" horiz-adv-x="650" 
d="M70 315h129l-95 184q-6 11 -10 18.5t-7.5 14.5t-8 11.5t-6.5 8.5t-7 6.5t-6.5 4t-8.5 3.5t-8.5 2.5t-11.5 2.5t-13 3l-32 7v9h362v-9l-31 -6q-23 -4 -30 -9t-7 -14q0 -11 16 -47l101 -228h1l59 127q46 101 46 133q0 8 -7.5 13t-39.5 18l-39 16v6h251v-6l-39 -16
q-38 -16 -53.5 -31.5t-46.5 -72.5l-81 -149h141v-19h-151l-26 -49v-31h177v-19h-177v-43q0 -81 7 -109q4 -15 12 -21t35 -10l30 -5v-9h-324v9l30 5q27 4 35 10t12 21q7 28 7 97v4q0 30 -4 51h-181v19h177q-5 16 -17 40l-21 40h-139v19z" />
    <glyph glyph-name="dieresis" unicode="&#xa8;" horiz-adv-x="499" 
d="M239 610q0 -34 -24 -58t-61 -24q-34 0 -58 23.5t-24 56.5t26 58t64 25q33 0 55 -24.5t22 -56.5zM428 611q0 -33 -26 -58t-64 -25q-33 0 -55 24.5t-22 56.5q0 34 24 58t61 24q34 0 58 -23.5t24 -56.5z" />
    <glyph glyph-name="copyright" unicode="&#xa9;" horiz-adv-x="764" 
d="M30 339q0 145 101 249.5t247 104.5q85 0 154 -30.5t112.5 -82t66.5 -116t23 -136.5q0 -144 -101 -248.5t-248 -104.5q-112 0 -194.5 52.5t-121.5 134t-39 177.5zM389 -5q59 0 116 24t103 66t74.5 106.5t28.5 138.5q0 156 -94.5 250t-241.5 94q-124 0 -223 -94.5
t-99 -242.5q0 -155 94.5 -248.5t241.5 -93.5zM407 526q20 0 56 -6.5t40 -6.5q6 0 10 7l3 5h7q8 -75 10 -133l-6 -1q-34 63 -64 93q-28 28 -59 28q-42 0 -66.5 -40.5t-24.5 -120.5q0 -75 25 -125.5t68 -50.5q30 0 56 26q39 39 77 112l5 -2q-2 -34 -7.5 -74.5t-8.5 -44.5
q-68 -31 -126 -31q-89 0 -147.5 47.5t-58.5 131.5q0 80 58 133t153 53z" />
    <glyph glyph-name="ordfeminine" unicode="&#xaa;" horiz-adv-x="412" 
d="M168 621q-18 0 -32 -6l23 -80q-32 -17 -75 -17q-46 0 -46 29q0 34 70.5 81.5t134.5 47.5q53 0 80 -27q25 -25 25 -81v-173q0 -43 28 -43q12 0 24 9l4 -4q-39 -54 -103 -54q-61 0 -82 52h-1l-12 -9q-30 -22 -49 -31.5t-44 -9.5q-35 0 -56.5 23.5t-21.5 56.5q0 27 19 47
t78 39l86 27v31q0 64 -15 79q-13 13 -35 13zM218 364v124q-33 -15 -46 -30.5t-13 -43.5q0 -27 10.5 -41.5t27.5 -14.5q11 0 21 6z" />
    <glyph glyph-name="guillemotleft" unicode="&#xab;" horiz-adv-x="563" 
d="M180 251l144 -192l-4 -4l-303 194v4l303 194l4 -4zM393 251l134 -192l-4 -4l-293 194v4l293 194l4 -4z" />
    <glyph glyph-name="registered" unicode="&#xae;" horiz-adv-x="474" 
d="M237 292q-83 0 -139 56.5t-56 139.5t56 139.5t139 56.5t139 -56.5t56 -139.5t-56 -139.5t-139 -56.5zM237 309q77 0 126.5 50.5t49.5 128.5t-49.5 128.5t-126.5 50.5t-126.5 -50.5t-49.5 -128.5t49.5 -128.5t126.5 -50.5zM133 393v4l9 3q13 4 14 10q2 10 2 31v109
q0 19 -2 29q-1 8 -13 11l-10 3v5q25 -1 89 -1q112 0 112 -54q0 -33 -42 -48q31 -62 54 -85q6 -6 20 -13v-4q-1 0 -29 -1t-32 -1q-14 0 -21 6t-16 23l-32 59q-2 5 -11 5h-4v-43q0 -21 2 -31q1 -6 14 -10l9 -3v-4h-113zM222 588q-1 -7 -1 -33v-64q46 0 46 48q0 49 -45 49z" />
    <glyph glyph-name="macron" unicode="&#xaf;" horiz-adv-x="499" 
d="M425 544h-351v76h351v-76z" />
    <glyph glyph-name="degree" unicode="&#xb0;" horiz-adv-x="369" 
d="M319 529q0 -55 -39 -93.5t-95 -38.5t-95.5 38.5t-39.5 93.5q0 56 39.5 94.5t95.5 38.5t95 -38.5t39 -94.5zM294 529q0 46 -32 78.5t-77 32.5q-46 0 -77.5 -32t-31.5 -79q0 -46 32 -78.5t77 -32.5q46 0 77.5 32t31.5 79z" />
    <glyph glyph-name="acute" unicode="&#xb4;" 
d="M371 712q0 -46 -54 -76l-87 -48l-107 -60l-4 3q27 57 45 96l36 82q1 1 6 13.5t6.5 15t7 13t9 14t10 10.5t13 9.5t15 5t18.5 2.5q35 0 60.5 -25t25.5 -55z" />
    <glyph glyph-name="periodcentered" unicode="&#xb7;" horiz-adv-x="266" 
d="M232 252q0 -38 -28 -66.5t-70 -28.5t-71 27.5t-29 65.5q0 36 29 65t73 29q39 0 67.5 -28t28.5 -64z" />
    <glyph glyph-name="cedilla" unicode="&#xb8;" 
d="M283 -215q0 28 -28.5 45.5t-109.5 21.5v3l115 135h22l-45 -53q82 -11 115 -41.5t33 -67.5q0 -56 -49 -90t-125 -34q-51 0 -96 17l2 11q37 -10 71 -10q46 0 70.5 16.5t24.5 46.5z" />
    <glyph glyph-name="ordmasculine" unicode="&#xba;" horiz-adv-x="449" 
d="M228 676q87 0 139 -54t52 -129q0 -78 -51 -131q-60 -58 -146 -58q-87 0 -139 54.5t-52 129.5q0 80 52 130q56 58 145 58zM230 322q19 0 30 23q20 39 20 133q0 74 -15.5 127.5t-45.5 53.5q-19 0 -30 -23q-20 -40 -20 -134q0 -73 16 -126.5t45 -53.5z" />
    <glyph glyph-name="guillemotright" unicode="&#xbb;" horiz-adv-x="563" 
d="M383 251l-144 192l4 4l303 -194v-4l-303 -194l-4 4zM170 251l-134 192l4 4l293 -194v-4l-293 -194l-4 4z" />
    <glyph glyph-name="questiondown" unicode="&#xbf;" horiz-adv-x="417" 
d="M28 227q0 63 27.5 93t89.5 47l111 30q13 4 17.5 11t5.5 31l1 14h9l10 -47q20 -93 20 -118q0 -21 -11 -32t-43 -22l-101 -29q-62 -21 -62 -63q0 -30 20.5 -68.5t38.5 -38.5q8 0 39 29l76 70q30 27 52 27q24 0 42.5 -23t18.5 -60t-30 -65.5t-78 -28.5q-106 0 -179.5 72
t-73.5 171zM173 587q0 37 27.5 65t68.5 28t69.5 -26.5t28.5 -64.5q0 -35 -28 -63t-72 -28q-38 0 -66 27t-28 62z" />
    <glyph glyph-name="Agrave" unicode="&#xc0;" horiz-adv-x="689" 
d="M224 6v-6h-261v6l37 17q40 18 60 42.5t45 87.5l165 404q-11 27 -24 48v1q105 34 164 96h2l198 -602q17 -50 31 -65.5t44 -20.5l31 -5v-9h-361v9l31 4q45 6 45 28q0 12 -7 35l-50 157h-192l-9 -29q-38 -112 -38 -138q0 -13 10 -21t40 -22zM146 869q0 33 23 59.5t58 26.5
q19 0 37.5 -12.5t26.5 -22t23 -31.5l53 -73q32 -45 64 -84l-4 -4l-118 37l-92 27q-71 20 -71 77zM280 527l-89 -268h174z" />
    <glyph glyph-name="Aacute" unicode="&#xc1;" horiz-adv-x="689" 
d="M224 6v-6h-261v6l37 17q40 18 60 42.5t45 87.5l165 404q-11 27 -24 48v1q105 34 164 96h2l198 -602q17 -50 31 -65.5t44 -20.5l31 -5v-9h-361v9l31 4q45 6 45 28q0 12 -7 35l-50 157h-192l-9 -29q-38 -112 -38 -138q0 -13 10 -21t40 -22zM574 869q0 -57 -71 -77l-92 -27
l-118 -37l-4 4q32 39 64 84l53 73q15 22 23 31.5t26.5 22t37.5 12.5q35 0 58 -26.5t23 -59.5zM280 527l-89 -268h174z" />
    <glyph glyph-name="Acircumflex" unicode="&#xc2;" horiz-adv-x="689" 
d="M224 6v-6h-261v6l37 17q40 18 60 42.5t45 87.5l165 404q-11 27 -24 48v1q105 34 164 96h2l198 -602q17 -50 31 -65.5t44 -20.5l31 -5v-9h-361v9l31 4q45 6 45 28q0 12 -7 35l-50 157h-192l-9 -29q-38 -112 -38 -138q0 -13 10 -21t40 -22zM358 804l-190 -76l-3 3l192 235
h6l192 -235l-4 -3zM280 527l-89 -268h174z" />
    <glyph glyph-name="Atilde" unicode="&#xc3;" horiz-adv-x="689" 
d="M224 6v-6h-261v6l37 17q40 18 60 42.5t45 87.5l165 404q-11 27 -24 48v1q105 34 164 96h2l198 -602q17 -50 31 -65.5t44 -20.5l31 -5v-9h-361v9l31 4q45 6 45 28q0 12 -7 35l-50 157h-192l-9 -29q-38 -112 -38 -138q0 -13 10 -21t40 -22zM436 736q-25 0 -104 38
q-70 34 -89 34q-36 0 -74 -80l-6 2q33 207 121 207q25 0 104 -38q70 -34 89 -34q38 0 74 80l6 -2q-33 -207 -121 -207zM280 527l-89 -268h174z" />
    <glyph glyph-name="Adieresis" unicode="&#xc4;" horiz-adv-x="689" 
d="M224 6v-6h-261v6l37 17q40 18 60 42.5t45 87.5l165 404q-11 27 -24 48v1q105 34 164 96h2l198 -602q17 -50 31 -65.5t44 -20.5l31 -5v-9h-361v9l31 4q45 6 45 28q0 12 -7 35l-50 157h-192l-9 -29q-38 -112 -38 -138q0 -13 10 -21t40 -22zM280 527l-89 -268h174zM346 810
q0 -34 -24 -58t-61 -24q-34 0 -58 23.5t-24 56.5t26 58t64 25q33 0 55 -24.5t22 -56.5zM542 811q0 -33 -26 -58t-64 -25q-33 0 -55 24.5t-22 56.5q0 34 24 58t61 24q34 0 58 -23.5t24 -56.5z" />
    <glyph glyph-name="Aring" unicode="&#xc5;" horiz-adv-x="689" 
d="M253 682q0 42 30 72t73 30t73 -30t30 -72q0 -33 -20 -61l171 -520q16 -49 30 -63.5t44 -20.5l32 -5v-12h-361v12l32 4q44 6 44 29q0 9 -7 32l-50 156h-191l-10 -29q-38 -112 -38 -138q0 -13 9.5 -21.5t39.5 -20.5l40 -16v-8h-261v8l38 16q40 17 59 40.5t45 88.5l182 452
q-34 31 -34 77zM281 525l-90 -266h175l-56 175zM435 682q0 34 -23 57t-56 23t-56 -23t-23 -57t23 -57.5t56 -23.5t56 23.5t23 57.5z" />
    <glyph glyph-name="AE" unicode="&#xc6;" horiz-adv-x="958" 
d="M336 668h567l-8 -216l-7 -2q-52 111 -81 140q-39 39 -138 51l-62 7v-300l49 4q58 5 82 29q25 25 42 60l18 36l7 -2l-8 -271h-7l-17 36q-20 43 -40 63q-21 21 -77 25l-49 3v-187q0 -82 5 -102q4 -14 12.5 -18.5t27.5 -4.5q25 0 67 11t61 21q25 12 47 34q11 11 102 138
l7 -4l-41 -219h-559v9l30 5q27 4 35 10t12 21q7 28 7 109v79h-205l-16 -29q-68 -123 -68 -142q0 -10 9.5 -17t40.5 -22l36 -17v-6h-261v6l35 17q37 18 60.5 43.5t61.5 86.5l298 476q-4 11 -12.5 15.5t-32.5 9.5l-30 5v9zM420 513q0 41 -4 85l-187 -339h191v254z" />
    <glyph glyph-name="AE" unicode="&#x1fc;" horiz-adv-x="958" 
d="M336 668h567l-8 -216l-7 -2q-52 111 -81 140q-39 39 -138 51l-62 7v-300l49 4q58 5 82 29q25 25 42 60l18 36l7 -2l-8 -271h-7l-17 36q-20 43 -40 63q-21 21 -77 25l-49 3v-187q0 -82 5 -102q4 -14 12.5 -18.5t27.5 -4.5q25 0 67 11t61 21q25 12 47 34q11 11 102 138
l7 -4l-41 -219h-559v9l30 5q27 4 35 10t12 21q7 28 7 109v79h-205l-16 -29q-68 -123 -68 -142q0 -10 9.5 -17t40.5 -22l36 -17v-6h-261v6l35 17q37 18 60.5 43.5t61.5 86.5l298 476q-4 11 -12.5 15.5t-32.5 9.5l-30 5v9zM420 513q0 41 -4 85l-187 -339h191v254z" />
    <glyph glyph-name="Ccedilla" unicode="&#xc7;" horiz-adv-x="692" 
d="M399 -215q0 28 -28.5 45.5t-109.5 21.5v3l111 131q-156 5 -250 95t-94 246q0 155 98.5 256t272.5 101q41 0 110 -12.5t72 -12.5q9 0 18 13l8 12h6q15 -129 19 -256l-8 -1q-79 139 -130 190q-49 49 -102 49q-70 0 -117 -80t-47 -236q0 -150 47 -248t125 -98q48 0 104 56
q63 63 142 215l7 -4q-3 -54 -13.5 -135t-15.5 -91q-120 -57 -230 -59l-41 -49q82 -11 115 -41.5t33 -67.5q0 -56 -49 -90t-125 -34q-51 0 -96 17l2 11q37 -10 71 -10q46 0 70.5 16.5t24.5 46.5z" />
    <glyph glyph-name="Egrave" unicode="&#xc8;" horiz-adv-x="636" 
d="M14 668h567l-4 -216l-7 -2q-60 116 -86 142q-37 37 -137 49l-62 7v-299l41 3q58 5 82 29q25 25 42 60l18 36l7 -2l-8 -271h-7l-17 36q-20 43 -40 63q-21 21 -77 25l-41 3v-187q0 -82 5 -102q4 -14 12.5 -18.5t27.5 -4.5q25 0 67 11t61 21q25 12 47 34q11 11 102 138l7 -4
l-41 -219h-559v9l30 5q27 4 35 10t12 21q7 28 7 109v359q0 82 -7 110q-4 15 -12 21t-35 10l-30 5v9zM121 869q0 33 23 59.5t58 26.5q19 0 37.5 -12.5t26.5 -22t23 -31.5l53 -73q32 -45 64 -84l-4 -4l-118 37l-92 27q-71 20 -71 77z" />
    <glyph glyph-name="Eacute" unicode="&#xc9;" horiz-adv-x="636" 
d="M14 668h567l-4 -216l-7 -2q-60 116 -86 142q-37 37 -137 49l-62 7v-299l41 3q58 5 82 29q25 25 42 60l18 36l7 -2l-8 -271h-7l-17 36q-20 43 -40 63q-21 21 -77 25l-41 3v-187q0 -82 5 -102q4 -14 12.5 -18.5t27.5 -4.5q25 0 67 11t61 21q25 12 47 34q11 11 102 138l7 -4
l-41 -219h-559v9l30 5q27 4 35 10t12 21q7 28 7 109v359q0 82 -7 110q-4 15 -12 21t-35 10l-30 5v9zM549 869q0 -57 -71 -77l-92 -27l-118 -37l-4 4q32 39 64 84l53 73q15 22 23 31.5t26.5 22t37.5 12.5q35 0 58 -26.5t23 -59.5z" />
    <glyph glyph-name="Ecircumflex" unicode="&#xca;" horiz-adv-x="636" 
d="M14 668h567l-4 -216l-7 -2q-60 116 -86 142q-37 37 -137 49l-62 7v-299l41 3q58 5 82 29q25 25 42 60l18 36l7 -2l-8 -271h-7l-17 36q-20 43 -40 63q-21 21 -77 25l-41 3v-187q0 -82 5 -102q4 -14 12.5 -18.5t27.5 -4.5q25 0 67 11t61 21q25 12 47 34q11 11 102 138l7 -4
l-41 -219h-559v9l30 5q27 4 35 10t12 21q7 28 7 109v359q0 82 -7 110q-4 15 -12 21t-35 10l-30 5v9zM333 804l-190 -76l-3 3l192 235h6l192 -235l-4 -3z" />
    <glyph glyph-name="Edieresis" unicode="&#xcb;" horiz-adv-x="636" 
d="M14 668h567l-4 -216l-7 -2q-60 116 -86 142q-37 37 -137 49l-62 7v-299l41 3q58 5 82 29q25 25 42 60l18 36l7 -2l-8 -271h-7l-17 36q-20 43 -40 63q-21 21 -77 25l-41 3v-187q0 -82 5 -102q4 -14 12.5 -18.5t27.5 -4.5q25 0 67 11t61 21q25 12 47 34q11 11 102 138l7 -4
l-41 -219h-559v9l30 5q27 4 35 10t12 21q7 28 7 109v359q0 82 -7 110q-4 15 -12 21t-35 10l-30 5v9zM321 810q0 -34 -24 -58t-61 -24q-34 0 -58 23.5t-24 56.5t26 58t64 25q33 0 55 -24.5t22 -56.5zM517 811q0 -33 -26 -58t-64 -25q-33 0 -55 24.5t-22 56.5q0 34 24 58
t61 24q34 0 58 -23.5t24 -56.5z" />
    <glyph glyph-name="Igrave" unicode="&#xcc;" horiz-adv-x="393" 
d="M19 668h355v-9l-30 -5q-27 -4 -35 -10t-12 -21q-7 -28 -7 -109v-360q0 -81 7 -109q4 -15 12 -21t35 -10l30 -5v-9h-355v9l30 5q27 4 35 10t12 21q7 28 7 109v360q0 81 -7 109q-4 15 -12 21t-35 10l-30 5v9zM-17 869q0 33 23 59.5t58 26.5q19 0 37.5 -12.5t26.5 -22
t23 -31.5l53 -73q32 -45 64 -84l-4 -4l-118 37l-92 27q-71 20 -71 77z" />
    <glyph glyph-name="Iacute" unicode="&#xcd;" horiz-adv-x="393" 
d="M19 668h355v-9l-30 -5q-27 -4 -35 -10t-12 -21q-7 -28 -7 -109v-360q0 -81 7 -109q4 -15 12 -21t35 -10l30 -5v-9h-355v9l30 5q27 4 35 10t12 21q7 28 7 109v360q0 81 -7 109q-4 15 -12 21t-35 10l-30 5v9zM411 869q0 -57 -71 -77l-92 -27l-118 -37l-4 4q32 39 64 84
l53 73q15 22 23 31.5t26.5 22t37.5 12.5q35 0 58 -26.5t23 -59.5z" />
    <glyph glyph-name="Icircumflex" unicode="&#xce;" horiz-adv-x="393" 
d="M19 668h355v-9l-30 -5q-27 -4 -35 -10t-12 -21q-7 -28 -7 -109v-360q0 -81 7 -109q4 -15 12 -21t35 -10l30 -5v-9h-355v9l30 5q27 4 35 10t12 21q7 28 7 109v360q0 81 -7 109q-4 15 -12 21t-35 10l-30 5v9zM195 804l-190 -76l-3 3l192 235h6l192 -235l-4 -3z" />
    <glyph glyph-name="Idieresis" unicode="&#xcf;" horiz-adv-x="393" 
d="M19 668h355v-9l-30 -5q-27 -4 -35 -10t-12 -21q-7 -28 -7 -109v-360q0 -81 7 -109q4 -15 12 -21t35 -10l30 -5v-9h-355v9l30 5q27 4 35 10t12 21q7 28 7 109v360q0 81 -7 109q-4 15 -12 21t-35 10l-30 5v9zM183 810q0 -34 -24 -58t-61 -24q-34 0 -58 23.5t-24 56.5t26 58
t64 25q33 0 55 -24.5t22 -56.5zM379 811q0 -33 -26 -58t-64 -25q-33 0 -55 24.5t-22 56.5q0 34 24 58t61 24q34 0 58 -23.5t24 -56.5z" />
    <glyph glyph-name="Eth" unicode="&#xd0;" horiz-adv-x="756" 
d="M730 339q0 -60 -23 -118t-70.5 -110.5t-132.5 -84.5t-196 -32q-43 0 -122 3t-172 3v12l31 5q27 5 34.5 9.5t11.5 19.5q7 28 7 109v181h-75v20h75v157q0 81 -7 109q-4 15 -11.5 19.5t-34.5 9.5l-31 5v12h308q195 0 301.5 -83.5t106.5 -245.5zM286 648q-2 -13 -2 -80v-212
h102v-20h-102v-196q0 -84 5 -104q3 -10 9.5 -14.5t24.5 -4.5h2q82 0 129 47q80 80 80 257q0 117 -36 195.5t-100 110.5q-42 21 -112 21z" />
    <glyph glyph-name="Ntilde" unicode="&#xd1;" horiz-adv-x="755" 
d="M251 668l372 -415h1l-12 274q-2 52 -15.5 76.5t-51.5 40.5l-42 18v6h264v-6l-42 -18q-38 -16 -51.5 -40.5t-15.5 -76.5l-25 -543h-23l-461 527l14 -380q2 -49 14.5 -70t50.5 -37l42 -18v-6h-264v6l42 18q38 16 50.5 37t14.5 70l15 404l-49 56q-31 35 -45.5 46t-38.5 21
l-5 2v8h261zM490 736q-25 0 -104 38q-70 34 -89 34q-36 0 -74 -80l-6 2q33 207 121 207q25 0 104 -38q70 -34 89 -34q38 0 74 80l6 -2q-33 -207 -121 -207z" />
    <glyph glyph-name="Ograve" unicode="&#xd2;" horiz-adv-x="753" 
d="M377 684q151 0 249.5 -93.5t98.5 -249.5q0 -147 -95.5 -252t-253.5 -105q-151 0 -249.5 93.5t-98.5 249.5q0 147 95.5 252t253.5 105zM361 666q-65 0 -99 -85t-34 -221q0 -156 44.5 -257t119.5 -101q65 0 99 85t34 221q0 156 -44.5 257t-119.5 101zM163 869q0 33 23 59.5
t58 26.5q19 0 37.5 -12.5t26.5 -22t23 -31.5l53 -73q32 -45 64 -84l-4 -4l-118 37l-92 27q-71 20 -71 77z" />
    <glyph glyph-name="Oacute" unicode="&#xd3;" horiz-adv-x="753" 
d="M377 684q151 0 249.5 -93.5t98.5 -249.5q0 -147 -95.5 -252t-253.5 -105q-151 0 -249.5 93.5t-98.5 249.5q0 147 95.5 252t253.5 105zM361 666q-65 0 -99 -85t-34 -221q0 -156 44.5 -257t119.5 -101q65 0 99 85t34 221q0 156 -44.5 257t-119.5 101zM591 869
q0 -57 -71 -77l-92 -27l-118 -37l-4 4q32 39 64 84l53 73q15 22 23 31.5t26.5 22t37.5 12.5q35 0 58 -26.5t23 -59.5z" />
    <glyph glyph-name="Ocircumflex" unicode="&#xd4;" horiz-adv-x="753" 
d="M377 684q151 0 249.5 -93.5t98.5 -249.5q0 -147 -95.5 -252t-253.5 -105q-151 0 -249.5 93.5t-98.5 249.5q0 147 95.5 252t253.5 105zM361 666q-65 0 -99 -85t-34 -221q0 -156 44.5 -257t119.5 -101q65 0 99 85t34 221q0 156 -44.5 257t-119.5 101zM375 804l-190 -76
l-3 3l192 235h6l192 -235l-4 -3z" />
    <glyph glyph-name="Otilde" unicode="&#xd5;" horiz-adv-x="753" 
d="M377 684q151 0 249.5 -93.5t98.5 -249.5q0 -147 -95.5 -252t-253.5 -105q-151 0 -249.5 93.5t-98.5 249.5q0 147 95.5 252t253.5 105zM361 666q-65 0 -99 -85t-34 -221q0 -156 44.5 -257t119.5 -101q65 0 99 85t34 221q0 156 -44.5 257t-119.5 101zM453 736
q-25 0 -104 38q-70 34 -89 34q-36 0 -74 -80l-6 2q33 207 121 207q25 0 104 -38q70 -34 89 -34q38 0 74 80l6 -2q-33 -207 -121 -207z" />
    <glyph glyph-name="Odieresis" unicode="&#xd6;" horiz-adv-x="753" 
d="M377 684q151 0 249.5 -93.5t98.5 -249.5q0 -147 -95.5 -252t-253.5 -105q-151 0 -249.5 93.5t-98.5 249.5q0 147 95.5 252t253.5 105zM361 666q-65 0 -99 -85t-34 -221q0 -156 44.5 -257t119.5 -101q65 0 99 85t34 221q0 156 -44.5 257t-119.5 101zM363 810
q0 -34 -24 -58t-61 -24q-34 0 -58 23.5t-24 56.5t26 58t64 25q33 0 55 -24.5t22 -56.5zM559 811q0 -33 -26 -58t-64 -25q-33 0 -55 24.5t-22 56.5q0 34 24 58t61 24q34 0 58 -23.5t24 -56.5z" />
    <glyph glyph-name="Oslash" unicode="&#xd8;" horiz-adv-x="753" 
d="M377 684q124 0 214 -65l63 78l16 -13l-62 -77q117 -96 117 -266q0 -147 -95.5 -252t-253.5 -105q-125 0 -216 65l-63 -79l-16 13l63 78q-116 95 -116 266q0 147 95.5 252t253.5 105zM525 308q0 101 -21 188l-248 -350q21 -68 56 -106t80 -38q65 0 99 85t34 221zM361 666
q-65 0 -99 -85t-34 -221q0 -104 20 -187l248 349q-21 68 -55.5 106t-79.5 38z" />
    <glyph glyph-name="Ugrave" unicode="&#xd9;" horiz-adv-x="719" 
d="M372 -16q-127 0 -203.5 58t-76.5 183v289q0 81 -7 109q-4 15 -12 21t-35 10l-30 5v9h369v-9l-37 -5q-29 -4 -39.5 -10t-14.5 -21q-7 -28 -7 -109v-300q0 -168 151 -168q74 0 118 41.5t44 127.5q0 78 -2 150l-4 177q-1 48 -17 67.5t-52 34.5l-42 18v6h264v-6l-34 -18
q-26 -14 -36 -21t-21 -27.5t-12 -53.5l-16 -336q-5 -111 -70.5 -166.5t-177.5 -55.5zM191 869q0 33 23 59.5t58 26.5q19 0 37.5 -12.5t26.5 -22t23 -31.5l53 -73q32 -45 64 -84l-4 -4l-118 37l-92 27q-71 20 -71 77z" />
    <glyph glyph-name="Uacute" unicode="&#xda;" horiz-adv-x="719" 
d="M372 -16q-127 0 -203.5 58t-76.5 183v289q0 81 -7 109q-4 15 -12 21t-35 10l-30 5v9h369v-9l-37 -5q-29 -4 -39.5 -10t-14.5 -21q-7 -28 -7 -109v-300q0 -168 151 -168q74 0 118 41.5t44 127.5q0 78 -2 150l-4 177q-1 48 -17 67.5t-52 34.5l-42 18v6h264v-6l-34 -18
q-26 -14 -36 -21t-21 -27.5t-12 -53.5l-16 -336q-5 -111 -70.5 -166.5t-177.5 -55.5zM619 869q0 -57 -71 -77l-92 -27l-118 -37l-4 4q32 39 64 84l53 73q15 22 23 31.5t26.5 22t37.5 12.5q35 0 58 -26.5t23 -59.5z" />
    <glyph glyph-name="Ucircumflex" unicode="&#xdb;" horiz-adv-x="719" 
d="M372 -16q-127 0 -203.5 58t-76.5 183v289q0 81 -7 109q-4 15 -12 21t-35 10l-30 5v9h369v-9l-37 -5q-29 -4 -39.5 -10t-14.5 -21q-7 -28 -7 -109v-300q0 -168 151 -168q74 0 118 41.5t44 127.5q0 78 -2 150l-4 177q-1 48 -17 67.5t-52 34.5l-42 18v6h264v-6l-34 -18
q-26 -14 -36 -21t-21 -27.5t-12 -53.5l-16 -336q-5 -111 -70.5 -166.5t-177.5 -55.5zM403 804l-190 -76l-3 3l192 235h6l192 -235l-4 -3z" />
    <glyph glyph-name="Udieresis" unicode="&#xdc;" horiz-adv-x="719" 
d="M372 -16q-127 0 -203.5 58t-76.5 183v289q0 81 -7 109q-4 15 -12 21t-35 10l-30 5v9h369v-9l-37 -5q-29 -4 -39.5 -10t-14.5 -21q-7 -28 -7 -109v-300q0 -168 151 -168q74 0 118 41.5t44 127.5q0 78 -2 150l-4 177q-1 48 -17 67.5t-52 34.5l-42 18v6h264v-6l-34 -18
q-26 -14 -36 -21t-21 -27.5t-12 -53.5l-16 -336q-5 -111 -70.5 -166.5t-177.5 -55.5zM391 810q0 -34 -24 -58t-61 -24q-34 0 -58 23.5t-24 56.5t26 58t64 25q33 0 55 -24.5t22 -56.5zM587 811q0 -33 -26 -58t-64 -25q-33 0 -55 24.5t-22 56.5q0 34 24 58t61 24
q34 0 58 -23.5t24 -56.5z" />
    <glyph glyph-name="Yacute" unicode="&#xdd;" horiz-adv-x="673" 
d="M535 609q0 9 -9 15.5t-41 20.5l-39 17v6h261v-6l-34 -16q-36 -17 -56.5 -38t-50.5 -76l-130 -235v-143q0 -81 7 -109q4 -15 12 -21t35 -10l30 -5v-9h-355v9l30 5q27 4 35 10t12 21q7 28 7 109v35q0 64 -25 114l-135 264q-27 52 -39.5 65t-41.5 20l-32 7v9h389v-9l-32 -6
q-24 -4 -33 -9.5t-9 -15.5t20 -55l110 -251h1l76 176q37 86 37 111zM604 869q0 -57 -71 -77l-92 -27l-118 -37l-4 4q32 39 64 84l53 73q15 22 23 31.5t26.5 22t37.5 12.5q35 0 58 -26.5t23 -59.5z" />
    <glyph glyph-name="Thorn" unicode="&#xde;" horiz-adv-x="650" 
d="M644 351q0 -88 -90 -142t-232 -53v8q132 29 132 191q0 74 -42 120t-127 50v-11v-360q0 -81 7 -109q4 -15 12 -21t35 -10l30 -5v-9h-355v9l30 5q27 4 35 10t12 21q7 28 7 109v360q0 81 -7 109q-4 15 -12 21t-35 10l-30 5v9h355v-9l-30 -5q-27 -4 -35 -10t-12 -21
q-5 -23 -7 -81h4q355 0 355 -191z" />
    <glyph glyph-name="germandbls" unicode="&#xdf;" horiz-adv-x="638" 
d="M421 418q0 -12 39 -40q4 -2 6 -4q48 -34 68.5 -50t47 -43t36.5 -53.5t10 -60.5q0 -73 -60.5 -128t-147.5 -55q-62 0 -100 24t-38 62q0 30 23 48t57 18q18 0 39.5 -8t21.5 -25q0 -11 -6 -35l-8 -37q-6 -25 -6 -29q0 -3 5 -3q34 0 64.5 28t30.5 68q0 35 -25 61.5t-99 80.5
q-49 35 -65 52t-16 36q0 16 15 31t74 61q29 23 38.5 42.5t9.5 45.5q0 36 -16.5 83t-45.5 76q-25 25 -46 25q-36 0 -61 -53.5t-25 -170.5v-429q0 -11 2.5 -15.5t12.5 -6.5l19 -5v-9h-250v9l16 3q18 4 22.5 8.5t4.5 16.5v352h-73v5l73 68l3 25q12 104 89.5 161.5t195.5 57.5
q107 0 165 -41.5t58 -94.5q0 -33 -16 -55.5t-65 -46.5q-48 -24 -62.5 -33t-14.5 -17z" />
    <glyph glyph-name="agrave" unicode="&#xe0;" horiz-adv-x="490" 
d="M193 414q-23 0 -41 -9l30 -103q-44 -23 -100 -23q-58 0 -58 37q0 24 39 63q40 40 103 73.5t119 33.5q75 0 110 -35q33 -33 33 -109v-228q0 -37 15 -52q10 -10 26 -10q15 0 32 11l4 -4q-21 -27 -56.5 -50.5t-79.5 -23.5q-81 0 -108 71l-3 1l-14 -12q-36 -30 -62 -43
t-59 -13q-47 0 -75.5 30.5t-28.5 72.5q0 35 22 57q28 28 136 64l82 27v50q0 88 -21 108q-15 16 -45 16zM84 712q0 30 25.5 55t60.5 25q10 0 18.5 -2.5t15 -5t13 -9.5t10 -10.5t9 -14t7 -13t6.5 -15t6 -13.5l36 -82q18 -39 45 -96l-4 -3l-107 60l-87 48q-54 30 -54 76z
M259 68v161q-42 -23 -56 -37q-21 -21 -21 -58q0 -35 14 -54.5t35 -19.5q15 0 28 8z" />
    <glyph glyph-name="aacute" unicode="&#xe1;" horiz-adv-x="490" 
d="M193 414q-23 0 -41 -9l30 -103q-44 -23 -100 -23q-58 0 -58 37q0 24 39 63q40 40 103 73.5t119 33.5q75 0 110 -35q33 -33 33 -109v-228q0 -37 15 -52q10 -10 26 -10q15 0 32 11l4 -4q-21 -27 -56.5 -50.5t-79.5 -23.5q-81 0 -108 71l-3 1l-14 -12q-36 -30 -62 -43
t-59 -13q-47 0 -75.5 30.5t-28.5 72.5q0 35 22 57q28 28 136 64l82 27v50q0 88 -21 108q-15 16 -45 16zM446 712q0 -46 -54 -76l-87 -48l-107 -60l-4 3q27 57 45 96l36 82q1 1 6 13.5t6.5 15t7 13t9 14t10 10.5t13 9.5t15 5t18.5 2.5q35 0 60.5 -25t25.5 -55zM259 68v161
q-42 -23 -56 -37q-21 -21 -21 -58q0 -35 14 -54.5t35 -19.5q15 0 28 8z" />
    <glyph glyph-name="acircumflex" unicode="&#xe2;" horiz-adv-x="490" 
d="M193 414q-23 0 -41 -9l30 -103q-44 -23 -100 -23q-58 0 -58 37q0 24 39 63q40 40 103 73.5t119 33.5q75 0 110 -35q33 -33 33 -109v-228q0 -37 15 -52q10 -10 26 -10q15 0 32 11l4 -4q-21 -27 -56.5 -50.5t-79.5 -23.5q-81 0 -108 71l-3 1l-14 -12q-36 -30 -62 -43
t-59 -13q-47 0 -75.5 30.5t-28.5 72.5q0 35 22 57q28 28 136 64l82 27v50q0 88 -21 108q-15 16 -45 16zM259 68v161q-42 -23 -56 -37q-21 -21 -21 -58q0 -35 14 -54.5t35 -19.5q15 0 28 8zM263 624l-165 -96l-4 3l168 265h6l168 -265l-5 -3z" />
    <glyph glyph-name="atilde" unicode="&#xe3;" horiz-adv-x="490" 
d="M193 414q-23 0 -41 -9l30 -103q-44 -23 -100 -23q-58 0 -58 37q0 24 39 63q40 40 103 73.5t119 33.5q75 0 110 -35q33 -33 33 -109v-228q0 -37 15 -52q10 -10 26 -10q15 0 32 11l4 -4q-21 -27 -56.5 -50.5t-79.5 -23.5q-81 0 -108 71l-3 1l-14 -12q-36 -30 -62 -43
t-59 -13q-47 0 -75.5 30.5t-28.5 72.5q0 35 22 57q28 28 136 64l82 27v50q0 88 -21 108q-15 16 -45 16zM259 68v161q-42 -23 -56 -37q-21 -21 -21 -58q0 -35 14 -54.5t35 -19.5q15 0 28 8zM296 695q58 -34 77 -34q35 0 73 84l6 -2q-27 -208 -118 -208q-13 0 -31 7t-28 12.5
t-41 23.5q-58 34 -77 34q-35 0 -73 -84l-6 2q27 208 118 208q13 0 31 -7t28 -12.5t41 -23.5z" />
    <glyph glyph-name="adieresis" unicode="&#xe4;" horiz-adv-x="490" 
d="M193 414q-23 0 -41 -9l30 -103q-44 -23 -100 -23q-58 0 -58 37q0 24 39 63q40 40 103 73.5t119 33.5q75 0 110 -35q33 -33 33 -109v-228q0 -37 15 -52q10 -10 26 -10q15 0 32 11l4 -4q-21 -27 -56.5 -50.5t-79.5 -23.5q-81 0 -108 71l-3 1l-14 -12q-36 -30 -62 -43
t-59 -13q-47 0 -75.5 30.5t-28.5 72.5q0 35 22 57q28 28 136 64l82 27v50q0 88 -21 108q-15 16 -45 16zM259 68v161q-42 -23 -56 -37q-21 -21 -21 -58q0 -35 14 -54.5t35 -19.5q15 0 28 8zM255 610q0 -34 -24 -58t-61 -24q-34 0 -58 23.5t-24 56.5t26 58t64 25
q33 0 55 -24.5t22 -56.5zM444 611q0 -33 -26 -58t-64 -25q-33 0 -55 24.5t-22 56.5q0 34 24 58t61 24q34 0 58 -23.5t24 -56.5z" />
    <glyph glyph-name="aring" unicode="&#xe5;" horiz-adv-x="490" 
d="M193 414q-23 0 -41 -9l30 -103q-44 -23 -100 -23q-58 0 -58 37q0 24 39 63q40 40 103 73.5t119 33.5q75 0 110 -35q33 -33 33 -109v-228q0 -37 15 -52q10 -10 26 -10q15 0 32 11l4 -4q-21 -27 -56.5 -50.5t-79.5 -23.5q-81 0 -108 71l-3 1l-14 -12q-36 -30 -62 -43
t-59 -13q-47 0 -75.5 30.5t-28.5 72.5q0 35 22 57q28 28 136 64l82 27v50q0 88 -21 108q-15 16 -45 16zM259 68v161q-42 -23 -56 -37q-21 -21 -21 -58q0 -35 14 -54.5t35 -19.5q15 0 28 8zM368 631q0 -43 -30 -73t-73 -30t-73 30t-30 73q0 42 30 72t73 30t73 -30t30 -72z
M344 631q0 34 -23 57t-56 23t-56 -23t-23 -57t23 -57.5t56 -23.5t56 23.5t23 57.5z" />
    <glyph glyph-name="ae" unicode="&#xe6;" horiz-adv-x="713" 
d="M259 240v50q0 88 -21 108q-15 16 -45 16q-23 0 -41 -9l30 -103q-44 -23 -100 -23q-58 0 -58 37q0 24 39 63q40 40 103 73.5t119 33.5q66 0 90 -48q53 42 128 42q91 0 141.5 -42.5t50.5 -109.5q0 -24 -4 -36h-275q1 -97 42.5 -148t119.5 -51q72 0 118 48l6 -5
q-71 -152 -223 -152q-119 0 -180 93q-88 -88 -163 -88q-56 0 -86.5 30.5t-30.5 72.5q0 35 22 57q28 28 136 64zM461 442q-40 -40 -45 -130q125 3 137 10q0 54 -16 93.5t-47 39.5q-16 0 -29 -13zM237 62q25 0 57 23q-35 59 -35 144q-42 -23 -56 -37q-21 -21 -21 -56
q0 -34 16 -54t39 -20z" />
    <glyph glyph-name="ae" unicode="&#x1fd;" horiz-adv-x="713" 
d="M259 240v50q0 88 -21 108q-15 16 -45 16q-23 0 -41 -9l30 -103q-44 -23 -100 -23q-58 0 -58 37q0 24 39 63q40 40 103 73.5t119 33.5q66 0 90 -48q53 42 128 42q91 0 141.5 -42.5t50.5 -109.5q0 -24 -4 -36h-275q1 -97 42.5 -148t119.5 -51q72 0 118 48l6 -5
q-71 -152 -223 -152q-119 0 -180 93q-88 -88 -163 -88q-56 0 -86.5 30.5t-30.5 72.5q0 35 22 57q28 28 136 64zM461 442q-40 -40 -45 -130q125 3 137 10q0 54 -16 93.5t-47 39.5q-16 0 -29 -13zM237 62q25 0 57 23q-35 59 -35 144q-42 -23 -56 -37q-21 -21 -21 -56
q0 -34 16 -54t39 -20z" />
    <glyph glyph-name="ccedilla" unicode="&#xe7;" horiz-adv-x="455" 
d="M336 79q56 0 101 42l3 -4q-58 -121 -181 -132l-41 -48q82 -11 115 -41.5t33 -67.5q0 -56 -49 -90t-125 -34q-51 0 -96 17l2 11q37 -10 71 -10q46 0 70.5 16.5t24.5 46.5q0 28 -28.5 45.5t-109.5 21.5v3l110 129q-100 1 -159.5 68.5t-59.5 166.5q0 107 72.5 184t188.5 77
q74 0 120.5 -28t46.5 -74q0 -34 -24.5 -56t-53.5 -22q-22 0 -38 30l-63 116q-9 15 -18 15q-26 0 -50.5 -48t-24.5 -126q0 -93 44.5 -150.5t118.5 -57.5z" />
    <glyph glyph-name="egrave" unicode="&#xe8;" horiz-adv-x="471" 
d="M261 480q91 0 141.5 -43.5t50.5 -110.5q0 -19 -4 -31h-275q0 -98 42 -150t120 -52q68 0 119 47l4 -3q-72 -153 -222 -153q-99 0 -159.5 67t-60.5 167q0 113 71.5 187.5t172.5 74.5zM74 712q0 30 25.5 55t60.5 25q10 0 18.5 -2.5t15 -5t13 -9.5t10 -10.5t9 -14t7 -13
t6.5 -15t6 -13.5l36 -82q18 -39 45 -96l-4 -3l-107 60l-87 48q-54 30 -54 76zM218 447q-42 -42 -44 -138q116 4 137 11q-1 58 -17 99.5t-45 41.5q-17 0 -31 -14z" />
    <glyph glyph-name="eacute" unicode="&#xe9;" horiz-adv-x="471" 
d="M261 480q91 0 141.5 -43.5t50.5 -110.5q0 -19 -4 -31h-275q0 -98 42 -150t120 -52q68 0 119 47l4 -3q-72 -153 -222 -153q-99 0 -159.5 67t-60.5 167q0 113 71.5 187.5t172.5 74.5zM436 712q0 -46 -54 -76l-87 -48l-107 -60l-4 3q27 57 45 96l36 82q1 1 6 13.5t6.5 15
t7 13t9 14t10 10.5t13 9.5t15 5t18.5 2.5q35 0 60.5 -25t25.5 -55zM218 447q-42 -42 -44 -138q116 4 137 11q-1 58 -17 99.5t-45 41.5q-17 0 -31 -14z" />
    <glyph glyph-name="ecircumflex" unicode="&#xea;" horiz-adv-x="471" 
d="M261 480q91 0 141.5 -43.5t50.5 -110.5q0 -19 -4 -31h-275q0 -98 42 -150t120 -52q68 0 119 47l4 -3q-72 -153 -222 -153q-99 0 -159.5 67t-60.5 167q0 113 71.5 187.5t172.5 74.5zM253 624l-165 -96l-4 3l168 265h6l168 -265l-5 -3zM218 447q-42 -42 -44 -138
q116 4 137 11q-1 58 -17 99.5t-45 41.5q-17 0 -31 -14z" />
    <glyph glyph-name="edieresis" unicode="&#xeb;" horiz-adv-x="471" 
d="M261 480q91 0 141.5 -43.5t50.5 -110.5q0 -19 -4 -31h-275q0 -98 42 -150t120 -52q68 0 119 47l4 -3q-72 -153 -222 -153q-99 0 -159.5 67t-60.5 167q0 113 71.5 187.5t172.5 74.5zM245 610q0 -34 -24 -58t-61 -24q-34 0 -58 23.5t-24 56.5t26 58t64 25q33 0 55 -24.5
t22 -56.5zM434 611q0 -33 -26 -58t-64 -25q-33 0 -55 24.5t-22 56.5q0 34 24 58t61 24q34 0 58 -23.5t24 -56.5zM218 447q-42 -42 -44 -138q116 4 137 11q-1 58 -17 99.5t-45 41.5q-17 0 -31 -14z" />
    <glyph glyph-name="igrave" unicode="&#xec;" horiz-adv-x="280" 
d="M229 395v-358q0 -13 4.5 -17t22.5 -8l16 -3v-9h-259v9l16 3q18 4 22.5 8t4.5 17v309q0 23 -10 37l-28 34v2l212 68l2 -2q-3 -55 -3 -90zM-36 712q0 30 25.5 55t60.5 25q10 0 18.5 -2.5t15 -5t13 -9.5t10 -10.5t9 -14t7 -13t6.5 -15t6 -13.5l36 -82q18 -39 45 -96l-4 -3
l-107 60l-87 48q-54 30 -54 76z" />
    <glyph glyph-name="iacute" unicode="&#xed;" horiz-adv-x="280" 
d="M229 395v-358q0 -13 4.5 -17t22.5 -8l16 -3v-9h-259v9l16 3q18 4 22.5 8t4.5 17v309q0 23 -10 37l-28 34v2l212 68l2 -2q-3 -55 -3 -90zM326 712q0 -46 -54 -76l-87 -48l-107 -60l-4 3q27 57 45 96l36 82q1 1 6 13.5t6.5 15t7 13t9 14t10 10.5t13 9.5t15 5t18.5 2.5
q35 0 60.5 -25t25.5 -55z" />
    <glyph glyph-name="icircumflex" unicode="&#xee;" horiz-adv-x="280" 
d="M229 395v-358q0 -13 4.5 -17t22.5 -8l16 -3v-9h-259v9l16 3q18 4 22.5 8t4.5 17v309q0 23 -10 37l-28 34v2l212 68l2 -2q-3 -55 -3 -90zM143 624l-165 -96l-4 3l168 265h6l168 -265l-5 -3z" />
    <glyph glyph-name="idieresis" unicode="&#xef;" horiz-adv-x="280" 
d="M229 395v-358q0 -13 4.5 -17t22.5 -8l16 -3v-9h-259v9l16 3q18 4 22.5 8t4.5 17v309q0 23 -10 37l-28 34v2l212 68l2 -2q-3 -55 -3 -90zM135 610q0 -34 -24 -58t-61 -24q-34 0 -58 23.5t-24 56.5t26 58t64 25q33 0 55 -24.5t22 -56.5zM324 611q0 -33 -26 -58t-64 -25
q-33 0 -55 24.5t-22 56.5q0 34 24 58t61 24q34 0 58 -23.5t24 -56.5z" />
    <glyph glyph-name="eth" unicode="&#xf0;" horiz-adv-x="530" 
d="M125 541l-10 15l100 64q-45 53 -110 89l2 9q97 -14 177 -54l101 65l10 -15l-93 -60q99 -56 155 -148t56 -207q0 -144 -77.5 -229.5t-182.5 -85.5q-110 0 -173 66.5t-63 173.5q0 109 67 182.5t176 73.5q21 0 37 -4q-27 75 -70 130zM332 251q0 114 -30 210h-1
q-43 0 -73.5 -56t-30.5 -171q0 -98 16.5 -164.5t52.5 -66.5q17 0 31 19.5t24.5 78t10.5 150.5z" />
    <glyph glyph-name="ntilde" unicode="&#xf1;" horiz-adv-x="562" 
d="M400 480q48 0 79 -31t31 -102v-312q0 -12 4.5 -15.5t22.5 -7.5l16 -3v-9h-251v9l16 3q12 2 16 6.5t4 16.5v256q0 57 -16 74q-16 14 -42 14q-18 0 -51 -11v-333q0 -12 3.5 -16.5t15.5 -6.5l16 -3v-9h-251v9l16 3q18 4 22.5 8t4.5 16v309q0 23 -10 37l-28 34v3l214 69l2 -2
q-5 -62 -5 -81l-1 -21l4 -2q86 98 168 98zM336 695q58 -34 77 -34q35 0 73 84l6 -2q-27 -208 -118 -208q-13 0 -31 7t-28 12.5t-41 23.5q-58 34 -77 34q-35 0 -73 -84l-6 2q27 208 118 208q13 0 31 -7t28 -12.5t41 -23.5z" />
    <glyph glyph-name="ograve" unicode="&#xf2;" horiz-adv-x="543" 
d="M276 480q114 0 182 -72t68 -172q0 -107 -70 -177q-75 -75 -189 -75t-182 72t-68 172q0 107 70 177q75 75 189 75zM278 3q26 0 42 33q26 52 26 179q0 100 -22 173t-59 73q-25 0 -42 -33q-26 -52 -26 -179q0 -100 22 -173t59 -73zM91 712q0 30 25.5 55t60.5 25
q10 0 18.5 -2.5t15 -5t13 -9.5t10 -10.5t9 -14t7 -13t6.5 -15t6 -13.5l36 -82q18 -39 45 -96l-4 -3l-107 60l-87 48q-54 30 -54 76z" />
    <glyph glyph-name="oacute" unicode="&#xf3;" horiz-adv-x="543" 
d="M276 480q114 0 182 -72t68 -172q0 -107 -70 -177q-75 -75 -189 -75t-182 72t-68 172q0 107 70 177q75 75 189 75zM278 3q26 0 42 33q26 52 26 179q0 100 -22 173t-59 73q-25 0 -42 -33q-26 -52 -26 -179q0 -100 22 -173t59 -73zM453 712q0 -46 -54 -76l-87 -48l-107 -60
l-4 3q27 57 45 96l36 82q1 1 6 13.5t6.5 15t7 13t9 14t10 10.5t13 9.5t15 5t18.5 2.5q35 0 60.5 -25t25.5 -55z" />
    <glyph glyph-name="ocircumflex" unicode="&#xf4;" horiz-adv-x="543" 
d="M276 480q114 0 182 -72t68 -172q0 -107 -70 -177q-75 -75 -189 -75t-182 72t-68 172q0 107 70 177q75 75 189 75zM278 3q26 0 42 33q26 52 26 179q0 100 -22 173t-59 73q-25 0 -42 -33q-26 -52 -26 -179q0 -100 22 -173t59 -73zM270 624l-165 -96l-4 3l168 265h6
l168 -265l-5 -3z" />
    <glyph glyph-name="otilde" unicode="&#xf5;" horiz-adv-x="543" 
d="M276 480q114 0 182 -72t68 -172q0 -107 -70 -177q-75 -75 -189 -75t-182 72t-68 172q0 107 70 177q75 75 189 75zM278 3q26 0 42 33q26 52 26 179q0 100 -22 173t-59 73q-25 0 -42 -33q-26 -52 -26 -179q0 -100 22 -173t59 -73zM303 695q58 -34 77 -34q35 0 73 84l6 -2
q-27 -208 -118 -208q-13 0 -31 7t-28 12.5t-41 23.5q-58 34 -77 34q-35 0 -73 -84l-6 2q27 208 118 208q13 0 31 -7t28 -12.5t41 -23.5z" />
    <glyph glyph-name="odieresis" unicode="&#xf6;" horiz-adv-x="543" 
d="M276 480q114 0 182 -72t68 -172q0 -107 -70 -177q-75 -75 -189 -75t-182 72t-68 172q0 107 70 177q75 75 189 75zM278 3q26 0 42 33q26 52 26 179q0 100 -22 173t-59 73q-25 0 -42 -33q-26 -52 -26 -179q0 -100 22 -173t59 -73zM262 610q0 -34 -24 -58t-61 -24
q-34 0 -58 23.5t-24 56.5t26 58t64 25q33 0 55 -24.5t22 -56.5zM451 611q0 -33 -26 -58t-64 -25q-33 0 -55 24.5t-22 56.5q0 34 24 58t61 24q34 0 58 -23.5t24 -56.5z" />
    <glyph glyph-name="oslash" unicode="&#xf8;" horiz-adv-x="543" 
d="M34 -16l59 64q-76 70 -76 180q0 107 70 177q75 75 189 75q94 0 159 -52l59 65l15 -13l-59 -65q76 -71 76 -179q0 -107 -70 -177q-75 -75 -189 -75q-93 0 -160 52l-58 -65zM278 3q26 0 42 33q26 52 26 179q0 48 -6 90l-134 -175q23 -127 72 -127zM197 249q0 -43 5 -91
l134 176q-21 127 -71 127q-25 0 -42 -33q-26 -52 -26 -179z" />
    <glyph glyph-name="ugrave" unicode="&#xf9;" horiz-adv-x="559" 
d="M160 -15q-48 0 -77 29q-31 31 -31 103v280q0 21 -3 27t-17 12l-33 14v6l227 21l2 -2q-3 -39 -3 -84v-218q0 -60 15 -74q13 -14 39 -14q17 0 50 13v300q0 21 -3 27t-17 12l-33 14v5l226 21l2 -2q-3 -39 -3 -86v-331q0 -18 5 -23t24 -5h22l1 -9l-228 -37l-2 2q2 14 4 38
l2 57l-4 2q-85 -98 -165 -98zM97 712q0 30 25.5 55t60.5 25q10 0 18.5 -2.5t15 -5t13 -9.5t10 -10.5t9 -14t7 -13t6.5 -15t6 -13.5l36 -82q18 -39 45 -96l-4 -3l-107 60l-87 48q-54 30 -54 76z" />
    <glyph glyph-name="uacute" unicode="&#xfa;" horiz-adv-x="559" 
d="M160 -15q-48 0 -77 29q-31 31 -31 103v280q0 21 -3 27t-17 12l-33 14v6l227 21l2 -2q-3 -39 -3 -84v-218q0 -60 15 -74q13 -14 39 -14q17 0 50 13v300q0 21 -3 27t-17 12l-33 14v5l226 21l2 -2q-3 -39 -3 -86v-331q0 -18 5 -23t24 -5h22l1 -9l-228 -37l-2 2q2 14 4 38
l2 57l-4 2q-85 -98 -165 -98zM459 712q0 -46 -54 -76l-87 -48l-107 -60l-4 3q27 57 45 96l36 82q1 1 6 13.5t6.5 15t7 13t9 14t10 10.5t13 9.5t15 5t18.5 2.5q35 0 60.5 -25t25.5 -55z" />
    <glyph glyph-name="ucircumflex" unicode="&#xfb;" horiz-adv-x="559" 
d="M160 -15q-48 0 -77 29q-31 31 -31 103v280q0 21 -3 27t-17 12l-33 14v6l227 21l2 -2q-3 -39 -3 -84v-218q0 -60 15 -74q13 -14 39 -14q17 0 50 13v300q0 21 -3 27t-17 12l-33 14v5l226 21l2 -2q-3 -39 -3 -86v-331q0 -18 5 -23t24 -5h22l1 -9l-228 -37l-2 2q2 14 4 38
l2 57l-4 2q-85 -98 -165 -98zM276 624l-165 -96l-4 3l168 265h6l168 -265l-5 -3z" />
    <glyph glyph-name="udieresis" unicode="&#xfc;" horiz-adv-x="559" 
d="M160 -15q-48 0 -77 29q-31 31 -31 103v280q0 21 -3 27t-17 12l-33 14v6l227 21l2 -2q-3 -39 -3 -84v-218q0 -60 15 -74q13 -14 39 -14q17 0 50 13v300q0 21 -3 27t-17 12l-33 14v5l226 21l2 -2q-3 -39 -3 -86v-331q0 -18 5 -23t24 -5h22l1 -9l-228 -37l-2 2q2 14 4 38
l2 57l-4 2q-85 -98 -165 -98zM268 610q0 -34 -24 -58t-61 -24q-34 0 -58 23.5t-24 56.5t26 58t64 25q33 0 55 -24.5t22 -56.5zM457 611q0 -33 -26 -58t-64 -25q-33 0 -55 24.5t-22 56.5q0 34 24 58t61 24q34 0 58 -23.5t24 -56.5z" />
    <glyph glyph-name="yacute" unicode="&#xfd;" horiz-adv-x="481" 
d="M391 410q0 8 -8 15t-29 20l-23 15v4h180v-4l-32 -22q-19 -13 -28.5 -26t-24.5 -49l-170 -414q-45 -110 -83 -146.5t-77 -36.5q-36 0 -57 25t-21 63q0 28 13.5 47.5t34.5 19.5q8 0 21 -5l67 -25q18 -6 28 -6q11 0 19 9t25 45l-185 466q-10 26 -18.5 32.5t-29.5 12.5l-18 5
v9h300v-9l-26 -6q-26 -10 -28 -15q0 -6 7 -27l85 -260h2l38 112q38 118 38 151zM446 712q0 -46 -54 -76l-87 -48l-107 -60l-4 3q27 57 45 96l36 82q1 1 6 13.5t6.5 15t7 13t9 14t10 10.5t13 9.5t15 5t18.5 2.5q35 0 60.5 -25t25.5 -55z" />
    <glyph glyph-name="thorn" unicode="&#xfe;" horiz-adv-x="553" 
d="M536 253q0 -114 -62 -190t-166 -76q-46 0 -83 18v-193q0 -12 5 -16t25 -7l29 -4v-9h-274v9l16 3q18 4 22.5 8t4.5 16v751q0 25 -11 38l-27 34v3l211 68l2 -2q-3 -57 -3 -91v-202l4 -2q55 71 135 71t126 -62t46 -165zM360 210q0 88 -29.5 139t-75.5 51q-17 0 -30 -5
l-2 -308q0 -37 14 -55.5t36 -18.5q37 0 62 53t25 144z" />
    <glyph glyph-name="ydieresis" unicode="&#xff;" horiz-adv-x="481" 
d="M391 410q0 8 -8 15t-29 20l-23 15v4h180v-4l-32 -22q-19 -13 -28.5 -26t-24.5 -49l-170 -414q-45 -110 -83 -146.5t-77 -36.5q-36 0 -57 25t-21 63q0 28 13.5 47.5t34.5 19.5q8 0 21 -5l67 -25q18 -6 28 -6q11 0 19 9t25 45l-185 466q-10 26 -18.5 32.5t-29.5 12.5l-18 5
v9h300v-9l-26 -6q-26 -10 -28 -15q0 -6 7 -27l85 -260h2l38 112q38 118 38 151zM255 610q0 -34 -24 -58t-61 -24q-34 0 -58 23.5t-24 56.5t26 58t64 25q33 0 55 -24.5t22 -56.5zM444 611q0 -33 -26 -58t-64 -25q-33 0 -55 24.5t-22 56.5q0 34 24 58t61 24q34 0 58 -23.5
t24 -56.5z" />
    <glyph glyph-name="dotlessi" unicode="&#x131;" horiz-adv-x="280" 
d="M229 395v-358q0 -13 4.5 -17t22.5 -8l16 -3v-9h-259v9l16 3q18 4 22.5 8t4.5 17v309q0 23 -10 37l-28 34v2l212 68l2 -2q-3 -55 -3 -90z" />
    <glyph glyph-name="Lslash" unicode="&#x141;" horiz-adv-x="633" 
d="M40 246l-10 18l67 38v212q0 81 -7 109q-4 15 -12 21t-35 10l-30 5v9h355v-9l-30 -5q-27 -4 -35 -10t-12 -21q-7 -28 -7 -109v-106l109 62l10 -18l-119 -68v-229q0 -94 5 -114q6 -23 33 -23q47 0 129 42q22 10 42 30q59 59 115 156l7 -4l-41 -242h-561v9l30 5q27 4 35 10
t12 21q7 28 7 109v124z" />
    <glyph glyph-name="lslash" unicode="&#x142;" horiz-adv-x="285" 
d="M229 614v-187l65 37l9 -16l-74 -42v-371q0 -11 4.5 -15t22.5 -8l16 -3v-9h-259v9l16 3q18 4 22.5 8t4.5 16v272l-70 -39l-9 16l79 44v234q0 23 -10 37l-28 35v3l212 68l2 -2q-3 -57 -3 -90z" />
    <glyph glyph-name="OE" unicode="&#x152;" horiz-adv-x="1010" 
d="M26 326q0 47 13.5 93t46.5 91.5t80.5 80t121.5 56t165 21.5h502l-8 -216l-7 -2q-52 111 -81 140q-39 39 -138 51l-62 7v-300l49 4q58 5 82 29q25 25 42 60l18 36l7 -2l-8 -271h-7l-17 36q-20 43 -40 63q-21 21 -77 25l-49 3v-187q0 -82 5 -102q4 -14 12.5 -18.5
t27.5 -4.5q25 0 67 11t61 21q25 12 47 34q11 11 102 138l7 -4l-41 -219h-513q-195 0 -301.5 83t-106.5 243zM222 344q0 -115 35.5 -193t99.5 -110q48 -24 113 -24q2 13 2 80v474q0 67 -2 80h-2q-78 0 -124 -23q-62 -31 -92 -107t-30 -177z" />
    <glyph glyph-name="oe" unicode="&#x153;" horiz-adv-x="820" 
d="M276 480q101 0 169 -71q68 71 170 71q87 0 137 -43.5t50 -110.5q0 -19 -4 -31h-275q0 -98 42 -150t120 -52q74 0 119 47l4 -3q-72 -153 -212 -153q-98 0 -157 69q-72 -69 -172 -69q-114 0 -182 72t-68 172q0 107 70 177q75 75 189 75zM265 461q-25 0 -42 -33
q-26 -52 -26 -179q0 -100 22 -173t59 -73q26 0 42 33q26 52 26 179q0 100 -22 173t-59 73zM567 447q-42 -42 -44 -138q116 4 137 11q-1 58 -17 99.5t-45 41.5q-17 0 -31 -14z" />
    <glyph glyph-name="Scaron" unicode="&#x160;" horiz-adv-x="552" 
d="M481 649q13 -67 13 -189l-9 -2q-62 123 -94 163t-76 40q-37 0 -60 -27t-23 -65q0 -29 18.5 -58.5t39.5 -48.5t71 -60q81 -66 114 -115t33 -115q0 -81 -66.5 -132.5t-180.5 -51.5q-101 0 -209 43q-16 91 -16 211l9 3q74 -146 110.5 -192t88.5 -46q43 0 70.5 31.5
t27.5 80.5q0 42 -29.5 77.5t-113.5 105.5q-68 56 -100 100.5t-32 105.5q0 72 64 122t177 50q104 0 173 -31zM307 887l190 76l3 -3l-192 -235h-6l-192 235l4 3z" />
    <glyph glyph-name="scaron" unicode="&#x161;" horiz-adv-x="415" 
d="M272 59q0 28 -21.5 50t-71.5 52q-2 1 -21.5 13t-22.5 13.5t-19.5 12.5t-20 14.5t-16 14t-16 16.5t-11 17t-10 21t-5 22.5t-2.5 25.5q0 63 52 105t134 42q76 0 148 -28q7 -49 7 -134l-6 -2q-65 89 -96.5 116.5t-58.5 27.5q-25 0 -38.5 -14t-13.5 -36q0 -26 18.5 -45.5
t57.5 -41.5q41 -23 63 -37.5t48 -37t37.5 -47.5t11.5 -56q0 -72 -56 -114.5t-147 -42.5t-160 29q-12 77 -14 162l6 2q72 -95 113.5 -134t76.5 -39q27 0 40.5 14.5t13.5 38.5zM227 697l165 96l4 -3l-168 -265h-6l-168 265l5 3z" />
    <glyph glyph-name="Ydieresis" unicode="&#x178;" horiz-adv-x="673" 
d="M535 609q0 9 -9 15.5t-41 20.5l-39 17v6h261v-6l-34 -16q-36 -17 -56.5 -38t-50.5 -76l-130 -235v-143q0 -81 7 -109q4 -15 12 -21t35 -10l30 -5v-9h-355v9l30 5q27 4 35 10t12 21q7 28 7 109v35q0 64 -25 114l-135 264q-27 52 -39.5 65t-41.5 20l-32 7v9h389v-9l-32 -6
q-24 -4 -33 -9.5t-9 -15.5t20 -55l110 -251h1l76 176q37 86 37 111zM376 810q0 -34 -24 -58t-61 -24q-34 0 -58 23.5t-24 56.5t26 58t64 25q33 0 55 -24.5t22 -56.5zM572 811q0 -33 -26 -58t-64 -25q-33 0 -55 24.5t-22 56.5q0 34 24 58t61 24q34 0 58 -23.5t24 -56.5z" />
    <glyph glyph-name="Zcaron" unicode="&#x17d;" horiz-adv-x="665" 
d="M188 595q-30 -30 -121 -163l-7 2l37 266h6l7 -18q5 -13 9 -15.5t20 -2.5h494l2 -4l-389 -639l1 -1l84 3q83 3 116.5 12.5t65.5 41.5q50 50 126 155l8 -3l-46 -229h-570l-2 4l391 639l-1 1l-108 -3q-50 -1 -73.5 -10.5t-49.5 -35.5zM352 887l190 76l3 -3l-192 -235h-6
l-192 235l4 3z" />
    <glyph glyph-name="zcaron" unicode="&#x17e;" horiz-adv-x="476" 
d="M378 76q13 13 80 108l5 -2l-23 -182h-433l-2 6l267 440l-1 2l-54 -7q-61 -8 -85 -32q-7 -7 -100 -119l-6 2l38 207h6l5 -20q2 -9 5.5 -12t12.5 -3h370l2 -6l-255 -439l2 -3l18 3q108 17 148 57zM257 697l165 96l4 -3l-168 -265h-6l-168 265l5 3z" />
    <glyph glyph-name="circumflex" unicode="&#x2c6;" 
d="M248 624l-165 -96l-4 3l168 265h6l168 -265l-5 -3z" />
    <glyph glyph-name="caron" unicode="&#x2c7;" 
d="M252 697l165 96l4 -3l-168 -265h-6l-168 265l5 3z" />
    <glyph glyph-name="breve" unicode="&#x2d8;" 
d="M252 662q47 0 90.5 26t64.5 79l5 -2q-4 -114 -50.5 -171.5t-112.5 -57.5t-111.5 57t-49.5 172l5 2q22 -52 66.5 -78.5t92.5 -26.5z" />
    <glyph glyph-name="dotaccent" unicode="&#x2d9;" 
d="M334 608q0 -34 -24 -57t-61 -23q-34 0 -58 22.5t-24 55.5q0 32 26 56.5t64 24.5q33 0 55 -23.5t22 -55.5z" />
    <glyph glyph-name="ring" unicode="&#x2da;" 
d="M353 631q0 -43 -30 -73t-73 -30t-73 30t-30 73q0 42 30 72t73 30t73 -30t30 -72zM329 631q0 34 -23 57t-56 23t-56 -23t-23 -57t23 -57.5t56 -23.5t56 23.5t23 57.5z" />
    <glyph glyph-name="ogonek" unicode="&#x2db;" 
d="M126 -189q0 62 69 131q13 13 81 72l4 -4q-50 -79 -50 -134q0 -37 21 -55t51 -18q38 0 70 27l3 -3q-10 -20 -17 -31.5t-25 -34t-43.5 -34.5t-56.5 -12q-50 0 -78.5 28t-28.5 68z" />
    <glyph glyph-name="tilde" unicode="&#x2dc;" 
d="M281 695q58 -34 77 -34q35 0 73 84l6 -2q-27 -208 -118 -208q-13 0 -31 7t-28 12.5t-41 23.5q-58 34 -77 34q-35 0 -73 -84l-6 2q27 208 118 208q13 0 31 -7t28 -12.5t41 -23.5z" />
    <glyph glyph-name="hungarumlaut" unicode="&#x2dd;" horiz-adv-x="499" 
d="M437 726q0 -41 -60 -88l-61 -48l-81 -62l-4 3l25 95l21 83q7 25 12.5 39.5t22.5 29t42 14.5q35 0 59 -20.5t24 -45.5zM259 726q0 -41 -60 -88l-61 -48l-81 -62l-4 3l25 95l21 83q7 25 12.5 39.5t22.5 29t42 14.5q35 0 59 -20.5t24 -45.5z" />
    <glyph glyph-name="endash" unicode="&#x2013;" horiz-adv-x="521" 
d="M475 239h-429v24h429v-24z" />
    <glyph glyph-name="emdash" unicode="&#x2014;" horiz-adv-x="791" 
d="M745 239h-699v24h699v-24z" />
    <glyph glyph-name="quoteleft" unicode="&#x2018;" horiz-adv-x="265" 
d="M29 490q0 81 57 133t147 60l2 -7q-69 -20 -96.5 -51.5t-27.5 -80.5q0 -18 4.5 -24.5t16.5 -6.5h29q69 2 69 -63q0 -39 -25 -66t-70 -27q-43 0 -74.5 33t-31.5 100z" />
    <glyph glyph-name="quoteright" unicode="&#x2019;" horiz-adv-x="265" 
d="M236 549q0 -81 -57 -133t-147 -60l-2 7q69 20 96.5 51.5t27.5 80.5q0 18 -4.5 24.5t-16.5 6.5h-29q-69 -2 -69 63q0 39 25 66t70 27q43 0 74.5 -33t31.5 -100z" />
    <glyph glyph-name="quotesinglbase" unicode="&#x201a;" horiz-adv-x="248" 
d="M219 35q0 -81 -57 -133t-147 -60l-2 7q69 20 96.5 51.5t27.5 80.5q0 18 -4.5 24.5t-16.5 6.5h-29q-69 -2 -69 63q0 39 25 66t70 27q43 0 74.5 -33t31.5 -100z" />
    <glyph glyph-name="quotedblleft" unicode="&#x201c;" horiz-adv-x="476" 
d="M248 490q0 82 54 133.5t142 59.5l2 -7q-69 -20 -93.5 -50.5t-24.5 -81.5q0 -18 4.5 -24.5t16.5 -6.5h25q67 2 67 -63q0 -39 -23 -66t-68 -27q-42 0 -72 33t-30 100zM29 490q0 82 54 133.5t142 59.5l2 -7q-69 -20 -93.5 -50.5t-24.5 -81.5q0 -18 4.5 -24.5t16.5 -6.5h25
q67 2 67 -63q0 -39 -23 -66t-68 -27q-42 0 -72 33t-30 100z" />
    <glyph glyph-name="quotedblright" unicode="&#x201d;" horiz-adv-x="476" 
d="M228 549q0 -82 -54 -133.5t-142 -59.5l-2 7q69 20 93.5 50.5t24.5 81.5q0 18 -4.5 24.5t-16.5 6.5h-25q-67 -2 -67 63q0 39 23 66t68 27q42 0 72 -33t30 -100zM447 549q0 -82 -54 -133.5t-142 -59.5l-2 7q69 20 93.5 50.5t24.5 81.5q0 18 -4.5 24.5t-16.5 6.5h-25
q-67 -2 -67 63q0 39 23 66t68 27q42 0 72 -33t30 -100z" />
    <glyph glyph-name="quotedblbase" unicode="&#x201e;" horiz-adv-x="459" 
d="M211 35q0 -82 -54 -133.5t-142 -59.5l-2 7q69 20 93.5 50.5t24.5 81.5q0 18 -4.5 24.5t-16.5 6.5h-25q-67 -2 -67 63q0 39 23 66t68 27q42 0 72 -33t30 -100zM430 35q0 -82 -54 -133.5t-142 -59.5l-2 7q69 20 93.5 50.5t24.5 81.5q0 18 -4.5 24.5t-16.5 6.5h-25
q-67 -2 -67 63q0 39 23 66t68 27q42 0 72 -33t30 -100z" />
    <glyph glyph-name="bullet" unicode="&#x2022;" horiz-adv-x="457" 
d="M237 410q66 0 109 -46.5t43 -111.5q0 -69 -48 -114.5t-117 -45.5q-65 0 -110.5 46t-45.5 113t50.5 113t118.5 46z" />
    <glyph glyph-name="ellipsis" unicode="&#x2026;" horiz-adv-x="798" 
d="M566 81q0 36 29 65t73 29q39 0 67.5 -28t28.5 -64q0 -38 -28 -66.5t-70 -28.5t-71 27.5t-29 65.5zM300 81q0 36 29 65t73 29q39 0 67.5 -28t28.5 -64q0 -38 -28 -66.5t-70 -28.5t-71 27.5t-29 65.5zM34 81q0 36 29 65t73 29q39 0 67.5 -28t28.5 -64q0 -38 -28 -66.5
t-70 -28.5t-71 27.5t-29 65.5z" />
    <glyph glyph-name="guilsinglleft" unicode="&#x2039;" horiz-adv-x="360" 
d="M190 251l134 -192l-4 -4l-303 194v4l303 194l4 -4z" />
    <glyph glyph-name="guilsinglright" unicode="&#x203a;" horiz-adv-x="360" 
d="M170 251l-134 192l4 4l303 -194v-4l-303 -194l-4 4z" />
    <glyph glyph-name="Euro" unicode="&#x20ac;" horiz-adv-x="640" 
d="M18 346h93q22 111 102 185.5t197 74.5q86 0 138 -30.5t52 -77.5q0 -36 -27 -60.5t-60 -24.5q-13 0 -22 7t-20 28l-65 122q-10 19 -21 19q-41 0 -78 -72t-38 -171h231v-19h-231q0 -28 8 -72h223v-19h-218q40 -146 184 -146q73 0 122 49l5 -4q-72 -151 -222 -151
q-114 0 -183.5 71t-80.5 181h-89v19h87v20q0 27 3 52h-90v19z" />
    <glyph glyph-name="trademark" unicode="&#x2122;" horiz-adv-x="737" 
d="M331 412l15 7q17 8 21.5 13t5.5 20l14 185q-8 13 -30 22l-13 5v4h121q1 -17 17 -55l43 -100l38 100q13 32 16 55h117v-5l-6 -2q-22 -7 -26.5 -15.5t-3.5 -32.5l7 -151q1 -27 5 -33.5t19 -11.5l14 -4v-5h-141v5l12 4q11 4 13.5 9t1.5 24l-9 173l-83 -218h-4l-100 215
l3 -168q0 -14 4.5 -19t22.5 -14l15 -7v-4h-109v4zM48 680h5l4 -8q3 -6 13 -6h213q19 0 23 7l4 7h4l2 -114l-4 -1q-36 66 -44 74q-14 14 -43 17l-10 1v-190q0 -29 2 -37t28 -14l12 -3v-5h-163v5l12 3q26 6 28 14t2 37v190l-8 -1q-25 -3 -41 -19q-15 -15 -55 -71h-4z" />
    <glyph glyph-name="acute.cap" 
d="M386 869q0 -57 -71 -77l-92 -27l-118 -37l-4 4q32 39 64 84l53 73q15 22 23 31.5t26.5 22t37.5 12.5q35 0 58 -26.5t23 -59.5z" />
    <glyph glyph-name="breve.cap" 
d="M249 736q-67 0 -118 53.5t-57 152.5l5 2q23 -35 70.5 -54.5t102.5 -19.5t101 19.5t68 54.5l5 -2q-6 -98 -58 -152t-119 -54z" />
    <glyph glyph-name="caron.alt.cap" horiz-adv-x="499" 
d="M316 638q0 -35 -39 -81l-43 -52l-43 -50l-4 1v146q0 91 64 91q29 0 47 -15.5t18 -39.5z" />
    <glyph glyph-name="caron.cap" 
d="M252 887l190 76l3 -3l-192 -235h-6l-192 235l4 3z" />
    <glyph glyph-name="cedilla.cap" 
d="M283 -215q0 28 -28.5 45.5t-109.5 21.5v3l115 135h22l-45 -53q82 -11 115 -41.5t33 -67.5q0 -56 -49 -90t-125 -34q-51 0 -96 17l2 11q37 -10 71 -10q46 0 70.5 16.5t24.5 46.5z" />
    <glyph glyph-name="circumflex.cap" 
d="M248 804l-190 -76l-3 3l192 235h6l192 -235l-4 -3z" />
    <glyph glyph-name="commaaccent.cap" 
d="M343 -181q0 -68 -53.5 -112t-129.5 -50l-2 7q109 28 109 105q0 23 -19 23h-25q-62 -2 -62 58q0 37 22.5 61.5t63.5 24.5q39 0 67.5 -29t28.5 -88z" />
    <glyph glyph-name="dieresis.cap" horiz-adv-x="499" 
d="M235 810q0 -34 -24 -58t-61 -24q-34 0 -58 23.5t-24 56.5t26 58t64 25q33 0 55 -24.5t22 -56.5zM431 811q0 -33 -26 -58t-64 -25q-33 0 -55 24.5t-22 56.5q0 34 24 58t61 24q34 0 58 -23.5t24 -56.5z" />
    <glyph glyph-name="dotaccent.cap" horiz-adv-x="499" 
d="M333 808q0 -34 -24 -57t-61 -23q-34 0 -58 22.5t-24 55.5q0 32 26 56.5t64 24.5q33 0 55 -23.5t22 -55.5z" />
    <glyph glyph-name="grave.cap" 
d="M114 869q0 33 23 59.5t58 26.5q19 0 37.5 -12.5t26.5 -22t23 -31.5l53 -73q32 -45 64 -84l-4 -4l-118 37l-92 27q-71 20 -71 77z" />
    <glyph glyph-name="hcoslug" horiz-adv-x="694" 
d="M644 700v-800h-594v800h594zM428 306q15 -25 43 -25q21 0 35.5 15.5t14.5 38.5t-14.5 37.5t-35.5 14.5q-35 0 -60 -38q-3 39 -49 37q9 15 9 34q0 29 -25.5 51.5t-69.5 22.5q-48 0 -78.5 -25.5t-30.5 -59.5q0 -37 31 -69q-82 -28 -82 -91q0 -39 32 -66t77 -27q63 0 104 45
q44 -45 85 -45q33 0 56 25.5t24 68.5l-7 2q-17 -29 -43 -29q-27 0 -62 41q20 26 46 42zM261 219q-22 0 -37 15.5t-15 38.5q0 24 16 40q34 -32 74 -82q-15 -12 -38 -12zM247 428q0 13 7.5 21t19.5 8q13 0 21 -10.5t8 -27.5q0 -22 -18 -50q-15 14 -21 20.5t-11.5 17t-5.5 21.5
zM312 342q30 20 42 34q29 -29 -1 -80q-33 38 -41 46zM124 7v-7h29v7h-8v18h22v-18h-8v-7h29v7h-8v41h8v7h-29v-7h8v-16h-22v16h8v7h-29v-7h8v-41h-8zM464 33h-18v-7h6q-2 -5 -6 -9l-12 13q11 5 11 12q0 12 -14 12q-17 0 -17 -14q0 -6 6 -12q-13 -4 -13 -15q0 -14 18 -14
q9 0 15 6q5 -6 12 -6q10 0 13 12l-5 1q-1 -5 -4 -5t-6 5q6 8 9 14h5v7zM276 7v-7h23v7h-5v25h14v-25h-5v-7h23v7h-6v52l-10 -2q-4 2 -9 2q-19 0 -19 -19v-1h-7v-7h7v-25h-6zM352 125v-52h6l4 8q5 -8 14 -8q16 0 16 21q0 20 -15 20q-10 0 -13 -9v27h-18v-7h6zM125 81v-7h30v7
h-10v16h4q5 0 6 -8h7v23h-7q-1 -8 -6 -8h-4v18h12q9 0 11 -13h8v20h-51v-7h7v-41h-7zM498 -1q22 0 24 23h-8q-2 -16 -14 -16q-16 0 -16 22t14 22q10 0 15 -16h8v22h-8l-1 -6q-7 7 -16 7q-11 0 -19 -8.5t-8 -21.5q0 -28 29 -28zM195 73q9 0 15 6t6 15q0 20 -21 20t-21 -20
q0 -21 21 -21zM210 -1q9 0 15 6t6 15q0 20 -21 20t-21 -20q0 -21 21 -21zM546 -1q9 0 15 6t6 15q0 20 -21 20t-21 -20q0 -21 21 -21zM219 81v-7h22v7h-4v15q0 10 7 10q6 0 6 -7v-18h-4v-7h22v7h-6v19q0 14 -12 14q-9 0 -14 -11v10h-17v-7h6v-25h-6zM400 75q-7 0 -7 -7
q0 -9 11 -9q12 0 18 16l13 31h5v7h-17v-7h5l-8 -20l-9 20h6v7h-25v-7h5q12 -23 16 -33q-2 -8 -8 -8q3 2 1.5 6t-6.5 4zM247 18h26q2 22 -19 22q-8 0 -14 -6t-6 -15q0 -20 21 -20q15 0 18 14h-7q-1 -7 -9 -7q-10 0 -10 12zM340 18h26q2 22 -19 22q-8 0 -14 -6t-6 -15
q0 -20 21 -20q14 0 18 14h-7q-1 -7 -9 -7q-10 0 -10 12zM302 88v-14h7l1 4q7 -5 13 -5q14 0 14 13q0 9 -12 12t-12 6q0 4 5 4t10 -7h7v13h-6l-2 -5q-3 5 -11 5q-14 0 -14 -12q0 -9 12 -12.5t12 -6.5q0 -4 -5 -4q-6 0 -12 9h-7zM286 124l-12 -2v-9h-7v-7h7v-20q0 -13 12 -13
q11 0 14 13l-5 2q-1 -7 -5 -7t-4 5v20h13v7h-13v11zM368 7v-7h26v7h-8v16q4 9 7 9v-1q0 -6 6 -6q7 0 7 7q0 8 -8 8t-12 -11v10h-18v-7h6v-25h-6zM210 4q-8 0 -8 16q0 15 8 15t8 -15q0 -16 -8 -16zM546 4q-8 0 -8 16q0 15 8 15t8 -15q0 -16 -8 -16zM195 78q-8 0 -8 16
q0 15 8 15t8 -15q0 -16 -8 -16zM372 80q-8 0 -8 13t8 13q7 0 7 -13t-7 -13zM429 6q-10 0 -10 10q0 5 4 9l14 -16q-5 -3 -8 -3zM576 13q-7 0 -7 -7t7 -7t7 7t-7 7zM294 39v3q0 12 6 12l3 -1q-1 -1 -1 -3q0 -6 6 -6v-5h-14zM347 35q7 0 7 -12h-14q0 12 7 12zM254 35q7 0 7 -12
h-14q0 12 7 12zM425 43q0 5 5 5q6 0 6 -6t-5 -9q-6 6 -6 10z" />
    <glyph glyph-name="hungarumlaut.cap" horiz-adv-x="499" 
d="M464 888q0 -44 -69 -78l-78 -39q-3 -2 -93 -44l-3 4l44 87l38 78q32 67 75 67q36 0 61 -23t25 -52zM268 888q0 -44 -69 -78l-78 -39q-3 -2 -93 -44l-3 4l44 87l38 78q32 67 75 67q36 0 61 -23t25 -52z" />
    <glyph glyph-name="macron.cap" horiz-adv-x="499" 
d="M445 744h-391v76h391v-76z" />
    <glyph glyph-name="ogonek.cap" 
d="M126 -189q0 63 71 134q9 9 79 69l4 -4q-50 -79 -50 -134q0 -37 21 -55t51 -18q38 0 70 27l3 -3q-10 -20 -17 -31.5t-25 -34t-43 -34.5t-56 -12q-51 0 -79.5 27.5t-28.5 68.5z" />
    <glyph glyph-name="ring.cap" 
d="M353 831q0 -43 -30 -73t-73 -30t-73 30t-30 73q0 42 30 72t73 30t73 -30t30 -72zM329 831q0 34 -23 57t-56 23t-56 -23t-23 -57t23 -57.5t56 -23.5t56 23.5t23 57.5z" />
    <glyph glyph-name="tilde.cap" 
d="M326 736q-25 0 -104 38q-70 34 -89 34q-36 0 -74 -80l-6 2q33 207 121 207q25 0 104 -38q70 -34 89 -34q38 0 74 80l6 -2q-33 -207 -121 -207z" />
    </font>
</defs>
</svg>
