<?xml version="1.0" encoding="UTF-8"?>
<svg width="159px" height="63px" viewBox="0 0 159 63" version="1.1" xmlns="http://www.w3.org/2000/svg" xmlns:xlink="http://www.w3.org/1999/xlink">
    <title>Logo</title>
    <defs>
        <polygon id="path-1" points="0 0 159 0 159 63 0 63"></polygon>
    </defs>
    <g id="Page-1" stroke="none" stroke-width="1" fill="none" fill-rule="evenodd">
        <g id="Events" transform="translate(-155.000000, -40.000000)">
            <g id="About">
                <g id="Group-18" transform="translate(155.000000, 40.000000)">
                    <mask id="mask-2" fill="white">
                        <use xlink:href="#path-1"></use>
                    </mask>
                    <g id="Clip-2"></g>
                    <path d="M2.13808008,2.10770595 L156.862481,2.10770595 L156.862481,60.8922941 L2.13808008,60.8922941 L2.13808008,2.10770595 Z M0,63 L159,63 L159,0 L0,0 L0,63 Z" id="Fill-1" fill="#FFFFFF" mask="url(#mask-2)"></path>
                    <path d="M38.4539978,46.1201662 L37.1347207,46.1201662 L37.1347207,48.640095 L38.4539978,48.640095 C39.3116101,48.640095 39.8466594,48.130173 39.8466594,47.3804274 C39.8466594,46.5499491 39.3028478,46.1201662 38.4539978,46.1201662 Z M38.4167579,49.7501696 L37.1347207,49.7501696 L37.1347207,52 L36,52 L36,45 L38.5460022,45 C40.0498357,45 41,45.9201153 41,47.3501526 C41,48.9303765 39.837897,49.7501696 38.4167579,49.7501696 Z" id="Fill-4" fill="#FFFFFF" mask="url(#mask-2)"></path>
                    <path d="M64.4809303,46.4594139 L63.3299179,49.2397272 L65.6410507,49.2397272 L64.4809303,46.4594139 Z M68,52 L66.7533545,52 L66.072538,50.3219097 L62.8984305,50.3219097 L62.2085061,52 L61,52 L63.9532406,45 L65.0467594,45 L68,52 Z" id="Fill-6" fill="#FFFFFF" mask="url(#mask-2)"></path>
                    <path d="M92.0509694,46.1201662 L90.2424545,46.1201662 L90.2424545,48.4703189 L92.0611633,48.4703189 C92.9498301,48.4703189 93.5152908,48.0102612 93.5152908,47.2901967 C93.5152908,46.520268 92.9702179,46.1201662 92.0509694,46.1201662 Z M93.5356786,52 L91.7979212,49.5602103 L90.2424545,49.5602103 L90.2424545,52 L89,52 L89,45 L92.151709,45 C93.7779332,45 94.7781331,45.8500678 94.7781331,47.2201493 C94.7781331,48.3800882 94.0813512,49.0805631 93.0913452,49.3500678 L95,52 L93.5356786,52 Z" id="Fill-7" fill="#FFFFFF" mask="url(#mask-2)"></path>
                    <polyline id="Fill-8" fill="#FFFFFF" mask="url(#mask-2)" points="122 52 120.558024 52 118.245117 48.8502374 117.189774 49.9704037 117.189774 52 116 52 116 45 117.189774 45 117.189774 48.5201832 120.412677 45 121.874186 45 119.058024 48.0102612 122 52"></polyline>
                    <path d="M102.972788,33.4318257 C98.1714379,33.4318257 94.5511048,29.8184219 94.5511048,25.0275118 C94.5511048,20.204688 98.1948405,16.5681743 103.027212,16.5681743 C107.828562,16.5681743 111.448895,20.1810278 111.448895,24.9724882 C111.448895,29.7947617 107.804615,33.4318257 102.972788,33.4318257 Z M103.027212,15 C97.1526069,15 93,19.55816 93,25.0275118 C93,30.4968637 97.0981822,35 102.972788,35 C108.847393,35 113,30.44184 113,24.9719379 C113,19.5025861 108.901818,15 103.027212,15 Z" id="Fill-9" fill="#FFFFFF" mask="url(#mask-2)"></path>
                    <path d="M103.528829,31.8771447 C99.5054267,31.8771447 96.6398046,28.7561462 96.6398046,24.9722174 C96.6398046,21.1888388 99.4471917,18.1228553 103.471171,18.1228553 C107.494573,18.1228553 110.360195,21.2438538 110.360195,25.0277826 C110.360195,28.8117113 107.552808,31.8771447 103.528829,31.8771447 Z M103.528829,17 C98.6664971,17 95,20.4510883 95,25.0277826 C95,29.5725682 98.641704,33 103.471171,33 C108.332926,33 112,29.5489117 112,24.9727676 C112,20.4274318 108.358296,17 103.528829,17 Z" id="Fill-10" fill="#FFFFFF" mask="url(#mask-2)"></path>
                    <polygon id="Fill-11" fill="#FFFFFF" mask="url(#mask-2)" points="79 34 81 34 81 15 79 15"></polygon>
                    <polygon id="Fill-12" fill="#FFFFFF" mask="url(#mask-2)" points="76 34 78 34 78 15 76 15"></polygon>
                    <path d="M62,15 L62,34 L59.1472697,34 C59.1472697,34 48.7777165,20.8892809 48.7131826,20.8049398 C48.5366795,20.5875992 48.4026475,20.2988931 48.3452841,20.1669749 C48.3932708,20.2951086 48.4589079,20.515693 48.4589079,20.8341348 C48.4589079,20.9584839 48.4589079,34 48.4589079,34 L47,34 L47,16.3029622 L59.9106453,32.613778 L60.5405405,32.613778 L60.5405405,15.0005406 L62,15" id="Fill-13" fill="#FFFFFF" mask="url(#mask-2)"></path>
                    <path d="M15,15 L15,25.7695411 C15,31.1942343 18.292365,34 23.4570364,34 C28.651104,34 32,31.1942343 32,25.6087858 L32,15 L30.4759244,15 L30.4759244,25.6087858 C30.4759244,30.1594386 28.0484836,32.5654452 23.4570364,32.5654452 C18.9215549,32.5654452 16.5235102,30.2153303 16.5235102,25.7695411 L16.5235102,15 L15,15 Z M16.9661479,15 L16.9661479,25.7695411 C16.9661479,29.9427915 19.2104283,32.1486524 23.4570364,32.1486524 C27.759045,32.1486524 30.0332868,29.8874321 30.0332868,25.6087858 L30.0332868,15 L28.5092112,15 L28.5092112,25.7695411 C28.5092112,29.2167311 26.6075086,30.9802488 23.5141327,30.9802488 C20.391926,30.9802488 18.4907888,29.1097383 18.4907888,25.6359332 L18.4907888,15 L16.9661479,15 Z" id="Fill-14" fill="#FFFFFF" mask="url(#mask-2)"></path>
                    <path d="M48.1020408,15.879094 L61,32.1904504 L61,15 L59.5410921,15 C59.5410921,15 59.5410921,27.6614404 59.5410921,27.7857895 C59.5410921,28.1036906 59.6067292,28.3242751 59.6547159,28.4529494 C59.5973525,28.3210312 59.4633205,28.0323251 59.2868174,27.8149845 C59.2222835,27.7301027 49.1566464,15 49.1566464,15 L46,15 L46,34 L47.4594595,34 L47.4594595,15.879094 L48.1020408,15.879094" id="Fill-15" fill="#FFFFFF" mask="url(#mask-2)"></path>
                    <path d="M143,15 L143,34 L140.147821,34 C140.147821,34 129.777716,20.8892809 129.713734,20.8049398 C129.537231,20.5875992 129.403199,20.2988931 129.345836,20.1669749 C129.393822,20.2951086 129.459459,20.515693 129.459459,20.8341348 C129.459459,20.9584839 129.459459,34 129.459459,34 L128,34 L128,16.3029622 L140.910645,32.613778 L141.541092,32.613778 L141.541092,15.0005406 L143,15" id="Fill-16" fill="#FFFFFF" mask="url(#mask-2)"></path>
                    <path d="M128.101489,15.879094 L141,32.1904504 L141,15 L139.541092,15 C139.541092,15 139.541092,27.6614404 139.541092,27.7857895 C139.541092,28.1036906 139.606729,28.3242751 139.654716,28.4529494 C139.597352,28.3210312 139.46332,28.0323251 139.286817,27.8149845 C139.222284,27.7301027 129.156095,15 129.156095,15 L126,15 L126,34 L127.459459,34 L127.459459,15.879094 L128.101489,15.879094" id="Fill-17" fill="#FFFFFF" mask="url(#mask-2)"></path>
                </g>
            </g>
        </g>
    </g>
</svg>